<?xml version="1.0" standalone="no"?>
<!DOCTYPE svg PUBLIC "-//W3C//DTD SVG 1.1//EN" "http://www.w3.org/Graphics/SVG/1.1/DTD/svg11.dtd" >
<svg xmlns="http://www.w3.org/2000/svg">
    <defs>
        <font id="AkzidenzGroteskBQ-Medium">
            <font-face font-family="AkzidenzGroteskBQ-Medium"
                       units-per-em="1000"
                       ascent="963"
                       descent="-222"
                       bbox="-45 -222 1225 963"
                    />
            <missing-glyph horiz-adv-x="0" />
            
            <glyph glyph-name="!" unicode="&#x21;" horiz-adv-x="211" d=" M211,436 L173,176 L117,176 L80,436 L80,706 L211,706 M211,0 L80,0 L80,138 L211,138"/> 
            <glyph glyph-name="&quot;" unicode="&#x22;" horiz-adv-x="297" d=" M297,743 L266,444 L232,444 L200,743 M131,743 L101,444 L66,444 L35,743"/> 
            <glyph glyph-name="#" unicode="&#x23;" horiz-adv-x="623" d=" M623,408 L492,408 L478,314 L601,314 L601,214 L466,214 L435,0 L334,0 L365,214 L266,214 L236,0 L134,0 L164,214 L42,214 L42,314 L177,314 L190,408 L64,408 L64,508 L203,508 L230,706 L334,706 L306,508 L404,508 L431,706 L532,706 L505,508 L623,508 M391,408 L292,408 L278,314 L378,314"/> 
            <glyph glyph-name="$" unicode="&#x24;" horiz-adv-x="586" d=" M586,219 Q586,131 528,73 Q496,41 452,22 Q418,9 358,0 L358,-114 L266,-114 L266,0 Q214,10 183.5,19.5 Q153,29 119,52 Q89,73 66,96 Q56,106 35,133 L136,210 Q164,170 207,142 Q233,127 242,125 Q251,121 266,120 L266,311 Q132,325 83,394 Q54,439 54,491 Q54,563 97,615 Q156,685 266,697 L266,805 L358,805 L358,697 Q488,685 574,588 L479,513 Q458,540 432.5,557 Q407,574 395,578 Q383,582 358,588 L358,428 Q454,415 514,371 Q586,317 586,219 M266,444 L266,588 Q265,588 256,586 Q247,584 242,582 Q185,561 185,511 Q185,482 205,467 Q225,451 266,444 M454,212 Q453,276 358,297 L358,118 Q375,120 388,126 Q454,154 454,212"/> 
            <glyph glyph-name="%" unicode="&#x25;" horiz-adv-x="850" d=" M850,223 Q850,159 841,124 Q837,106 829,88.5 Q821,71 804.5,47 Q788,23 757.5,8 Q727,-7 687,-7 Q601,-7 559,60 Q525,113 525,224 Q525,309 549,359 Q592,449 691,449 Q765,449 806,392 Q831,359 841,315 Q849,283 850,223 M621,646 L307,-37 L238,-6 L553,678 M351,458 Q353,353 316,294 Q274,225 187,225 Q109,225 65,286 Q44,316 35,356 Q26,392 26,453 Q26,557 62,614 Q106,681 191,681 Q250,681 288,647 Q326,613 341,555 Q351,518 351,458 M760,220 Q760,302 743,336 Q725,372 688,372 Q650,372 632,335 Q615,300 615,217 Q615,168 622,136 Q631,96 654,80 Q671,70 688,70 Q721,70 739,98 Q760,129 760,220 M261,453 Q261,535 244,569 Q226,605 189,605 Q151,605 133,568 Q116,533 116,450 Q116,401 123,369 Q132,329 155,313 Q172,303 189,303 Q222,303 240,331 Q261,362 261,453"/> 
            <glyph glyph-name="&amp;" unicode="&#x26;" horiz-adv-x="614" d=" M614,0 Q582,-3 565,-3 Q531,-3 505,3 Q479,9 466.5,16 Q454,23 436,37 Q358,-15 267,-15 Q171,-15 111,34 Q43,91 43,184 Q43,220 56,255 Q68,287 94,315 Q120,343 137,355 Q154,367 196,394 Q166,442 166,498 Q166,567 207,612 Q251,662 329,662 Q365,662 399,649 Q440,631 466,594 Q492,557 492,512 Q492,468 461,422 Q430,376 359,351 Q365,339 374,325.5 Q383,312 394,296.5 Q405,281 411,272 Q440,229 451,217 Q458,227 463.5,236.5 Q469,246 472.5,255.5 Q476,265 478.5,272.5 Q481,280 482.5,289.5 Q484,299 485,303.5 Q486,308 487,317 Q488,326 488,328 L603,327 Q600,301 597,290 Q574,194 522,129 Q539,111 553.5,104.5 Q568,98 592,98 Q596,98 614,100 M387,515 Q387,539 371.5,553.5 Q356,568 332,568 Q309,568 293.5,553 Q278,538 279,515 Q279,484 309,440 L327,446 Q337,449 348,454.5 Q359,460 373,476.5 Q387,493 387,515 M371,127 L250,304 Q234,296 215,282 Q164,242 164,192 Q164,164 176,145 Q205,89 274,89 Q326,89 371,127"/> 
            <glyph glyph-name="'" unicode="&#x27;" horiz-adv-x="131" d=" M131,743 L101,444 L66,444 L35,743"/> 
            <glyph glyph-name="(" unicode="&#x28;" horiz-adv-x="333" d=" M333,-105 L289,-164 Q272,-152 265,-146 Q197,-90 151,-31 Q35,118 35,316 Q35,505 141,655 Q170,694 204,730 Q242,768 285,800 L331,749 Q282,699 255,662 Q158,525 158,327 Q158,193 204.5,77.5 Q251,-38 333,-105"/> 
            <glyph glyph-name=")" unicode="&#x29;" horiz-adv-x="296" d=" M296,320 Q296,131 189,-19 Q136,-94 45,-164 L-1,-113 Q48,-63 75,-26 Q173,112 173,310 Q173,444 127,558.5 Q81,673 -1,741 L43,800 Q49,796 56.5,790 Q64,784 66,782 Q131,730 180,667 Q296,514 296,320"/> 
            <glyph glyph-name="*" unicode="&#x2A;" horiz-adv-x="358" d=" M358,557 L260,523 L320,444 L252,391 L188,474 L130,391 L60,442 L116,522 L20,550 L45,633 L143,605 L143,708 L230,708 L230,604 L330,638"/> 
            <glyph glyph-name="+" unicode="&#x2B;" horiz-adv-x="631" d=" M631,260 L427,260 L427,44 L297,44 L297,260 L93,260 L93,367 L297,367 L297,580 L427,580 L427,367 L631,367"/> 
            <glyph glyph-name="," unicode="&#x2C;" horiz-adv-x="170" d=" M170,-14 Q170,-66 143,-94 Q116,-122 62,-135 Q52,-137 45,-139 L45,-81 Q99,-75 99,0 L37,0 L37,137 L170,137 L170,-10"/> 
            <glyph glyph-name="-" unicode="&#x2D;" horiz-adv-x="330" d=" M330,247 L41,247 L41,360 L330,360"/> 
            <glyph glyph-name="." unicode="&#x2E;" horiz-adv-x="169" d=" M169,0 L37,0 L37,137 L169,137"/> 
            <glyph glyph-name="/" unicode="&#x2F;" horiz-adv-x="467" d=" M467,706 L132,0 L13,0 L348,706"/> 
            <glyph glyph-name="0" unicode="&#x30;" horiz-adv-x="529" d=" M529,340 Q528,222 503,152 Q478,82 429,42 Q367,-9 281,-9 Q164,-9 97,79 Q36,159 36,336 Q36,464 66,536 Q96,608 155,647 Q213,686 287,686 Q369,686 427,638 Q529,555 529,340 M399,338 Q401,440 384,485 Q381,502 369,525 Q340,575 285,575 Q239,575 212,544 Q165,491 165,334 Q165,270 172,221 Q188,143 227,117 Q251,102 283,102 Q312,102 333,114 Q369,134 384,184 Q399,231 399,338"/> 
            <glyph glyph-name="1" unicode="&#x31;" horiz-adv-x="363" d=" M363,0 L240,0 L240,386 Q240,392 240,403 Q240,414 240,418 Q240,422 239.5,429.5 Q239,437 238,440.5 Q237,444 234.5,448.5 Q232,453 229,457 Q217,469 184,469 L75,469 L75,546 L88,546 Q167,546 205,574 Q246,603 263,675 L363,675"/> 
            <glyph glyph-name="2" unicode="&#x32;" horiz-adv-x="516" d=" M516,0 L57,0 L57,98 Q197,198 293,305 Q366,387 366,470 Q366,514 343,542.5 Q320,571 277,571 Q242,571 218,550 Q200,534 191.5,506.5 Q183,479 182.5,463.5 Q182,448 182,414 L57,426 Q56,536 105,601 Q128,633 174,659.5 Q220,686 288,686 Q381,686 441,631 Q506,572 504,474 Q504,415 478,362 Q468,342 453.5,321 Q439,300 428.5,286.5 Q418,273 394,250.5 Q370,228 363,221.5 Q356,215 325,189 Q294,163 292,161 Q240,117 220,104 L516,104"/> 
            <glyph glyph-name="3" unicode="&#x33;" horiz-adv-x="524" d=" M524,199 Q524,103 454,45 Q390,-9 282,-9 Q167,-9 107,52 Q47,112 47,221 L180,221 Q176,195 181,174 Q188,146 212.5,123 Q237,100 284,100 Q314,100 339,113 Q390,140 390,207 Q390,242 372,267 Q343,308 271,306 L239,305 L239,410 Q245,410 264,409 Q283,408 292.5,409 Q302,410 317,412.5 Q332,415 342.5,422 Q353,429 361,441 Q375,460 375,489 Q375,527 351,551 Q327,575 289,575 Q245,575 218,542 Q193,511 192,462 L60,490 Q84,622 190,665 Q240,686 293,686 Q316,686 344,681 Q360,678 375,673.5 Q390,669 416,656 Q442,643 460.5,625.5 Q479,608 493.5,576.5 Q508,545 508,507 Q508,423 448,384 Q426,370 396,362 Q449,352 487,311 Q524,266 524,199"/> 
            <glyph glyph-name="4" unicode="&#x34;" horiz-adv-x="523" d=" M523,155 L436,155 L436,0 L313,0 L313,155 L17,155 L17,243 L313,675 L436,675 L436,258 L523,258 M320,526 L146,258 L313,258"/> 
            <glyph glyph-name="5" unicode="&#x35;" horiz-adv-x="519" d=" M519,241 Q519,138 459,71 Q388,-9 267,-9 Q172,-9 112,37 Q43,91 37,189 L176,198 Q178,154 204,126 Q230,98 273,99 Q306,99 327,112 Q355,128 369,163.5 Q383,199 383,235 Q383,261 375,286 Q369,302 360,316.5 Q351,331 327,346.5 Q303,362 271,362 Q257,362 241,359 Q225,356 202.5,340.5 Q180,325 170,299 L58,306 L105,677 L480,677 L470,564 L208,564 L185,415 Q198,428 201,430 Q248,465 315,465 Q405,465 462,402 Q519,339 519,241"/> 
            <glyph glyph-name="6" unicode="&#x36;" horiz-adv-x="513" d=" M513,225 Q513,130 458,67 Q390,-9 286,-9 Q211,-9 155,31 Q48,108 48,318 Q48,468 94,560 Q112,597 141,624 Q203,686 298,686 Q384,686 443,636 Q492,594 505,517 L377,500 Q377,518 371,532 Q351,576 298,576 Q231,576 203,506 Q181,454 179,367 Q194,386 209,398 Q257,435 321,435 Q397,435 451,385 Q513,325 513,225 M387,213 Q387,253 369,281 Q343,322 291,322 Q243,322 216.5,290.5 Q190,259 190,212 Q190,141 239,114 Q259,103 288,103 Q338,103 364,137 Q387,166 387,213"/> 
            <glyph glyph-name="7" unicode="&#x37;" horiz-adv-x="512" d=" M512,567 Q480,528 445,475 Q369,356 325,210 Q294,102 285,0 L120,0 Q127,52 140,104 Q153,156 166,196 Q179,236 200.5,281.5 Q222,327 235.5,354.5 Q249,382 274.5,421.5 Q300,461 309.5,475.5 Q319,490 343,523.5 Q367,557 369,559 L64,559 L64,677 L512,677"/> 
            <glyph glyph-name="8" unicode="&#x38;" horiz-adv-x="531" d=" M531,195 Q531,138 503,94 Q477,52 420.5,21.5 Q364,-9 279,-9 Q222,-9 173,7 Q154,13 134,24 Q114,35 88,56 Q62,77 45.5,113 Q29,149 29,194 Q29,246 53,283 Q82,329 140,354 Q114,367 94,387 Q53,434 53,500 Q53,549 78,590 Q103,629 154,657.5 Q205,686 286,686 Q341,686 382,672 Q400,666 419,655.5 Q438,645 461.5,625 Q485,605 500,571 Q515,537 515,495 Q515,398 427,354 Q454,342 478,319 Q531,269 531,195 M384,485 Q384,523 362,547 Q348,561 331,568 Q309,576 283,576 Q256,576 240,570 Q181,551 181,485 Q181,447 205,423 Q219,411 235,404 Q252,397 285,397 Q311,397 330,404 Q384,423 384,485 M397,199 Q397,238 376,260 Q355,282 333,289 Q307,296 284,296 Q251,296 230,288 Q170,263 170,198 Q170,156 201,128 Q232,103 285,103 Q333,103 365,127.5 Q397,152 397,199"/> 
            <glyph glyph-name="9" unicode="&#x39;" horiz-adv-x="517" d=" M517,365 Q517,208 461,112 Q439,73 408,45 Q375,17 332,3 Q293,-9 253,-9 Q138,-9 82,76 Q61,108 50,162 L187,181 Q191,157 197,144 Q217,101 269,102 Q294,102 312,113 Q348,136 364,191.5 Q380,247 379,300 Q366,279 339,265 Q297,241 244,241 Q171,241 119,283 Q50,341 50,453 Q50,513 70,558 Q91,606 142.5,646 Q194,686 279,686 Q350,686 399,655 Q429,635 449,610 Q466,588 475,570 Q517,491 517,365 M369,459 Q369,489 363,508 Q351,547 325,562 Q299,577 274,577 Q252,577 230,565 Q180,537 180,465 Q180,445 184,425 Q187,414 191.5,403.5 Q196,393 206,379.5 Q216,366 234,357.5 Q252,349 275,349 Q341,349 363,413 Q369,433 369,459"/> 
            <glyph glyph-name=":" unicode="&#x3A;" horiz-adv-x="210" d=" M210,371 L78,371 L78,509 L210,509 M210,0 L78,0 L78,137 L210,137"/> 
            <glyph glyph-name=";" unicode="&#x3B;" horiz-adv-x="211" d=" M211,371 L78,371 L78,509 L211,509 M211,-9 Q211,-69 180.5,-96.5 Q150,-124 85,-140 L85,-80 Q140,-73 140,-10 L140,0 L78,0 L78,137 L211,137"/> 
            <glyph glyph-name="&lt;" unicode="&#x3C;" horiz-adv-x="578" d=" M578,28 L113,257 L113,380 L578,608 L578,484 L232,322 L578,158"/> 
            <glyph glyph-name="=" unicode="&#x3D;" horiz-adv-x="625" d=" M625,351 L99,351 L99,458 L625,458 M625,148 L99,148 L99,255 L625,255"/> 
            <glyph glyph-name="&gt;" unicode="&#x3E;" horiz-adv-x="608" d=" M608,255 L143,27 L143,151 L489,313 L142,477 L143,607 L608,378"/> 
            <glyph glyph-name="?" unicode="&#x3F;" horiz-adv-x="535" d=" M535,509 Q535,416 461,356 Q456,352 423,329 Q381,300 369,279 Q357,258 357,210 Q357,191 358,182 L240,182 L240,207 Q240,316 268,355 Q283,377 317.5,399.5 Q352,422 374.5,446.5 Q397,471 397,509 Q397,550 365,577 Q333,604 292,604 Q236,604 205,567 Q174,530 174,473 L53,487 Q59,546 72,580 Q99,650 159.5,684 Q220,718 299,718 Q397,718 466,662 Q535,606 535,509 M366,0 L233,0 L233,137 L366,137"/> 
            <glyph glyph-name="@" unicode="&#x40;" horiz-adv-x="827" d=" M827,421 Q827,370 815,321 Q803,267 781,221 Q751,160 701,114.5 Q651,69 593,69 Q515,69 506,146 Q445,69 371,69 Q305,69 270.5,117 Q236,165 236,234 Q236,297 260,361 Q284,425 335,472.5 Q386,520 451,520 Q524,520 561,448 L573,499 L652,499 L619,345 Q591,219 591,177 Q591,140 616,140 Q636,140 668,172 Q708,212 732,284 Q756,356 756,419 Q756,526 692,585.5 Q628,645 522,645 Q416,645 327,586.5 Q238,528 188,434.5 Q138,341 138,236 Q138,99 226.5,21 Q315,-57 454,-57 Q545,-57 630.5,-18 Q716,21 783,89 L823,38 Q663,-124 454,-124 Q372,-124 293,-94 Q69,-6 69,235 Q69,362 128.5,471.5 Q188,581 294.5,646.5 Q401,712 529,712 Q663,712 745,633.5 Q827,555 827,421 M532,349 Q532,387 512.5,415.5 Q493,444 457,444 Q416,444 384.5,407 Q353,370 340,324.5 Q327,279 327,239 Q327,175 368,154 Q382,146 398,146 L402,146 Q443,149 474,185 Q505,221 518.5,265 Q532,309 532,349"/> 
            <glyph glyph-name="A" unicode="&#x41;" horiz-adv-x="636" d=" M636,0 L495,0 L454,138 L189,138 L148,0 L6,0 L245,706 L395,706 M419,254 L322,579 L224,254"/> 
            <glyph glyph-name="B" unicode="&#x42;" horiz-adv-x="643" d=" M643,200 Q643,85 550,32 Q541,27 531,22.5 Q521,18 513,15 Q505,12 493.5,9.5 Q482,7 475.5,5.5 Q469,4 455.5,3 Q442,2 437,1.5 Q432,1 416.5,0.5 Q401,0 397.5,0 Q394,0 377,0 Q360,0 357,0 L80,0 L80,706 L333,706 Q404,706 439,703 Q518,696 565,646 Q610,598 610,533 Q610,517 607,499 Q604,481 588.5,452 Q573,423 546,406 Q527,394 493,387 Q527,380 547,368 Q643,317 643,200 M474,511 Q474,538 457,560 Q451,567 445,572.5 Q439,578 430.5,582 Q422,586 416,588.5 Q410,591 398.5,593 Q387,595 382,596 Q377,597 364,597.5 Q351,598 347.5,598 Q344,598 330,598 Q316,598 314,598 L211,598 L211,422 L257,422 Q327,422 363,424 Q426,428 452,456 Q474,478 474,511 M508,212 Q508,277 451,306 Q434,315 407,318.5 Q380,322 360.5,322.5 Q341,323 285,323 L211,323 L211,114 L359,114 Q427,114 452,125 Q472,134 486,150 Q508,174 508,212"/> 
            <glyph glyph-name="C" unicode="&#x43;" horiz-adv-x="672" d=" M672,197 Q648,140 619,102 Q525,-18 367,-18 Q290,-18 225,12 Q191,28 161,53 Q131,78 101.5,118 Q72,158 54.5,219.5 Q37,281 37,355 Q37,494 102,587 Q197,724 372,724 Q530,724 610,612 Q638,570 659,506 L528,472 Q525,501 510,528 Q490,565 453.5,584.5 Q417,604 374,603 Q330,603 292,584 Q246,561 213,504.5 Q180,448 180,358 Q180,256 222,191 Q244,158 273,139 Q319,107 376,107 Q454,107 506,171 Q514,181 534,214 Q539,226 547,249"/> 
            <glyph glyph-name="D" unicode="&#x44;" horiz-adv-x="669" d=" M669,347 Q669,273 650,210 Q631,147 585,94 Q539,41 469,19 Q408,0 296,0 L71,0 L71,706 L324,706 Q385,706 426,698 Q530,677 596,592 Q669,495 669,347 M529,348 Q529,481 461,541 Q429,568 387,579 Q357,587 273,587 L203,587 L203,119 L238,119 Q345,119 383,125 Q451,136 487,180 Q529,233 529,348"/> 
            <glyph glyph-name="E" unicode="&#x45;" horiz-adv-x="605" d=" M605,0 L78,0 L78,706 L580,706 L580,588 L208,588 L208,422 L549,422 L549,308 L208,308 L208,119 L605,119"/> 
            <glyph glyph-name="F" unicode="&#x46;" horiz-adv-x="548" d=" M548,588 L212,588 L212,412 L507,412 L507,299 L212,299 L212,0 L81,0 L81,706 L548,706"/> 
            <glyph glyph-name="G" unicode="&#x47;" horiz-adv-x="685" d=" M685,0 L572,0 L571,60 Q487,-18 377,-18 Q242,-18 151,71 Q46,176 46,346 Q46,496 129,601 Q144,620 164,638 Q184,656 216,677 Q248,698 293,711 Q338,724 388,724 Q448,724 504,703 Q634,652 685,516 L559,466 Q510,605 387,605 Q311,605 260,554 Q190,482 190,350 Q190,215 271,147 Q319,107 390,107 Q444,107 486.5,133 Q529,159 549,207 Q559,230 564,270 L388,270 L388,386 L685,386"/> 
            <glyph glyph-name="H" unicode="&#x48;" horiz-adv-x="649" d=" M649,0 L516,0 L516,321 L213,321 L213,0 L80,0 L80,706 L213,706 L213,440 L516,440 L516,706 L649,706"/> 
            <glyph glyph-name="I" unicode="&#x49;" horiz-adv-x="210" d=" M210,0 L80,0 L80,706 L210,706"/> 
            <glyph glyph-name="J" unicode="&#x4A;" horiz-adv-x="332" d=" M332,170 Q332,99 294,54 Q235,-15 108,-15 Q65,-15 26,-6 L26,124 Q71,114 96,114 Q132,114 160,129 Q167,133 172.5,138 Q178,143 182,147.5 Q186,152 189.5,159.5 Q193,167 195,172 Q197,177 198.5,186 Q200,195 200.5,199 Q201,203 201.5,214 Q202,225 202,228 Q202,231 202,242 Q202,253 202,255 L202,706 L332,706"/> 
            <glyph glyph-name="K" unicode="&#x4B;" horiz-adv-x="665" d=" M665,0 L514,0 L326,332 L211,200 L211,0 L80,0 L80,706 L211,706 L211,382 L494,706 L649,706 L418,440"/> 
            <glyph glyph-name="L" unicode="&#x4C;" horiz-adv-x="495" d=" M495,0 L82,0 L82,706 L215,706 L215,120 L495,120"/> 
            <glyph glyph-name="M" unicode="&#x4D;" horiz-adv-x="733" d=" M733,0 L604,0 L617,580 L464,0 L345,0 L192,580 L205,0 L76,0 L76,706 L268,706 L406,182 L542,706 L733,706"/> 
            <glyph glyph-name="N" unicode="&#x4E;" horiz-adv-x="628" d=" M628,0 L512,0 L203,495 L211,0 L82,0 L82,706 L201,706 L514,208 L498,706 L628,706"/> 
            <glyph glyph-name="O" unicode="&#x4F;" horiz-adv-x="725" d=" M725,353 Q725,189 627,83 Q574,26 507,2 Q452,-18 384,-18 Q237,-18 142,91 Q48,198 48,352 Q48,426 69,489 Q104,596 189.5,660 Q275,724 387,724 Q540,724 637,612 Q726,511 725,353 M592,339 Q594,440 550,510 Q493,603 386,603 Q338,603 296,582 Q250,557 217,502 Q184,447 184,357 Q184,201 284,135 Q330,105 388,105 Q432,105 469,122 Q518,145 554,197 Q590,249 592,339"/> 
            <glyph glyph-name="P" unicode="&#x50;" horiz-adv-x="607" d=" M607,471 Q607,341 513,280 Q484,262 448.5,252.5 Q413,243 387,241.5 Q361,240 317,240 L214,240 L214,0 L82,0 L82,706 L320,706 L346,706 Q371,707 371,706 Q491,698 554,624 Q607,563 607,471 M471,475 Q471,512 455,541 Q441,565 415,577.5 Q389,590 369.5,591.5 Q350,593 315,593 L214,593 L214,348 L309,348 Q314,348 323,348.5 Q332,349 337,349 Q423,353 452,401 Q471,434 471,475"/> 
            <glyph glyph-name="Q" unicode="&#x51;" horiz-adv-x="780" d=" M780,99 L743,-28 Q714,-20 712,-19 Q657,3 592,59 Q503,-18 369,-18 Q217,-18 127,86 Q91,126 63.5,193.5 Q36,261 36,353 Q36,507 120,610 Q215,724 372,724 Q498,724 585,653 Q647,603 678.5,526 Q710,449 710,364 Q710,264 675,181 Q666,163 659,150 Q664,138 677,128 Q692,116 719.5,106.5 Q747,97 766,97 Q771,97 780,99 M568,354 Q568,507 465,570 Q416,598 369,598 Q293,598 240,537 Q177,461 177,349 Q177,305 189,264 Q209,195 259,151.5 Q309,108 379,108 Q455,108 503,162 Q568,235 568,354"/> 
            <glyph glyph-name="R" unicode="&#x52;" horiz-adv-x="621" d=" M621,0 L470,0 L331,262 L212,262 L212,0 L81,0 L81,706 L370,706 Q495,706 560,620 Q603,563 603,482 Q603,439 590,403 Q578,371 547.5,337.5 Q517,304 464,288 M469,483 Q469,542 425,571 Q393,592 319,592 L212,592 L212,372 L259,372 Q307,372 329,372.5 Q351,373 376,377 Q401,381 416,389 Q469,418 469,483"/> 
            <glyph glyph-name="S" unicode="&#x53;" horiz-adv-x="632" d=" M632,210 Q632,114 563,55 Q477,-18 332,-18 Q157,-18 57,87 Q36,110 23,133 L134,210 Q205,104 353,104 Q384,104 405,109 Q419,112 434.5,118 Q450,124 469.5,145.5 Q489,167 489,197 Q489,222 476,239 Q469,248 458.5,255.5 Q448,263 431.5,268.5 Q415,274 406,276.5 Q397,279 376,283.5 Q355,288 353,288 L269,307 Q192,324 162,340 Q61,392 61,504 Q61,563 88,608 Q116,656 179,690 Q242,724 340,724 Q520,724 625,581 L516,500 Q450,605 333,605 Q236,605 208,551 Q200,536 200,519 Q200,502 209,487 Q221,467 246.5,457 Q272,447 330,435 L403,419 Q467,405 513,385.5 Q559,366 591,329 Q632,284 632,210"/> 
            <glyph glyph-name="T" unicode="&#x54;" horiz-adv-x="541" d=" M541,587 L346,587 L346,0 L214,0 L214,587 L22,587 L22,706 L541,706"/> 
            <glyph glyph-name="U" unicode="&#x55;" horiz-adv-x="650" d=" M649,299 Q649,293 649,283 Q649,181 637,144 Q616,80 547,31 Q478,-18 360,-18 Q212,-18 136,66 Q105,97 91,142 Q80,178 80,286 L80,706 L213,706 L213,272 Q213,215 220,194 Q246,110 365,110 Q479,110 508,190 Q517,216 517,279 L517,706 L649,706"/> 
            <glyph glyph-name="V" unicode="&#x56;" horiz-adv-x="595" d=" M595,706 L394,0 L216,0 L8,706 L147,706 L305,149 L459,706"/> 
            <glyph glyph-name="W" unicode="&#x57;" horiz-adv-x="823" d=" M823,706 L668,0 L514,0 L415,491 L313,0 L159,0 L12,706 L147,706 L243,168 L353,706 L476,706 L588,168 L687,706"/> 
            <glyph glyph-name="X" unicode="&#x58;" horiz-adv-x="639" d=" M639,0 L488,0 L323,261 L162,0 L9,0 L246,383 L43,706 L195,706 L323,504 L446,706 L599,706 L400,383"/> 
            <glyph glyph-name="Y" unicode="&#x59;" horiz-adv-x="615" d=" M615,706 L377,279 L377,0 L246,0 L246,279 L10,706 L160,706 L313,414 L467,706"/> 
            <glyph glyph-name="Z" unicode="&#x5A;" horiz-adv-x="575" d=" M575,0 L24,0 L24,108 L410,588 L57,588 L57,706 L575,706 L575,594 L204,119 L575,119"/> 
            <glyph glyph-name="[" unicode="&#x5B;" horiz-adv-x="264" d=" M264,-144 L59,-144 L59,779 L264,779 L264,706 L167,706 L167,-72 L264,-72"/> 
            <glyph glyph-name="\" unicode="&#x5C;" horiz-adv-x="467" d=" M467,0 L348,0 L13,706 L132,706"/> 
            <glyph glyph-name="]" unicode="&#x5D;" horiz-adv-x="225" d=" M225,-144 L20,-144 L20,-71 L117,-71 L117,707 L20,707 L20,779 L225,779"/> 
            <glyph glyph-name="^" unicode="&#x5E;" horiz-adv-x="633" d=" M633,284 L502,284 L366,592 L228,284 L92,284 L301,706 L427,706"/> 
            <glyph glyph-name="_" unicode="&#x5F;" horiz-adv-x="510" d=" M510,-222 L-10,-222 L-10,-130 L510,-130"/> 
            <glyph glyph-name="`" unicode="&#x60;" horiz-adv-x="236" d=" M236,573 L147,573 L35,706 L184,706"/> 
            <glyph glyph-name="a" unicode="&#x61;" horiz-adv-x="500" d=" M500,0 L358,0 L355,39 Q333,21 309,11 Q258,-12 208,-12 Q96,-12 48,65 Q25,102 26,145 Q26,224 94,270 Q132,296 220,313 Q317,333 358,347 Q358,374 351,388 Q333,422 272,422 Q208,422 184,391 Q171,375 171,347 L49,354 Q52,428 103,469 Q158,515 268,515 Q374,515 429,476 Q454,458 465,436 Q478,410 478,347 L478,81 Q478,52 481.5,37.5 Q485,23 500,0 M358,194 L358,249 Q321,230 263,221 Q257,220 243,218 Q229,216 221,214.5 Q213,213 202,209 Q191,205 182,200 Q153,181 153,150 Q153,125 173,108 Q193,91 235,91 Q280,91 310.5,109 Q341,127 351,148 Q358,162 358,194"/> 
            <glyph glyph-name="b" unicode="&#x62;" horiz-adv-x="547" d=" M547,253 Q547,178 516,113 Q485,48 424,14 Q373,-15 320,-15 Q258,-15 205,30 Q193,40 183,52 L183,0 L64,0 L64,706 L183,706 L184,458 Q190,464 200,472 Q257,515 327,515 Q410,515 472,452 Q547,374 547,253 M424,255 Q428,311 397,355 Q362,406 299,406 Q252,406 221,373 Q182,333 182,259 Q182,162 233,123 Q267,99 304,99 Q363,99 395,149 Q424,194 424,255"/> 
            <glyph glyph-name="c" unicode="&#x63;" horiz-adv-x="497" d=" M497,141 Q483,105 465,80 Q432,35 380,10 Q328,-15 271,-15 Q219,-15 167,8 Q121,29 89.5,64 Q58,99 45,137.5 Q32,176 28,201.5 Q24,227 24,250 Q24,348 78,418 Q151,515 277,515 Q326,515 370,497 Q454,462 492,373 L385,323 Q376,353 355,374 Q321,408 271,408 Q218,408 185,369 Q148,326 148,253 Q148,221 155,198 Q167,153 197.5,125 Q228,97 274,97 Q298,97 319,106 Q340,115 351,124 Q362,133 373.5,152 Q385,171 387,175.5 Q389,180 395,195"/> 
            <glyph glyph-name="d" unicode="&#x64;" horiz-adv-x="516" d=" M516,0 L397,0 L397,48 Q394,46 389.5,40.5 Q385,35 383,32 Q333,-15 258,-15 Q209,-15 165,6 Q113,30 74.5,86.5 Q36,143 36,240 Q36,343 79,408 Q122,473 176,498 Q215,515 263,515 Q314,515 354,493 Q369,484 379,477 L397,459 L397,706 L516,706 M396,248 Q396,312 374,351 Q364,370 348,382 Q321,404 281,404 Q248,404 220,386 Q161,348 161,253 Q161,189 190,141.5 Q219,94 280,94 Q328,94 358,128 Q398,172 396,248"/> 
            <glyph glyph-name="e" unicode="&#x65;" horiz-adv-x="535" d=" M535,112 Q514,83 489,60 Q408,-15 291,-15 Q184,-15 112,52 Q34,126 34,253 Q34,321 56,373 Q66,396 81.5,417 Q97,438 123.5,462 Q150,486 192,500.5 Q234,515 285,515 Q416,515 482,419 Q527,350 531,226 L161,226 Q167,181 193,150 Q232,102 302,102 Q373,102 416,148 Q422,155 433,171 M399,314 Q396,338 389,355 Q360,419 287,419 Q260,419 237,410 Q178,386 165,314"/> 
            <glyph glyph-name="f" unicode="&#x66;" horiz-adv-x="308" d=" M308,415 L199,415 L199,0 L79,0 L79,415 L4,415 L4,500 L79,500 L79,558 Q79,600 82,616 Q90,662 126.5,684.5 Q163,707 240,707 Q270,707 308,702 L308,600 Q299,603 270,603 Q244,603 228.5,597 Q213,591 207,577 Q201,563 200,555 Q199,547 199,529 L199,500 L308,500"/> 
            <glyph glyph-name="g" unicode="&#x67;" horiz-adv-x="520" d=" M520,89 Q520,83 520,64 Q520,45 520,36.5 Q520,28 519.5,10.5 Q519,-7 516.5,-17.5 Q514,-28 511,-42.5 Q508,-57 502,-68.5 Q496,-80 488,-91 Q432,-167 279,-167 Q134,-167 81,-92 Q63,-65 50,-10 L182,-11 Q187,-27 194,-36 Q219,-73 284,-73 Q363,-73 388,-26 Q395,-14 397.5,3.5 Q400,21 400.5,32.5 Q401,44 401,82 Q342,29 250,29 Q198,29 159,47 Q109,69 71.5,122 Q34,175 34,267 Q34,330 51,374 Q76,439 132.5,477 Q189,515 260,515 Q322,515 366,483 Q387,468 401,447 L401,500 L520,500 M404,266 Q404,300 396,322 Q392,335 385.5,347.5 Q379,360 366,375 Q353,390 330.5,399 Q308,408 280,408 Q226,408 191,370 Q157,333 157,270 Q157,211 189,175 Q205,159 221,151 Q247,138 281,138 Q338,138 370,172 Q404,206 404,266"/> 
            <glyph glyph-name="h" unicode="&#x68;" horiz-adv-x="520" d=" M520,0 L402,0 L402,275 Q402,304 401.5,315.5 Q401,327 393.5,346.5 Q386,366 370,380 Q347,401 308,401 Q248,401 209,353 Q193,334 187,311 Q183,296 183,268 L183,0 L63,0 L63,706 L183,706 L183,449 Q201,469 231,486 Q281,515 341,515 Q385,515 425,498.5 Q465,482 489,449 Q504,428 511,402.5 Q518,377 519,359.5 Q520,342 520,309"/> 
            <glyph glyph-name="i" unicode="&#x69;" horiz-adv-x="184" d=" M184,578 L65,578 L65,699 L184,699 M184,0 L65,0 L65,500 L184,500"/> 
            <glyph glyph-name="j" unicode="&#x6A;" horiz-adv-x="185" d=" M185,579 L67,579 L67,701 L185,701 M185,-41 Q185,-98 157,-124 Q116,-163 29,-163 Q19,-163 1,-161 L1,-52 Q2,-52 8,-51.5 Q14,-51 19.5,-50 Q25,-49 33,-46.5 Q41,-44 47,-40 Q51,-37 54.5,-34 Q58,-31 60,-28.5 Q62,-26 63.5,-21 Q65,-16 65.5,-13.5 Q66,-11 66.5,-3.5 Q67,4 67,7 Q67,10 67,20.5 Q67,31 67,35 L67,500 L185,500"/> 
            <glyph glyph-name="k" unicode="&#x6B;" horiz-adv-x="550" d=" M550,0 L404,0 L253,224 L183,155 L183,0 L64,0 L64,706 L183,706 L183,309 L378,500 L531,500 L340,309"/> 
            <glyph glyph-name="l" unicode="&#x6C;" horiz-adv-x="187" d=" M187,0 L65,0 L65,706 L187,706"/> 
            <glyph glyph-name="m" unicode="&#x6D;" horiz-adv-x="813" d=" M813,0 L694,0 L694,306 Q694,318 692,330 Q690,342 682.5,361 Q675,380 656.5,391.5 Q638,403 610,403 Q552,403 521,352 Q497,314 497,235 L497,0 L378,0 L378,280 Q378,286 377.5,297 Q377,308 377,313 Q377,358 350,383 Q329,402 296,402 Q262,402 233,378 Q210,359 198.5,326.5 Q187,294 185,271 Q183,248 183,210 L183,0 L63,0 L63,500 L183,500 L184,444 Q193,456 200,462 Q219,480 257,497.5 Q295,515 341,515 Q385,515 422.5,495.5 Q460,476 480,439 Q502,466 526,482 Q576,515 641,515 Q702,515 746.5,487.5 Q791,460 806,404 Q813,377 813,316"/> 
            <glyph glyph-name="n" unicode="&#x6E;" horiz-adv-x="500" d=" M500,0 L382,0 L382,255 Q382,313 377,332 Q361,398 294,398 Q258,398 231,375 Q204,353 194,318 Q184,283 184,217 L184,0 L63,0 L63,500 L184,500 L184,441 Q192,453 206,467 Q257,515 338,515 Q387,515 421,496 Q455,477 471,454 Q476,447 480.5,439 Q485,431 488,421 Q491,411 493,404 Q495,397 496.5,384.5 Q498,372 498.5,367 Q499,362 499.5,347.5 Q500,333 500,329.5 Q500,326 500,310.5 Q500,295 500,294"/> 
            <glyph glyph-name="o" unicode="&#x6F;" horiz-adv-x="549" d=" M549,252 Q549,189 529,140 Q520,117 504,93.5 Q488,70 461,44 Q434,18 390.5,1.5 Q347,-15 295,-15 Q233,-15 182,8 Q159,18 136.5,35.5 Q114,53 89.5,81.5 Q65,110 50,154.5 Q35,199 35,252 Q35,307 57,364 Q67,387 82.5,409.5 Q98,432 125,457.5 Q152,483 195.5,499 Q239,515 291,515 Q350,515 401,492 Q425,482 447.5,465 Q470,448 494.5,420.5 Q519,393 534,349 Q549,305 549,252 M424,254 Q422,317 386.5,362 Q351,407 289,407 Q251,407 221,388 Q160,348 160,255 Q160,216 170,187 Q176,170 187.5,152 Q199,134 228.5,114.5 Q258,95 295,95 Q359,95 392.5,142 Q426,189 424,254"/> 
            <glyph glyph-name="p" unicode="&#x70;" horiz-adv-x="548" d=" M548,246 Q548,147 498,77 Q433,-15 320,-15 Q244,-15 184,41 L184,-163 L64,-163 L64,500 L184,500 L184,455 Q241,515 321,515 Q419,515 481,442 Q548,362 548,246 M425,252 Q425,289 416,316 Q403,353 372,376.5 Q341,400 302,400 Q270,400 240,382 Q184,344 182,253 Q182,221 189,194 Q201,151 231,125 Q261,99 305,99 Q340,99 367,117 Q425,155 425,252"/> 
            <glyph glyph-name="q" unicode="&#x71;" horiz-adv-x="508" d=" M508,-163 L389,-163 L388,47 Q329,-15 246,-15 Q146,-15 87,55 Q25,128 25,245 Q25,303 41,352 Q64,423 121,469 Q178,515 251,515 Q320,515 364,475 Q377,464 389,447 L389,500 L508,500 M389,249 Q389,306 364,345 Q348,367 333,378 Q306,398 268,398 Q230,398 203,378 Q148,338 148,246 Q148,183 178,139 Q208,95 269,95 Q307,95 337,117 Q390,156 389,249"/> 
            <glyph glyph-name="r" unicode="&#x72;" horiz-adv-x="339" d=" M339,388 Q218,388 189,296 Q180,268 180,214 L180,0 L64,0 L64,500 L180,500 L180,429 Q194,455 210,470 Q252,511 329,511 L339,511"/> 
            <glyph glyph-name="s" unicode="&#x73;" horiz-adv-x="487" d=" M487,156 Q487,120 470,88 Q448,46 396.5,15.5 Q345,-15 262,-15 Q153,-15 70,36 Q44,52 22,75 L112,148 Q126,131 135,123 Q180,84 256,84 Q315,84 341,114 Q354,127 354,143 Q354,154 346,164 Q343,168 340.5,171 Q338,174 333.5,176 Q329,178 326.5,179.5 Q324,181 317.5,182.5 Q311,184 307.5,185 Q304,186 294.5,188 Q285,190 280,191 Q268,194 234,200 Q200,206 182,210 Q44,248 44,352 Q44,393 67,429 Q90,464 137.5,489.5 Q185,515 259,515 Q394,515 474,422 L389,343 Q378,365 358,383 Q317,419 253,419 Q214,419 192,404 Q170,389 170,367 Q171,346 186,336 Q203,323 272,311 Q281,309 297.5,306.5 Q314,304 327.5,301.5 Q341,299 353,296 Q405,284 432,265 Q487,225 487,156"/> 
            <glyph glyph-name="t" unicode="&#x74;" horiz-adv-x="304" d=" M304,4 Q240,-4 218,-4 Q131,-4 98,36 Q86,51 83,65 Q77,84 77,160 L77,415 L4,415 L4,500 L77,500 L77,678 L197,678 L197,500 L304,500 L304,415 L197,415 L197,188 Q197,127 209,114 Q222,99 255,99 Q282,99 304,105"/> 
            <glyph glyph-name="u" unicode="&#x75;" horiz-adv-x="517" d=" M517,0 L397,0 L396,51 Q328,-12 235,-12 Q135,-12 91,54 Q86,62 81.5,69.5 Q77,77 74,87 Q71,97 69,103.5 Q67,110 65.5,122 Q64,134 63.5,139 Q63,144 62.5,158 Q62,172 62,175.5 Q62,179 62,194.5 Q62,210 62,212 L62,500 L183,500 L183,230 Q183,199 184,185 Q185,171 194.5,149 Q204,127 223,116 Q247,101 281,101 Q347,101 378,157 Q397,193 397,288 L397,500 L517,500"/> 
            <glyph glyph-name="v" unicode="&#x76;" horiz-adv-x="468" d=" M468,500 L303,0 L175,0 L13,500 L137,500 L241,156 L343,500"/> 
            <glyph glyph-name="w" unicode="&#x77;" horiz-adv-x="735" d=" M735,500 L585,0 L466,0 L376,319 L281,0 L162,0 L17,500 L142,500 L229,158 L322,500 L429,500 L521,158 L610,500"/> 
            <glyph glyph-name="x" unicode="&#x78;" horiz-adv-x="494" d=" M494,0 L356,0 L252,158 L152,0 L9,0 L181,268 L29,500 L170,500 L252,374 L331,500 L474,500 L323,268"/> 
            <glyph glyph-name="y" unicode="&#x79;" horiz-adv-x="470" d=" M470,500 L343,64 Q342,62 335,36 Q328,10 325,1.5 Q322,-7 314.5,-30 Q307,-53 301.5,-65 Q296,-77 287.5,-94 Q279,-111 270.5,-122.5 Q262,-134 252,-142 Q215,-172 150,-172 Q112,-172 79,-165 L79,-61 Q144,-69 172,-46 Q187,-32 193,-10 L12,500 L141,500 L253,127 L347,500"/> 
            <glyph glyph-name="z" unicode="&#x7A;" horiz-adv-x="459" d=" M459,0 L31,0 L31,92 L301,393 L58,393 L58,500 L459,500 L459,407 L195,106 L459,106"/> 
            <glyph glyph-name="{" unicode="&#x7B;" horiz-adv-x="288" d=" M288,-148 L236,-148 Q191,-148 168,-140.5 Q145,-133 128,-113 Q112,-94 106,-70 Q99,-43 99,14 L99,19 L100,174 Q100,226 89,246 Q73,275 14,280 L14,355 Q51,357 70,369 Q87,380 93.5,399 Q100,418 100,461 L99,615 L99,621 Q99,677 106,704 Q113,730 128,747 Q145,767 168.5,774.5 Q192,782 235,782 L287,782 L288,710 L271,710 Q238,710 224,695 Q216,683 213,673 Q209,658 209,602 L209,452 Q209,390 192.5,363 Q176,336 127,316 Q155,309 173,292 Q193,275 201,251.5 Q209,228 209,183 L209,32 Q209,-24 213,-38 Q224,-76 274,-76 L288,-76"/> 
            <glyph glyph-name="|" unicode="&#x7C;" horiz-adv-x="177" d=" M177,-143 L68,-143 L68,779 L177,779"/> 
            <glyph glyph-name="}" unicode="&#x7D;" horiz-adv-x="286" d=" M286,279 Q247,275 230,265 Q213,254 206.5,235 Q200,216 200,173 L201,19 L201,13 Q201,-39 194,-70 Q188,-95 171,-113 Q154,-133 131,-140.5 Q108,-148 65,-148 L12,-148 L12,-76 L29,-77 Q59,-78 75,-61 Q84,-50 87,-39 Q91,-24 91,32 L91,182 Q91,243 107.5,270.5 Q124,298 173,318 Q144,326 126,341 Q106,359 98.5,382.5 Q91,406 91,451 L91,602 Q91,654 86,672 Q77,710 26,710 L12,710 L12,782 L64,782 Q108,782 131,774.5 Q154,767 171,747 Q188,727 194,704 Q201,672 201,620 L201,615 L200,460 Q200,404 210,387 Q225,360 286,354"/> 
            <glyph glyph-name="~" unicode="&#x7E;" horiz-adv-x="653" d=" M653,310 Q615,263 580,240 Q535,211 488,211 Q446,211 367,249 L332,266 Q269,296 228,296 Q210,296 195,290 Q169,280 126,229 L116,217 L72,318 Q104,361 125,379 Q170,418 230,418 Q273,418 357,380 L408,357 Q463,332 487,332 Q522,332 553,355 Q576,371 608,410"/> 
            <glyph glyph-name="¡" unicode="&#xA1;" horiz-adv-x="171" d=" M171,568 L40,568 L40,706 L171,706 M171,0 L40,0 L40,271 L78,531 L134,531 L171,271"/> 
            <glyph glyph-name="¢" unicode="&#xA2;" horiz-adv-x="494" d=" M494,143 Q479,105 464,83 Q417,14 341,-4 Q337,-5 327.5,-6.5 Q318,-8 312,-9 L312,-108 L234,-108 L234,-9 Q178,-1 135.5,26 Q93,53 72.5,84 Q52,115 39.5,153.5 Q27,192 24.5,214 Q22,236 22,255 Q22,354 75,427 Q128,500 235,522 L235,621 L313,621 L313,522 Q352,517 382,503 Q412,489 433.5,465 Q455,441 465,426 Q475,411 490,384 L384,334 Q363,385 333,405 Q326,410 311,413 L311,105 Q339,113 358.5,134.5 Q378,156 383.5,170.5 Q389,185 392,198 M233,109 L233,414 Q209,402 201,395 Q145,350 145,260 Q145,134 233,109"/> 
            <glyph glyph-name="£" unicode="&#xA3;" horiz-adv-x="594" d=" M594,232 Q594,193 590,161 Q588,149 584,130 Q580,111 565.5,76.5 Q551,42 530,23 Q494,-8 441,-8 Q411,-8 363,8 Q353,12 342,17 Q331,22 318,29 Q305,36 298,39 Q295,37 284,31 Q273,25 269.5,23 Q266,21 256.5,16 Q247,11 242.5,9.5 Q238,8 229.5,4 Q221,0 215,-1.5 Q209,-3 201,-5 Q193,-7 185,-7.5 Q177,-8 169,-8 Q139,-8 114,3 Q83,16 66,44 Q49,72 49,106 Q49,138 63,163 Q77,188 104,201.5 Q131,215 161,215 Q192,215 234,201 Q237,212 237,217 Q237,242 222,263 Q218,267 209,275 L79,275 L79,381 L159,381 Q117,434 117,502 Q117,587 177,637 Q249,695 346,695 Q406,695 458,670 Q519,641 543,590.5 Q567,540 567,466 Q567,444 566,434 L436,434 Q441,457 441,476 Q441,500 434,520 Q423,548 397.5,565.5 Q372,583 342,583 Q320,583 302,575 Q249,548 249,490 Q249,442 298,381 L421,381 L421,275 L343,275 Q349,231 349,203 Q349,172 343,143 Q384,114 412,114 Q431,114 443,127 Q465,149 465,208 L465,232 M210,106 Q188,123 171,123 Q158,123 151,115.5 Q144,108 144,100 Q144,93 151.5,85.5 Q159,78 172,79 Q198,79 210,106"/> 
            <glyph glyph-name="¤" unicode="&#xA4;" horiz-adv-x="635" d=" M635,569 L557,492 Q605,416 605,339 Q605,260 556,184 L634,106 L563,36 L485,114 Q440,87 407.5,77 Q375,67 332,67 Q251,67 179,115 L101,38 L31,108 L109,185 Q60,256 60,339 Q60,421 109,493 L32,569 L102,639 L179,563 Q248,612 334,612 Q415,612 486,563 L564,640 M497,337 Q497,408 450,456.5 Q403,505 333,505 Q263,505 216,457.5 Q169,410 169,340 Q169,270 216.5,222 Q264,174 335,174 Q403,174 450,221.5 Q497,269 497,337"/> 
            <glyph glyph-name="¥" unicode="&#xA5;" horiz-adv-x="601" d=" M601,686 L456,430 L540,430 L540,331 L398,331 L364,270 L540,270 L540,171 L364,171 L364,0 L235,0 L235,171 L58,171 L58,270 L234,270 L203,331 L58,331 L58,430 L147,430 L3,686 L152,686 L301,401 L454,686"/> 
            <glyph glyph-name="¦" unicode="&#xA6;" horiz-adv-x="178" d=" M178,376 L69,376 L69,778 L178,778 M178,-144 L69,-144 L69,257 L178,257"/> 
            <glyph glyph-name="§" unicode="&#xA7;" horiz-adv-x="604" d=" M604,330 Q604,277 575,235 Q546,193 497,170 Q538,126 538,78 Q538,30 505.5,-4 Q473,-38 430,-51.5 Q387,-65 340,-65 Q277,-65 209,-44 Q141,-23 91,14 L149,96 Q242,35 336,35 Q362,35 383,44.5 Q404,54 404,77 Q404,96 367,115.5 Q330,135 277,156.5 Q224,178 170.5,205 Q117,232 80,276.5 Q43,321 43,376 Q43,426 71,461 Q99,496 149,525 Q110,559 110,613 Q110,685 168.5,722 Q227,759 303,759 Q434,759 540,692 L484,608 Q444,626 427,633 Q410,640 376.5,649.5 Q343,659 316,659 Q292,659 268,651.5 Q244,644 244,626 Q244,621 246,616 Q248,611 250,607.5 Q252,604 257,600 Q262,596 265.5,594 Q269,592 275.5,588.5 Q282,585 284.5,584 Q287,583 294.5,579.5 Q302,576 303,576 L396,536 Q430,521 444.5,514.5 Q459,508 489.5,492 Q520,476 535.5,462 Q551,448 569.5,427.5 Q588,407 596,382.5 Q604,358 604,330 M470,308 Q470,334 457,351 Q445,367 412.5,386.5 Q380,406 353,417.5 Q326,429 281,446.5 Q236,464 229,467 Q170,446 170,396 Q170,374 185.5,355.5 Q201,337 214.5,329.5 Q228,322 255,310 Q259,308 311,285 Q376,255 426,230 Q470,263 470,308"/> 
            <glyph glyph-name="¨" unicode="&#xA8;" horiz-adv-x="293" d=" M293,587 L178,587 L178,706 L293,706 M91,587 L-22,587 L-22,706 L91,706"/> 
            <glyph glyph-name="©" unicode="&#xA9;" horiz-adv-x="765" d=" M765,360 Q765,205 663,101 Q561,-3 408,-3 Q260,-3 156.5,101 Q53,205 53,353 Q53,502 157,605.5 Q261,709 410,709 Q556,709 660.5,606 Q765,503 765,360 M725,346 Q725,485 634.5,578.5 Q544,672 409,672 Q278,672 186,578.5 Q94,485 94,352 Q94,219 185.5,126.5 Q277,34 409,34 Q538,34 631.5,126.5 Q725,219 725,346 M581,203 Q541,157 502,138 Q463,119 413,119 Q321,119 264,183.5 Q207,248 207,351 Q207,451 265.5,517.5 Q324,584 413,584 Q466,584 503,566 Q540,548 581,501 L518,436 Q489,470 466.5,482.5 Q444,495 415,495 Q366,495 336.5,456 Q307,417 307,352 Q307,287 336,248.5 Q365,210 414,210 Q472,210 518,266"/> 
            <glyph glyph-name="ª" unicode="&#xAA;" horiz-adv-x="302" d=" M302,426 L233,426 Q226,446 226,448 Q184,420 137,420 Q97,420 68,444 Q39,468 39,510 Q39,548 67,572 Q86,587 150.5,601 Q215,615 222,618 L222,623 Q222,660 175,660 Q122,660 122,619 L52,624 Q52,649 67,670 Q97,713 171,714 Q256,714 282,670 Q290,658 290,635 L290,470 Q290,447 302,426 M220,530 L220,560 Q200,554 174,548 Q139,541 133,538 Q112,528 112,510 Q112,481 152,481 Q156,481 159.5,481 Q163,481 175.5,483.5 Q188,486 196.5,490.5 Q205,495 212.5,505.5 Q220,516 220,530"/> 
            <glyph glyph-name="«" unicode="&#xAB;" horiz-adv-x="383" d=" M383,132 L240,244 L240,385 L383,499 L383,385 L297,314 L383,244 M201,133 L59,244 L59,385 L201,497 L201,385 L113,313 L201,244"/> 
            <glyph glyph-name="¬" unicode="&#xAC;" horiz-adv-x="635" d=" M635,16 L505,16 L505,258 L69,258 L69,367 L635,367"/> 
            <glyph glyph-name="®" unicode="&#xAE;" horiz-adv-x="770" d=" M770,360 Q770,205 668,101 Q566,-3 413,-3 Q265,-3 161.5,101 Q58,205 58,353 Q58,502 162,605.5 Q266,709 414,709 Q560,709 665,606.5 Q770,504 770,360 M730,347 Q730,486 639.5,579 Q549,672 413,672 Q282,672 190,578.5 Q98,485 98,352 Q98,219 190,126.5 Q282,34 413,34 Q543,34 636.5,126.5 Q730,219 730,347 M580,134 L478,134 L415,303 L357,303 L356,134 L263,134 L263,580 L410,580 Q485,580 518,560 Q546,543 562,510.5 Q578,478 578,439 Q578,396 560,368 Q542,340 502,319 M484,439 Q484,496 417,496 L356,496 L356,381 L414,381 Q484,381 484,439"/> 
            <glyph glyph-name="¯" unicode="&#xAF;" horiz-adv-x="306" d=" M306,586 L-35,586 L-35,676 L306,676"/> 
            <glyph glyph-name="°" unicode="&#xB0;" horiz-adv-x="349" d=" M349,582 Q349,512 298.5,461 Q248,410 177,410 Q106,410 55.5,461 Q5,512 5,582 Q5,654 55,704.5 Q105,755 177,755 Q249,755 299,704.5 Q349,654 349,582 M249,582 Q249,612 228,632.5 Q207,653 177,653 Q147,653 126,632.5 Q105,612 105,582 Q105,553 126.5,531.5 Q148,510 177,510 Q206,510 227.5,531.5 Q249,553 249,582"/> 
            <glyph glyph-name="±" unicode="&#xB1;" horiz-adv-x="631" d=" M631,365 L427,365 L427,162 L297,162 L297,365 L93,365 L93,472 L297,472 L297,671 L427,671 L427,472 L631,472 M631,0 L93,0 L93,107 L631,107"/> 
            <glyph glyph-name="²" unicode="&#xB2;" horiz-adv-x="338" d=" M338,233 L36,233 L36,299 Q53,311 78,329 Q176,406 212,464 Q236,502 236,541 Q236,574 219,588.5 Q202,603 182,603 Q167,603 156,597.5 Q145,592 139,585 Q133,578 129,564.5 Q125,551 124,543.5 Q123,536 122,520.5 Q121,505 121,502 L34,509 Q34,511 35.5,524 Q37,537 38,547.5 Q39,558 43.5,575 Q48,592 54,605 Q60,618 71.5,633 Q83,648 97.5,658 Q112,668 133.5,674.5 Q155,681 182,681 Q245,682 286.5,647 Q328,612 329,548 Q330,502 303,457 Q276,412 252,389.5 Q228,367 165,316 Q156,308 151,304 L338,304"/> 
            <glyph glyph-name="³" unicode="&#xB3;" horiz-adv-x="336" d=" M336,366 Q336,299 290.5,262 Q245,225 179,225 Q66,225 31,311 Q21,336 21,380 L108,380 Q112,328 136,310 Q152,299 176,298 Q206,297 225.5,315.5 Q245,334 247,365 Q248,388 238.5,402.5 Q229,417 213,422.5 Q197,428 188,429.5 Q179,431 170,431 L145,431 L145,502 L172,502 Q238,502 238,551 Q238,574 225,587 Q212,600 201.5,602.5 Q191,605 180,605 Q148,605 135,585.5 Q122,566 117,532 L32,551 Q37,587 56,616 Q98,681 185,681 Q269,682 309,622 Q327,594 327,560 Q327,508 284,481 Q277,476 255,469 Q272,463 282.5,457.5 Q293,452 307.5,441 Q322,430 329,411 Q336,392 336,366"/> 
            <glyph glyph-name="´" unicode="&#xB4;" horiz-adv-x="235" d=" M235,706 L127,573 L36,573 L86,706"/> 
            <glyph glyph-name="µ" unicode="&#xB5;" horiz-adv-x="574" d=" M574,-1 Q540,-10 508,-10 Q463,-10 437,12 Q425,21 419,31.5 Q413,42 404,69 Q385,26 359.5,8 Q334,-10 292,-10 Q229,-10 192,48 L195,-216 L75,-216 L75,499 L198,499 L198,268 Q198,162 218,132 Q243,94 292,94 Q338,94 364,133 Q390,172 390,243 L390,289 L390,499 L512,499 L512,151 Q512,116 519.5,102.5 Q527,89 546,89 Q554,89 574,97"/> 
            <glyph glyph-name="¶" unicode="&#xB6;" horiz-adv-x="537" d=" M537,636 L502,636 L502,-167 L428,-167 L428,636 L300,636 L300,-167 L226,-167 L226,311 Q199,316 182,323 Q130,343 100.5,391 Q71,439 71,502 Q71,595 130,651 Q157,676 193,690 Q234,706 304,706 L537,706"/> 
            <glyph glyph-name="·" unicode="&#xB7;" horiz-adv-x="176" d=" M176,217 L43,217 L43,363 L176,363"/> 
            <glyph glyph-name="¸" unicode="&#xB8;" horiz-adv-x="236" d=" M236,-110 Q236,-130 222,-148 Q190,-186 81,-186 Q54,-186 40,-185 L41,-154 Q42,-154 44,-154.5 Q46,-155 48,-155 Q50,-155 53,-155 Q73,-157 100,-151 L102,-150 Q104,-149 106,-148 Q108,-147 111,-145.5 Q114,-144 116,-141.5 Q118,-139 119.5,-136 Q121,-133 121,-129 Q120,-105 55,-105 Q47,-105 35,-107 L35,-92 L135,12 L180,12 L135,-46 Q169,-44 203,-58 Q236,-74 236,-110"/> 
            <glyph glyph-name="¹" unicode="&#xB9;" horiz-adv-x="257" d=" M257,233 L172,233 L172,490 Q172,493 172,501.5 Q172,510 172,512 Q172,514 170.5,519.5 Q169,525 166.5,526 Q164,527 159,529.5 Q154,532 146,533 Q138,534 127,534 L64,535 L64,594 L85,595 Q98,596 104.5,596.5 Q111,597 127.5,601.5 Q144,606 154,614 Q164,622 174,639 Q184,656 186,680 L257,680"/> 
            <glyph glyph-name="º" unicode="&#xBA;" horiz-adv-x="309" d=" M309,563 Q309,539 301,512 Q289,474 255,444.5 Q221,415 165,415 Q102,415 63,458.5 Q24,502 24,564 Q24,627 62.5,670 Q101,713 165,714 Q231,715 270.5,671.5 Q310,628 309,563 M238,567 Q238,599 222,625 Q206,651 171,652 Q143,653 120,631 Q97,609 97,565 Q97,553 101,533 Q115,478 167,478 Q195,478 216.5,500.5 Q238,523 238,567"/> 
            <glyph glyph-name="»" unicode="&#xBB;" horiz-adv-x="377" d=" M377,242 L235,131 L235,242 L322,315 L235,383 L235,495 L377,383 M195,242 L52,129 L52,242 L138,314 L52,383 L52,496 L195,383"/> 
            <glyph glyph-name="¼" unicode="&#xBC;" horiz-adv-x="855" d=" M855,99 L796,99 L796,0 L716,0 L716,101 L522,101 L522,164 L716,442 L799,442 L799,171 L855,171 M621,646 L307,-37 L238,-6 L553,678 M257,233 L172,233 L172,490 Q172,493 172,501.5 Q172,510 172,512 Q172,514 170.5,519.5 Q169,525 166.5,526 Q164,527 159,529.5 Q154,532 146,533 Q138,534 127,534 L64,535 L64,594 L85,595 Q98,596 104.5,596.5 Q111,597 127.5,601.5 Q144,606 154,614 Q164,622 174,639 Q184,656 186,680 L257,680 M721,341 L611,172 L719,172"/> 
            <glyph glyph-name="½" unicode="&#xBD;" horiz-adv-x="838" d=" M838,0 L536,0 L536,67 Q598,109 647.5,157 Q697,205 714,234 Q736,270 736,308 Q736,341 719,355.5 Q702,370 682,370 Q665,370 653.5,365 Q642,360 636,347 Q630,334 628.5,326.5 Q627,319 624,301 Q624,300 622.5,286 Q621,272 621,270 L535,276 Q541,447 683,449 Q725,449 755,435.5 Q785,422 800,399.5 Q815,377 822,356.5 Q829,336 829,316 Q830,255 794,206 Q758,157 650,71 L838,71 M612,646 L298,-37 L229,-6 L544,678 M257,233 L172,233 L172,490 Q172,493 172,501.5 Q172,510 172,512 Q172,514 170.5,519.5 Q169,525 166.5,526 Q164,527 159,529.5 Q154,532 146,533 Q138,534 127,534 L64,535 L64,594 L85,595 Q98,596 104.5,596.5 Q111,597 127.5,601.5 Q144,606 154,614 Q164,622 174,639 Q184,656 186,680 L257,680"/> 
            <glyph glyph-name="¾" unicode="&#xBE;" horiz-adv-x="855" d=" M855,99 L796,99 L796,0 L716,0 L716,101 L522,101 L522,164 L716,442 L799,442 L799,171 L855,171 M644,646 L331,-37 L262,-6 L577,678 M336,366 Q336,299 290.5,262 Q245,225 179,225 Q66,225 31,311 Q21,336 21,380 L108,380 Q112,328 136,310 Q152,299 176,298 Q206,297 225.5,315.5 Q245,334 247,365 Q248,388 238.5,402.5 Q229,417 213,422.5 Q197,428 188,429.5 Q179,431 170,431 L145,431 L145,502 L172,502 Q238,502 238,551 Q238,574 225,587 Q212,600 201.5,602.5 Q191,605 180,605 Q148,605 135,585.5 Q122,566 117,532 L32,551 Q37,587 56,616 Q98,681 185,681 Q269,682 309,622 Q327,594 327,560 Q327,508 284,481 Q277,476 255,469 Q272,463 282.5,457.5 Q293,452 307.5,441 Q322,430 329,411 Q336,392 336,366 M721,341 L611,172 L719,172"/> 
            <glyph glyph-name="¿" unicode="&#xBF;" horiz-adv-x="508" d=" M328,569 L195,569 L195,706 L328,706 M508,219 Q504,154 482,111 Q459,62 406,25 Q353,-12 264,-12 Q218,-12 176,1 Q108,22 67.5,74 Q27,126 27,197 Q27,292 107,355 Q114,360 135,374.5 Q156,389 167,398 Q187,414 196.5,435 Q206,456 206,496 Q206,510 203,525 L321,525 Q322,453 315,414 Q306,361 279,333 Q267,321 242.5,305.5 Q218,290 210,283 Q164,245 164,198 Q164,180 174,157 Q203,102 272,102 Q327,102 357,140 Q384,175 387,234"/> 
            <glyph glyph-name="À" unicode="&#xC0;" horiz-adv-x="636" d=" M381,774 L292,774 L185,895 L327,895 M636,0 L495,0 L454,138 L189,138 L148,0 L6,0 L245,706 L395,706 M419,254 L322,579 L224,254"/> 
            <glyph glyph-name="Á" unicode="&#xC1;" horiz-adv-x="636" d=" M464,895 L356,775 L267,775 L321,895 M636,0 L495,0 L454,138 L189,138 L148,0 L6,0 L245,706 L395,706 M419,254 L322,579 L224,254"/> 
            <glyph glyph-name="Â" unicode="&#xC2;" horiz-adv-x="636" d=" M487,773 L366,773 L324,829 L282,773 L164,773 L265,895 L382,895 M636,0 L495,0 L454,138 L189,138 L148,0 L6,0 L245,706 L395,706 M419,254 L322,579 L224,254"/> 
            <glyph glyph-name="Ã" unicode="&#xC3;" horiz-adv-x="636" d=" M507,894 Q499,814 457,784 Q439,768 406,768 Q377,768 322,789 Q277,807 262,806 Q252,806 246,803 Q230,795 226,769 L148,769 Q148,770 149,778 Q150,786 152,796.5 Q154,807 156,814 Q184,894 253,894 Q294,894 334,874 Q377,857 393,857 Q403,857 412,863 Q415,865 417.5,867.5 Q420,870 421.5,872 Q423,874 424.5,877 Q426,880 426.5,881.5 Q427,883 428,888 Q429,893 430,895 M636,0 L495,0 L454,138 L189,138 L148,0 L6,0 L245,706 L395,706 M419,254 L322,579 L224,254"/> 
            <glyph glyph-name="Ä" unicode="&#xC4;" horiz-adv-x="636" d=" M484,772 L371,772 L371,895 L484,895 M283,772 L171,772 L171,895 L283,895 M636,0 L495,0 L454,138 L189,138 L148,0 L6,0 L245,706 L395,706 M419,254 L322,579 L224,254"/> 
            <glyph glyph-name="Å" unicode="&#xC5;" horiz-adv-x="636" d=" M428,903 Q428,819 398.5,789.5 Q369,760 326,760 Q284,760 254.5,789.5 Q225,819 225,862 Q225,904 254.5,933.5 Q284,963 327,963 Q369,963 428,903 M636,0 L495,0 L454,138 L189,138 L148,0 L6,0 L245,706 L395,706 M368,862 Q368,879 355.5,891 Q343,903 326,903 Q309,903 296.5,890.5 Q284,878 284,861 Q285,844 297.5,831.5 Q310,819 327,819 Q344,820 356,832 Q368,844 368,862 M419,254 L322,579 L224,254"/> 
            <glyph glyph-name="Æ" unicode="&#xC6;" horiz-adv-x="1018" d=" M1018,0 L502,0 L502,165 L254,165 L160,0 L6,0 L424,706 L1003,706 L1003,588 L635,588 L635,420 L955,420 L955,304 L635,304 L635,120 L1018,120 M502,284 L502,607 L321,284"/> 
            <glyph glyph-name="Ç" unicode="&#xC7;" horiz-adv-x="672" d=" M672,197 L668,187 Q657,159 642.5,134.5 Q628,110 614,92 Q600,74 582,59 Q564,44 550,34 Q536,24 516.5,15.5 Q497,7 485,2.5 Q473,-2 453.5,-6 Q434,-10 426.5,-11 Q419,-12 402,-14 Q385,-16 383,-16 L359,-46 L367,-46 Q386,-46 405,-50 Q424,-54 442,-69 Q460,-84 461,-107 Q461,-130 447,-147 Q417,-186 307,-186 L301,-186 Q273,-186 265,-185 L265,-154 Q268,-155 281,-155 Q345,-155 345,-130 Q345,-105 279,-105 Q267,-105 259,-107 L259,-92 L334,-15 Q236,2 197,26 Q125,68 80,155.5 Q35,243 37,365 Q37,440 60,506 Q99,615 185,670 Q271,725 374,724 Q533,723 611,610 Q637,573 659,506 L528,472 Q526,491 517,511.5 Q508,532 491.5,553.5 Q475,575 444,589 Q413,603 374,603 Q297,603 239,542 Q181,481 180,360 Q179,236 236,172 Q293,108 374,107 Q414,107 447,123 Q480,139 500,164 Q520,189 531,209.5 Q542,230 547,249"/> 
            <glyph glyph-name="È" unicode="&#xC8;" horiz-adv-x="605" d=" M371,774 L281,774 L174,895 L316,895 M605,0 L78,0 L78,706 L580,706 L580,588 L208,588 L208,422 L549,422 L549,308 L208,308 L208,119 L605,119"/> 
            <glyph glyph-name="É" unicode="&#xC9;" horiz-adv-x="605" d=" M454,895 L346,775 L257,775 L310,895 M605,0 L78,0 L78,706 L580,706 L580,588 L208,588 L208,422 L549,422 L549,308 L208,308 L208,119 L605,119"/> 
            <glyph glyph-name="Ê" unicode="&#xCA;" horiz-adv-x="605" d=" M477,773 L356,773 L313,829 L271,773 L154,773 L255,895 L372,895 M605,0 L78,0 L78,706 L580,706 L580,588 L208,588 L208,422 L549,422 L549,308 L208,308 L208,119 L605,119"/> 
            <glyph glyph-name="Ë" unicode="&#xCB;" horiz-adv-x="605" d=" M471,772 L357,772 L357,895 L471,895 M269,772 L157,772 L157,895 L269,895 M605,0 L78,0 L78,706 L580,706 L580,588 L208,588 L208,422 L549,422 L549,308 L208,308 L208,119 L605,119"/> 
            <glyph glyph-name="Ì" unicode="&#xCC;" horiz-adv-x="210" d=" M204,774 L115,774 L8,895 L150,895 M210,0 L80,0 L80,706 L210,706"/> 
            <glyph glyph-name="Í" unicode="&#xCD;" horiz-adv-x="287" d=" M287,895 L179,775 L90,775 L144,895 M210,0 L80,0 L80,706 L210,706"/> 
            <glyph glyph-name="Î" unicode="&#xCE;" horiz-adv-x="310" d=" M310,773 L189,773 L147,829 L105,773 L-13,773 L88,895 L205,895 M210,0 L80,0 L80,706 L210,706"/> 
            <glyph glyph-name="Ï" unicode="&#xCF;" horiz-adv-x="304" d=" M304,772 L190,772 L190,895 L304,895 M102,772 L-10,772 L-10,895 L102,895 M210,0 L80,0 L80,706 L210,706"/> 
            <glyph glyph-name="Ð" unicode="&#xD0;" horiz-adv-x="669" d=" M669,346 Q669,302 660.5,258 Q652,214 633,166.5 Q614,119 574,80.5 Q534,42 479,22 Q419,0 308,0 L71,0 L71,326 L3,326 L3,416 L71,416 L71,706 L303,706 Q403,706 450,692 Q545,663 607.5,575 Q670,487 669,346 M529,347 Q529,534 398,576 Q361,587 302,587 L203,587 L203,416 L357,416 L357,326 L203,326 L203,119 L259,119 Q367,119 406,130 Q469,147 499,199 Q529,251 529,347"/> 
            <glyph glyph-name="Ñ" unicode="&#xD1;" horiz-adv-x="628" d=" M539,894 Q531,815 488,784 Q470,768 437,768 Q408,768 353,789 Q308,807 293,806 Q283,806 277,803 Q264,796 257,769 L179,769 Q179,770 180.5,778 Q182,786 184,796.5 Q186,807 188,814 Q216,894 284,894 Q319,894 366,874 Q408,857 424,857 Q434,857 443,863 Q446,865 448.5,867.5 Q451,870 452.5,872 Q454,874 455.5,877 Q457,880 457.5,881.5 Q458,883 459,888 Q460,893 461,895 M628,0 L512,0 L203,495 L211,0 L82,0 L82,706 L201,706 L514,208 L498,706 L628,706"/> 
            <glyph glyph-name="Ò" unicode="&#xD2;" horiz-adv-x="725" d=" M443,774 L354,774 L247,895 L389,895 M725,353 Q725,189 627,83 Q574,26 507,2 Q452,-18 384,-18 Q237,-18 142,91 Q48,198 48,352 Q48,426 69,489 Q104,596 189.5,660 Q275,724 387,724 Q540,724 637,612 Q726,511 725,353 M592,339 Q594,440 550,510 Q493,603 386,603 Q338,603 296,582 Q250,557 217,502 Q184,447 184,357 Q184,201 284,135 Q330,105 388,105 Q432,105 469,122 Q518,145 554,197 Q590,249 592,339"/> 
            <glyph glyph-name="Ó" unicode="&#xD3;" horiz-adv-x="725" d=" M526,895 L419,775 L330,775 L383,895 M725,353 Q725,189 627,83 Q574,26 507,2 Q452,-18 384,-18 Q237,-18 142,91 Q48,198 48,352 Q48,426 69,489 Q104,596 189.5,660 Q275,724 387,724 Q540,724 637,612 Q726,511 725,353 M592,339 Q594,440 550,510 Q493,603 386,603 Q338,603 296,582 Q250,557 217,502 Q184,447 184,357 Q184,201 284,135 Q330,105 388,105 Q432,105 469,122 Q518,145 554,197 Q590,249 592,339"/> 
            <glyph glyph-name="Ô" unicode="&#xD4;" horiz-adv-x="725" d=" M550,773 L429,773 L386,829 L344,773 L227,773 L327,895 L445,895 M725,353 Q725,189 627,83 Q574,26 507,2 Q452,-18 384,-18 Q237,-18 142,91 Q48,198 48,352 Q48,426 69,489 Q104,596 189.5,660 Q275,724 387,724 Q540,724 637,612 Q726,511 725,353 M592,339 Q594,440 550,510 Q493,603 386,603 Q338,603 296,582 Q250,557 217,502 Q184,447 184,357 Q184,201 284,135 Q330,105 388,105 Q432,105 469,122 Q518,145 554,197 Q590,249 592,339"/> 
            <glyph glyph-name="Õ" unicode="&#xD5;" horiz-adv-x="725" d=" M570,894 Q562,814 520,784 Q499,768 468,768 Q439,768 384,789 Q340,807 325,806 Q314,806 308,803 Q295,795 288,769 L211,769 Q211,788 219,814 Q222,824 227,834.5 Q232,845 243,860 Q254,875 273,884.5 Q292,894 315,894 Q350,894 397,874 Q440,857 455,857 Q465,857 474,863 Q477,865 479.5,867.5 Q482,870 483.5,872 Q485,874 486.5,877 Q488,880 488.5,881.5 Q489,883 490,888 Q491,893 492,895 M725,353 Q725,189 627,83 Q574,26 507,2 Q452,-18 384,-18 Q237,-18 142,91 Q48,198 48,352 Q48,426 69,489 Q104,596 189.5,660 Q275,724 387,724 Q540,724 637,612 Q726,511 725,353 M592,339 Q594,440 550,510 Q493,603 386,603 Q338,603 296,582 Q250,557 217,502 Q184,447 184,357 Q184,201 284,135 Q330,105 388,105 Q432,105 469,122 Q518,145 554,197 Q590,249 592,339"/> 
            <glyph glyph-name="Ö" unicode="&#xD6;" horiz-adv-x="725" d=" M544,772 L430,772 L430,895 L544,895 M343,772 L230,772 L230,895 L343,895 M725,353 Q725,189 627,83 Q574,26 507,2 Q452,-18 384,-18 Q237,-18 142,91 Q48,198 48,352 Q48,426 69,489 Q104,596 189.5,660 Q275,724 387,724 Q540,724 637,612 Q726,511 725,353 M592,339 Q594,440 550,510 Q493,603 386,603 Q338,603 296,582 Q250,557 217,502 Q184,447 184,357 Q184,201 284,135 Q330,105 388,105 Q432,105 469,122 Q518,145 554,197 Q590,249 592,339"/> 
            <glyph glyph-name="×" unicode="&#xD7;" horiz-adv-x="604" d=" M604,174 L513,81 L358,231 L216,84 L140,158 L282,305 L129,454 L219,547 L373,398 L515,545 L591,471 L449,324"/> 
            <glyph glyph-name="Ø" unicode="&#xD8;" horiz-adv-x="740" d=" M740,616 L674,557 Q726,461 726,352 Q726,293 712,240 Q690,157 636,92.5 Q582,28 504,1 Q452,-18 384,-18 Q320,-18 268,2 Q216,22 194,40.5 Q172,59 144,89 L80,33 L23,99 L93,161 Q86,172 74,197 Q46,262 46,350 Q46,434 72.5,502.5 Q99,571 129.5,605.5 Q160,640 197,666 Q278,724 390,724 Q523,724 619,628 L681,683 M525,545 Q464,606 389,605 Q340,605 295,580 Q239,549 208.5,489.5 Q178,430 178,364 Q178,322 191,276 Q194,267 200,255 M594,346 Q594,413 571,466 L244,177 Q291,103 383,103 Q432,103 473,124 Q519,147 556.5,202.5 Q594,258 594,346"/> 
            <glyph glyph-name="Ù" unicode="&#xD9;" horiz-adv-x="650" d=" M423,774 L333,774 L227,895 L368,895 M649,299 Q649,293 649,283 Q649,181 637,144 Q616,80 547,31 Q478,-18 360,-18 Q212,-18 136,66 Q105,97 91,142 Q80,178 80,286 L80,706 L213,706 L213,272 Q213,215 220,194 Q246,110 365,110 Q479,110 508,190 Q517,216 517,279 L517,706 L649,706"/> 
            <glyph glyph-name="Ú" unicode="&#xDA;" horiz-adv-x="650" d=" M506,895 L398,775 L309,775 L362,895 M649,299 Q649,293 649,283 Q649,181 637,144 Q616,80 547,31 Q478,-18 360,-18 Q212,-18 136,66 Q105,97 91,142 Q80,178 80,286 L80,706 L213,706 L213,272 Q213,215 220,194 Q246,110 365,110 Q479,110 508,190 Q517,216 517,279 L517,706 L649,706"/> 
            <glyph glyph-name="Û" unicode="&#xDB;" horiz-adv-x="650" d=" M529,773 L408,773 L366,829 L323,773 L206,773 L307,895 L424,895 M649,299 Q649,293 649,283 Q649,181 637,144 Q616,80 547,31 Q478,-18 360,-18 Q212,-18 136,66 Q105,97 91,142 Q80,178 80,286 L80,706 L213,706 L213,272 Q213,215 220,194 Q246,110 365,110 Q479,110 508,190 Q517,216 517,279 L517,706 L649,706"/> 
            <glyph glyph-name="Ü" unicode="&#xDC;" horiz-adv-x="650" d=" M522,772 L408,772 L408,895 L522,895 M321,772 L208,772 L208,895 L321,895 M649,299 Q649,293 649,283 Q649,181 637,144 Q616,80 547,31 Q478,-18 360,-18 Q212,-18 136,66 Q105,97 91,142 Q80,178 80,286 L80,706 L213,706 L213,272 Q213,215 220,194 Q246,110 365,110 Q479,110 508,190 Q517,216 517,279 L517,706 L649,706"/> 
            <glyph glyph-name="Ý" unicode="&#xDD;" horiz-adv-x="615" d=" M454,895 L346,775 L257,775 L310,895 M615,706 L377,279 L377,0 L246,0 L246,279 L10,706 L160,706 L313,414 L467,706"/> 
            <glyph glyph-name="Þ" unicode="&#xDE;" horiz-adv-x="607" d=" M607,375 Q607,291 568,234 Q540,193 495.5,171 Q451,149 418,144.5 Q385,140 341,140 L214,140 L214,0 L82,0 L82,706 L214,706 L214,606 L320,606 Q370,606 401,603 Q432,600 479,579.5 Q526,559 558,519 Q607,460 607,375 M471,377 Q471,417 454,442 Q434,473 403,483 Q372,493 315,493 L214,493 L214,248 L309,248 Q373,248 407,262 Q441,276 459,315 Q471,341 471,377"/> 
            <glyph glyph-name="ß" unicode="&#xDF;" horiz-adv-x="527" d=" M527,219 Q527,119 475,55.5 Q423,-8 325,-8 Q267,-8 230,8 L230,124 Q232,123 235.5,120.5 Q239,118 241,117 Q271,102 298,102 Q339,102 371,137 Q401,172 401,228 Q401,295 361,331 Q323,366 247,366 Q235,366 230,365 L230,455 Q310,448 345,484 Q365,506 365,537 Q365,560 354,576 Q332,611 280,611 Q251,611 228,598 Q221,594 215.5,589 Q210,584 206,580 Q202,576 198.5,568.5 Q195,561 193,556.5 Q191,552 189.5,543 Q188,534 187.5,530 Q187,526 186.5,516 Q186,506 186,503 Q186,500 186,488.5 Q186,477 186,475 L186,0 L65,0 L65,494 Q65,564 73,590 Q91,653 149.5,685.5 Q208,718 278,718 Q323,718 359,707 Q422,688 462.5,645 Q503,602 502,541 Q502,477 455,438 Q436,421 412,413 Q451,394 465,382 Q527,327 527,219"/> 
            <glyph glyph-name="à" unicode="&#xE0;" horiz-adv-x="500" d=" M348,573 L258,573 L148,706 L296,706 M500,0 L358,0 L355,39 Q333,21 309,11 Q258,-12 208,-12 Q96,-12 48,65 Q25,102 26,145 Q26,224 94,270 Q132,296 220,313 Q317,333 358,347 Q358,374 351,388 Q333,422 272,422 Q208,422 184,391 Q171,375 171,347 L49,354 Q52,428 103,469 Q158,515 268,515 Q374,515 429,476 Q454,458 465,436 Q478,410 478,347 L478,81 Q478,52 481.5,37.5 Q485,23 500,0 M358,194 L358,249 Q321,230 263,221 Q257,220 243,218 Q229,216 221,214.5 Q213,213 202,209 Q191,205 182,200 Q153,181 153,150 Q153,125 173,108 Q193,91 235,91 Q280,91 310.5,109 Q341,127 351,148 Q358,162 358,194"/> 
            <glyph glyph-name="á" unicode="&#xE1;" horiz-adv-x="500" d=" M417,706 L309,573 L219,573 L269,706 M500,0 L358,0 L355,39 Q333,21 309,11 Q258,-12 208,-12 Q96,-12 48,65 Q25,102 26,145 Q26,224 94,270 Q132,296 220,313 Q317,333 358,347 Q358,374 351,388 Q333,422 272,422 Q208,422 184,391 Q171,375 171,347 L49,354 Q52,428 103,469 Q158,515 268,515 Q374,515 429,476 Q454,458 465,436 Q478,410 478,347 L478,81 Q478,52 481.5,37.5 Q485,23 500,0 M358,194 L358,249 Q321,230 263,221 Q257,220 243,218 Q229,216 221,214.5 Q213,213 202,209 Q191,205 182,200 Q153,181 153,150 Q153,125 173,108 Q193,91 235,91 Q280,91 310.5,109 Q341,127 351,148 Q358,162 358,194"/> 
            <glyph glyph-name="â" unicode="&#xE2;" horiz-adv-x="500" d=" M441,572 L319,572 L271,639 L222,572 L101,572 L212,706 L330,706 M500,0 L358,0 L355,39 Q333,21 309,11 Q258,-12 208,-12 Q96,-12 48,65 Q25,102 26,145 Q26,224 94,270 Q132,296 220,313 Q317,333 358,347 Q358,374 351,388 Q333,422 272,422 Q208,422 184,391 Q171,375 171,347 L49,354 Q52,428 103,469 Q158,515 268,515 Q374,515 429,476 Q454,458 465,436 Q478,410 478,347 L478,81 Q478,52 481.5,37.5 Q485,23 500,0 M358,194 L358,249 Q321,230 263,221 Q257,220 243,218 Q229,216 221,214.5 Q213,213 202,209 Q191,205 182,200 Q153,181 153,150 Q153,125 173,108 Q193,91 235,91 Q280,91 310.5,109 Q341,127 351,148 Q358,162 358,194"/> 
            <glyph glyph-name="ã" unicode="&#xE3;" horiz-adv-x="500" d=" M455,706 Q446,658 445,655 Q442,646 437,636.5 Q432,627 421.5,613.5 Q411,600 393.5,591.5 Q376,583 354,583 Q327,583 270,605 Q228,622 210,622 Q202,622 194,618 Q178,609 174,584 L96,584 Q96,603 104,630 Q108,644 116,659 Q124,674 147.5,692 Q171,710 201,710 Q215,710 282,690 Q319,673 341,673 Q364,673 372,690 Q374,694 375,698 Q376,702 378,706 M500,0 L358,0 L355,39 Q333,21 309,11 Q258,-12 208,-12 Q96,-12 48,65 Q25,102 26,145 Q26,224 94,270 Q132,296 220,313 Q317,333 358,347 Q358,374 351,388 Q333,422 272,422 Q208,422 184,391 Q171,375 171,347 L49,354 Q52,428 103,469 Q158,515 268,515 Q374,515 429,476 Q454,458 465,436 Q478,410 478,347 L478,81 Q478,52 481.5,37.5 Q485,23 500,0 M358,194 L358,249 Q321,230 263,221 Q257,220 243,218 Q229,216 221,214.5 Q213,213 202,209 Q191,205 182,200 Q153,181 153,150 Q153,125 173,108 Q193,91 235,91 Q280,91 310.5,109 Q341,127 351,148 Q358,162 358,194"/> 
            <glyph glyph-name="ä" unicode="&#xE4;" horiz-adv-x="500" d=" M422,587 L308,587 L308,706 L422,706 M220,587 L108,587 L108,706 L220,706 M500,0 L358,0 L355,39 Q333,21 309,11 Q258,-12 208,-12 Q96,-12 48,65 Q25,102 26,145 Q26,224 94,270 Q132,296 220,313 Q317,333 358,347 Q358,374 351,388 Q333,422 272,422 Q208,422 184,391 Q171,375 171,347 L49,354 Q52,428 103,469 Q158,515 268,515 Q374,515 429,476 Q454,458 465,436 Q478,410 478,347 L478,81 Q478,52 481.5,37.5 Q485,23 500,0 M358,194 L358,249 Q321,230 263,221 Q257,220 243,218 Q229,216 221,214.5 Q213,213 202,209 Q191,205 182,200 Q153,181 153,150 Q153,125 173,108 Q193,91 235,91 Q280,91 310.5,109 Q341,127 351,148 Q358,162 358,194"/> 
            <glyph glyph-name="å" unicode="&#xE5;" horiz-adv-x="500" d=" M366,662 Q366,620 336,590 Q306,560 265,560 Q223,560 193,589.5 Q163,619 163,662 Q163,704 193,733.5 Q223,763 265,763 Q291,763 315,750 Q366,720 366,662 M500,0 L358,0 L355,39 Q333,21 309,11 Q258,-12 208,-12 Q96,-12 48,65 Q25,102 26,145 Q26,224 94,270 Q132,296 220,313 Q317,333 358,347 Q358,374 351,388 Q333,422 272,422 Q208,422 184,391 Q171,375 171,347 L49,354 Q52,428 103,469 Q158,515 268,515 Q374,515 429,476 Q454,458 465,436 Q478,410 478,347 L478,81 Q478,52 481.5,37.5 Q485,23 500,0 M306,661 Q306,679 293.5,691 Q281,703 264,703 Q253,703 243,698 Q222,686 222,661 Q222,644 234.5,631.5 Q247,619 264,619 Q282,619 294,631.5 Q306,644 306,661 M358,194 L358,249 Q321,230 263,221 Q257,220 243,218 Q229,216 221,214.5 Q213,213 202,209 Q191,205 182,200 Q153,181 153,150 Q153,125 173,108 Q193,91 235,91 Q280,91 310.5,109 Q341,127 351,148 Q358,162 358,194"/> 
            <glyph glyph-name="æ" unicode="&#xE6;" horiz-adv-x="846" d=" M846,227 L481,227 Q486,171 513,138 Q547,92 615,92 Q666,92 703,124 Q724,142 736,160 L831,101 Q813,79 798.5,65 Q784,51 754.5,29.5 Q725,8 685,-3.5 Q645,-15 597,-15 Q524,-15 461,23 Q439,36 411,59 Q398,47 378,34 Q311,-15 216,-15 Q95,-15 51,59 Q29,96 29,137 Q29,195 70,236 Q116,282 252,310 Q326,324 364,341 Q361,388 337,408 Q312,428 270,428 Q229,428 202,411 Q189,402 181,389 Q170,372 170,347 L54,347 Q60,412 96,453 Q148,515 260,515 Q345,515 391,486 Q407,476 434,450 Q455,469 469.5,479.5 Q484,490 519.5,502.5 Q555,515 597,515 Q685,515 745,470 Q840,399 846,227 M704,313 Q694,360 665.5,389 Q637,418 591,418 Q543,418 512,385 Q485,355 482,313 M364,240 Q340,230 321,225 Q302,220 270.5,214 Q239,208 227,205 Q156,189 156,139 Q156,113 176.5,93 Q197,73 241,73 Q308,73 342,124 Q361,152 364,240"/> 
            <glyph glyph-name="ç" unicode="&#xE7;" horiz-adv-x="497" d=" M497,141 Q482,98 456,69 Q432,40 402.5,22.5 Q373,5 352.5,-1 Q332,-7 296,-13 L270,-46 L277,-46 Q296,-46 315,-50 Q334,-54 352,-69 Q370,-84 371,-107 Q372,-130 354,-151 Q322,-186 217,-186 L211,-186 Q183,-186 175,-185 L175,-154 Q178,-155 191,-155 Q255,-155 255,-130 Q255,-105 190,-105 Q177,-105 169,-107 L169,-92 L246,-13 Q179,0 150,16 Q83,53 53.5,118.5 Q24,184 24,250 Q24,359 94,437 Q164,515 276,515 Q361,515 414.5,472 Q468,429 492,373 L385,323 Q376,350 360,369 Q344,388 326,395.5 Q308,403 296,405.5 Q284,408 274,408 Q209,409 178.5,361 Q148,313 148,253 Q148,226 155,200 Q162,174 176,150 Q190,126 215.5,111.5 Q241,97 275,97 Q303,97 324.5,106 Q346,115 360.5,135 Q375,155 380,164 Q385,173 395,195"/> 
            <glyph glyph-name="è" unicode="&#xE8;" horiz-adv-x="535" d=" M337,573 L248,573 L138,706 L286,706 M535,112 Q514,83 489,60 Q408,-15 291,-15 Q184,-15 112,52 Q34,126 34,253 Q34,321 56,373 Q66,396 81.5,417 Q97,438 123.5,462 Q150,486 192,500.5 Q234,515 285,515 Q416,515 482,419 Q527,350 531,226 L161,226 Q167,181 193,150 Q232,102 302,102 Q373,102 416,148 Q422,155 433,171 M399,314 Q396,338 389,355 Q360,419 287,419 Q260,419 237,410 Q178,386 165,314"/> 
            <glyph glyph-name="é" unicode="&#xE9;" horiz-adv-x="535" d=" M428,706 L320,573 L229,573 L279,706 M535,112 Q514,83 489,60 Q408,-15 291,-15 Q184,-15 112,52 Q34,126 34,253 Q34,321 56,373 Q66,396 81.5,417 Q97,438 123.5,462 Q150,486 192,500.5 Q234,515 285,515 Q416,515 482,419 Q527,350 531,226 L161,226 Q167,181 193,150 Q232,102 302,102 Q373,102 416,148 Q422,155 433,171 M399,314 Q396,338 389,355 Q360,419 287,419 Q260,419 237,410 Q178,386 165,314"/> 
            <glyph glyph-name="ê" unicode="&#xEA;" horiz-adv-x="535" d=" M452,572 L329,572 L282,639 L232,572 L111,572 L222,706 L340,706 M535,112 Q514,83 489,60 Q408,-15 291,-15 Q184,-15 112,52 Q34,126 34,253 Q34,321 56,373 Q66,396 81.5,417 Q97,438 123.5,462 Q150,486 192,500.5 Q234,515 285,515 Q416,515 482,419 Q527,350 531,226 L161,226 Q167,181 193,150 Q232,102 302,102 Q373,102 416,148 Q422,155 433,171 M399,314 Q396,338 389,355 Q360,419 287,419 Q260,419 237,410 Q178,386 165,314"/> 
            <glyph glyph-name="ë" unicode="&#xEB;" horiz-adv-x="535" d=" M439,587 L325,587 L325,706 L439,706 M238,587 L125,587 L125,706 L238,706 M535,112 Q514,83 489,60 Q408,-15 291,-15 Q184,-15 112,52 Q34,126 34,253 Q34,321 56,373 Q66,396 81.5,417 Q97,438 123.5,462 Q150,486 192,500.5 Q234,515 285,515 Q416,515 482,419 Q527,350 531,226 L161,226 Q167,181 193,150 Q232,102 302,102 Q373,102 416,148 Q422,155 433,171 M399,314 Q396,338 389,355 Q360,419 287,419 Q260,419 237,410 Q178,386 165,314"/> 
            <glyph glyph-name="ì" unicode="&#xEC;" horiz-adv-x="184" d=" M181,573 L92,573 L-19,706 L129,706 M184,0 L65,0 L65,500 L184,500"/> 
            <glyph glyph-name="í" unicode="&#xED;" horiz-adv-x="271" d=" M271,706 L163,573 L73,573 L123,706 M184,0 L65,0 L65,500 L184,500"/> 
            <glyph glyph-name="î" unicode="&#xEE;" horiz-adv-x="295" d=" M295,572 L173,572 L126,639 L76,572 L-45,572 L66,706 L184,706 M184,0 L65,0 L65,500 L184,500"/> 
            <glyph glyph-name="ï" unicode="&#xEF;" horiz-adv-x="283" d=" M283,587 L169,587 L169,706 L283,706 M81,587 L-31,587 L-31,706 L81,706 M184,0 L65,0 L65,500 L184,500"/> 
            <glyph glyph-name="ð" unicode="&#xF0;" horiz-adv-x="550" d=" M550,282 Q550,145 481,64 Q411,-16 293,-15 Q180,-15 110,57 Q72,95 54,145 Q36,193 35,249 Q34,318 59,373 Q83,426 137.5,471 Q192,516 275,516 Q334,516 377,478 Q365,528 327,578 L164,534 L145,587 L288,626 Q279,634 264,649 Q249,664 240,673 L352,721 Q362,712 371,702 Q380,692 391,679.5 Q402,667 409,659 L501,684 L521,631 L445,610 Q478,557 495,521 Q550,408 550,282 M424,254 Q422,292 409,325 Q375,403 293,407 Q228,408 193.5,362 Q159,316 160,253 Q161,190 195.5,143 Q230,96 294,95 Q360,94 393,142.5 Q426,191 424,254"/> 
            <glyph glyph-name="ñ" unicode="&#xF1;" horiz-adv-x="500" d=" M466,706 Q465,701 461.5,683 Q458,665 455,655 Q428,583 364,583 Q337,583 280,605 Q238,622 220,622 Q212,622 204,618 Q190,611 184,584 L106,584 Q106,585 107,593.5 Q108,602 110,612 Q112,622 115,630 Q118,640 123,650 Q128,660 139,675.5 Q150,691 169,700.5 Q188,710 211,710 Q241,710 292,690 Q329,673 351,673 Q375,673 383,690 Q383,691 388,706 M500,0 L382,0 L382,255 Q382,313 377,332 Q361,398 294,398 Q258,398 231,375 Q204,353 194,318 Q184,283 184,217 L184,0 L63,0 L63,500 L184,500 L184,441 Q192,453 206,467 Q257,515 338,515 Q387,515 421,496 Q455,477 471,454 Q476,447 480.5,439 Q485,431 488,421 Q491,411 493,404 Q495,397 496.5,384.5 Q498,372 498.5,367 Q499,362 499.5,347.5 Q500,333 500,329.5 Q500,326 500,310.5 Q500,295 500,294"/> 
            <glyph glyph-name="ò" unicode="&#xF2;" horiz-adv-x="549" d=" M348,573 L258,573 L148,706 L296,706 M549,252 Q549,189 529,140 Q520,117 504,93.5 Q488,70 461,44 Q434,18 390.5,1.5 Q347,-15 295,-15 Q233,-15 182,8 Q159,18 136.5,35.5 Q114,53 89.5,81.5 Q65,110 50,154.5 Q35,199 35,252 Q35,307 57,364 Q67,387 82.5,409.5 Q98,432 125,457.5 Q152,483 195.5,499 Q239,515 291,515 Q350,515 401,492 Q425,482 447.5,465 Q470,448 494.5,420.5 Q519,393 534,349 Q549,305 549,252 M424,254 Q422,317 386.5,362 Q351,407 289,407 Q251,407 221,388 Q160,348 160,255 Q160,216 170,187 Q176,170 187.5,152 Q199,134 228.5,114.5 Q258,95 295,95 Q359,95 392.5,142 Q426,189 424,254"/> 
            <glyph glyph-name="ó" unicode="&#xF3;" horiz-adv-x="549" d=" M438,706 L330,573 L240,573 L290,706 M549,252 Q549,189 529,140 Q520,117 504,93.5 Q488,70 461,44 Q434,18 390.5,1.5 Q347,-15 295,-15 Q233,-15 182,8 Q159,18 136.5,35.5 Q114,53 89.5,81.5 Q65,110 50,154.5 Q35,199 35,252 Q35,307 57,364 Q67,387 82.5,409.5 Q98,432 125,457.5 Q152,483 195.5,499 Q239,515 291,515 Q350,515 401,492 Q425,482 447.5,465 Q470,448 494.5,420.5 Q519,393 534,349 Q549,305 549,252 M424,254 Q422,317 386.5,362 Q351,407 289,407 Q251,407 221,388 Q160,348 160,255 Q160,216 170,187 Q176,170 187.5,152 Q199,134 228.5,114.5 Q258,95 295,95 Q359,95 392.5,142 Q426,189 424,254"/> 
            <glyph glyph-name="ô" unicode="&#xF4;" horiz-adv-x="549" d=" M462,572 L340,572 L292,639 L243,572 L122,572 L233,706 L351,706 M549,252 Q549,189 529,140 Q520,117 504,93.5 Q488,70 461,44 Q434,18 390.5,1.5 Q347,-15 295,-15 Q233,-15 182,8 Q159,18 136.5,35.5 Q114,53 89.5,81.5 Q65,110 50,154.5 Q35,199 35,252 Q35,307 57,364 Q67,387 82.5,409.5 Q98,432 125,457.5 Q152,483 195.5,499 Q239,515 291,515 Q350,515 401,492 Q425,482 447.5,465 Q470,448 494.5,420.5 Q519,393 534,349 Q549,305 549,252 M424,254 Q422,317 386.5,362 Q351,407 289,407 Q251,407 221,388 Q160,348 160,255 Q160,216 170,187 Q176,170 187.5,152 Q199,134 228.5,114.5 Q258,95 295,95 Q359,95 392.5,142 Q426,189 424,254"/> 
            <glyph glyph-name="õ" unicode="&#xF5;" horiz-adv-x="549" d=" M476,706 Q468,664 465,655 Q462,646 457,636.5 Q452,627 442,613.5 Q432,600 414.5,591.5 Q397,583 375,583 Q346,583 291,605 Q249,622 231,622 Q223,622 215,618 Q199,609 195,584 L117,584 Q117,603 125,630 Q129,644 137,659 Q145,674 168.5,692 Q192,710 222,710 Q236,710 303,690 Q340,673 362,673 Q384,673 393,690 Q395,694 396,698 Q397,702 399,706 M549,252 Q549,189 529,140 Q520,117 504,93.5 Q488,70 461,44 Q434,18 390.5,1.5 Q347,-15 295,-15 Q233,-15 182,8 Q159,18 136.5,35.5 Q114,53 89.5,81.5 Q65,110 50,154.5 Q35,199 35,252 Q35,307 57,364 Q67,387 82.5,409.5 Q98,432 125,457.5 Q152,483 195.5,499 Q239,515 291,515 Q350,515 401,492 Q425,482 447.5,465 Q470,448 494.5,420.5 Q519,393 534,349 Q549,305 549,252 M424,254 Q422,317 386.5,362 Q351,407 289,407 Q251,407 221,388 Q160,348 160,255 Q160,216 170,187 Q176,170 187.5,152 Q199,134 228.5,114.5 Q258,95 295,95 Q359,95 392.5,142 Q426,189 424,254"/> 
            <glyph glyph-name="ö" unicode="&#xF6;" horiz-adv-x="549" d=" M451,587 L337,587 L337,706 L451,706 M250,587 L137,587 L137,706 L250,706 M549,252 Q549,189 529,140 Q520,117 504,93.5 Q488,70 461,44 Q434,18 390.5,1.5 Q347,-15 295,-15 Q233,-15 182,8 Q159,18 136.5,35.5 Q114,53 89.5,81.5 Q65,110 50,154.5 Q35,199 35,252 Q35,307 57,364 Q67,387 82.5,409.5 Q98,432 125,457.5 Q152,483 195.5,499 Q239,515 291,515 Q350,515 401,492 Q425,482 447.5,465 Q470,448 494.5,420.5 Q519,393 534,349 Q549,305 549,252 M424,254 Q422,317 386.5,362 Q351,407 289,407 Q251,407 221,388 Q160,348 160,255 Q160,216 170,187 Q176,170 187.5,152 Q199,134 228.5,114.5 Q258,95 295,95 Q359,95 392.5,142 Q426,189 424,254"/> 
            <glyph glyph-name="÷" unicode="&#xF7;" horiz-adv-x="645" d=" M423,429 L301,429 L301,564 L423,564 M645,257 L79,257 L79,369 L645,369 M422,62 L301,62 L301,196 L422,196"/> 
            <glyph glyph-name="ø" unicode="&#xF8;" horiz-adv-x="565" d=" M565,432 L509,387 Q547,319 547,248 Q547,143 483,68 Q413,-15 282,-15 Q225,-15 185.5,2.5 Q146,20 106,62 L53,20 L9,79 L65,124 Q30,184 30,253 Q30,304 47,351 Q56,376 72,400.5 Q88,425 116,452.5 Q144,480 189.5,497.5 Q235,515 291,515 Q392,515 468,447 L519,488 M380,376 Q372,386 364,392 Q331,419 287,417 Q228,417 187,372 Q148,328 148,256 Q148,229 156,196 M429,244 Q429,281 417,313 L192,133 Q232,84 292,84 Q349,84 389,127 Q429,169 429,244"/> 
            <glyph glyph-name="ù" unicode="&#xF9;" horiz-adv-x="517" d=" M348,573 L258,573 L148,706 L296,706 M517,0 L397,0 L396,51 Q328,-12 235,-12 Q135,-12 91,54 Q86,62 81.5,69.5 Q77,77 74,87 Q71,97 69,103.5 Q67,110 65.5,122 Q64,134 63.5,139 Q63,144 62.5,158 Q62,172 62,175.5 Q62,179 62,194.5 Q62,210 62,212 L62,500 L183,500 L183,230 Q183,199 184,185 Q185,171 194.5,149 Q204,127 223,116 Q247,101 281,101 Q347,101 378,157 Q397,193 397,288 L397,500 L517,500"/> 
            <glyph glyph-name="ú" unicode="&#xFA;" horiz-adv-x="517" d=" M438,706 L330,573 L240,573 L290,706 M517,0 L397,0 L396,51 Q328,-12 235,-12 Q135,-12 91,54 Q86,62 81.5,69.5 Q77,77 74,87 Q71,97 69,103.5 Q67,110 65.5,122 Q64,134 63.5,139 Q63,144 62.5,158 Q62,172 62,175.5 Q62,179 62,194.5 Q62,210 62,212 L62,500 L183,500 L183,230 Q183,199 184,185 Q185,171 194.5,149 Q204,127 223,116 Q247,101 281,101 Q347,101 378,157 Q397,193 397,288 L397,500 L517,500"/> 
            <glyph glyph-name="û" unicode="&#xFB;" horiz-adv-x="517" d=" M462,572 L340,572 L292,639 L243,572 L122,572 L233,706 L351,706 M517,0 L397,0 L396,51 Q328,-12 235,-12 Q135,-12 91,54 Q86,62 81.5,69.5 Q77,77 74,87 Q71,97 69,103.5 Q67,110 65.5,122 Q64,134 63.5,139 Q63,144 62.5,158 Q62,172 62,175.5 Q62,179 62,194.5 Q62,210 62,212 L62,500 L183,500 L183,230 Q183,199 184,185 Q185,171 194.5,149 Q204,127 223,116 Q247,101 281,101 Q347,101 378,157 Q397,193 397,288 L397,500 L517,500"/> 
            <glyph glyph-name="ü" unicode="&#xFC;" horiz-adv-x="517" d=" M448,587 L334,587 L334,706 L448,706 M246,587 L134,587 L134,706 L246,706 M517,0 L397,0 L396,51 Q328,-12 235,-12 Q135,-12 91,54 Q86,62 81.5,69.5 Q77,77 74,87 Q71,97 69,103.5 Q67,110 65.5,122 Q64,134 63.5,139 Q63,144 62.5,158 Q62,172 62,175.5 Q62,179 62,194.5 Q62,210 62,212 L62,500 L183,500 L183,230 Q183,199 184,185 Q185,171 194.5,149 Q204,127 223,116 Q247,101 281,101 Q347,101 378,157 Q397,193 397,288 L397,500 L517,500"/> 
            <glyph glyph-name="ý" unicode="&#xFD;" horiz-adv-x="470" d=" M386,706 L278,573 L188,573 L238,706 M470,500 L343,64 Q342,62 335,36 Q328,10 325,1.5 Q322,-7 314.5,-30 Q307,-53 301.5,-65 Q296,-77 287.5,-94 Q279,-111 270.5,-122.5 Q262,-134 252,-142 Q215,-172 150,-172 Q112,-172 79,-165 L79,-61 Q144,-69 172,-46 Q187,-32 193,-10 L12,500 L141,500 L253,127 L347,500"/> 
            <glyph glyph-name="þ" unicode="&#xFE;" horiz-adv-x="548" d=" M548,246 Q548,143 488,64 Q428,-15 321,-15 Q246,-15 184,41 L184,-163 L64,-163 L64,706 L184,706 L184,455 Q246,517 325,515 Q398,514 450.5,471 Q503,428 525.5,369 Q548,310 548,246 M425,249 Q426,323 389.5,360.5 Q353,398 305,400 Q258,401 220.5,364.5 Q183,328 182,253 Q181,216 195,177 Q225,99 304,99 Q353,99 388.5,136 Q424,173 425,249"/> 
            <glyph glyph-name="ÿ" unicode="&#xFF;" horiz-adv-x="470" d=" M398,587 L284,587 L284,706 L398,706 M196,587 L84,587 L84,706 L196,706 M470,500 L343,64 Q342,62 335,36 Q328,10 325,1.5 Q322,-7 314.5,-30 Q307,-53 301.5,-65 Q296,-77 287.5,-94 Q279,-111 270.5,-122.5 Q262,-134 252,-142 Q215,-172 150,-172 Q112,-172 79,-165 L79,-61 Q144,-69 172,-46 Q187,-32 193,-10 L12,500 L141,500 L253,127 L347,500"/> 
            <glyph glyph-name="Œ" unicode="&#x152;" horiz-adv-x="1077" d=" M1077,0 L551,0 L550,25 Q472,-18 379,-18 Q263,-18 177,51 Q47,155 47,339 Q47,375 54,417 Q83,599 228,680 Q305,724 391,724 Q473,724 551,676 L551,706 L1055,706 L1055,586 L682,586 L682,417 L1007,417 L1007,303 L682,303 L682,119 L1077,119 M551,188 L551,455 Q551,463 551,474.5 Q551,486 551,490.5 Q551,495 550.5,502 Q550,509 548.5,513.5 Q547,518 544,524 Q524,561 482.5,580 Q441,599 395,599 Q343,599 300,574 Q188,511 188,341 Q188,247 230,186 Q293,98 401,99 Q473,99 520,139 Q545,160 551,188"/> 
            <glyph glyph-name="œ" unicode="&#x153;" horiz-adv-x="885" d=" M885,221 L526,221 Q531,189 537,174 Q552,136 584,114 Q616,92 657,92 Q730,92 777,160 L874,101 Q854,72 822,46 Q781,13 741.5,-1 Q702,-15 649,-15 Q561,-15 504,32 Q481,52 464,75 Q445,49 421,30 Q362,-15 279,-15 Q177,-15 110,47 Q34,119 34,245 Q34,375 116,451 Q183,515 283,515 Q386,515 460,441 Q542,515 636,515 Q686,515 733,497 Q834,454 869,338 Q881,297 885,221 M746,306 Q740,332 733,348 Q702,411 635,411 Q570,411 540,353 Q531,337 526,306 M411,246 Q411,283 399,315 Q384,356 353.5,379.5 Q323,403 281,403 Q220,403 187.5,357.5 Q155,312 155,249 Q155,222 160,201 Q163,187 169.5,172 Q176,157 189,137.5 Q202,118 226.5,106 Q251,94 283,94 Q346,94 381,143 Q411,183 411,246"/> 
            <glyph glyph-name="Š" unicode="&#x160;" horiz-adv-x="632" d=" M494,895 L394,771 L276,771 L172,895 L292,895 L334,838 L377,895 M632,213 Q633,169 618.5,132.5 Q604,96 583,73.5 Q562,51 534,33.5 Q506,16 485.5,8 Q465,0 444,-5 Q389,-18 331,-18 Q172,-18 73,72 Q38,103 23,133 L134,210 Q154,183 156,181 Q225,104 351,104 Q416,104 452.5,128.5 Q489,153 489,196 Q489,229 464,250 Q456,258 439,265 Q422,272 410.5,275 Q399,278 376,283 L353,288 L269,307 Q268,307 251,310.5 Q234,314 222,317 Q210,320 189,328 Q168,336 152.5,345 Q137,354 118.5,369 Q100,384 88.5,402.5 Q77,421 69,447 Q61,473 61,504 Q61,560 85,602 Q117,659 182.5,691.5 Q248,724 341,724 Q501,724 601,611 Q606,605 614,595 Q622,585 625,581 L516,500 Q494,531 489,537 Q429,605 336,605 Q276,606 238,581.5 Q200,557 200,519 Q200,503 207.5,490.5 Q215,478 223.5,470.5 Q232,463 253,455.5 Q274,448 286.5,445 Q299,442 330,435 L403,419 Q404,419 419,415.5 Q434,412 452,407 Q470,402 484,397 Q629,345 632,213"/> 
            <glyph glyph-name="š" unicode="&#x161;" horiz-adv-x="487" d=" M431,706 L319,572 L205,572 L92,706 L213,706 L262,642 L311,706 M487,154 Q486,86 425.5,35 Q365,-16 258,-15 Q110,-13 22,75 L111,148 Q164,84 255,84 Q297,83 326.5,101 Q356,119 354,145 Q353,164 331,177 Q324,181 291.5,188.5 Q259,196 223.5,202.5 Q188,209 184,210 Q44,245 44,353 Q45,417 100.5,465.5 Q156,514 254,515 Q390,517 474,422 L389,343 Q351,419 253,419 Q217,419 194,405.5 Q171,392 170,369 Q169,344 190.5,333 Q212,322 257,313 Q262,312 295,306.5 Q328,301 347.5,297 Q367,293 393.5,283.5 Q420,274 435,263 Q487,223 487,154"/> 
            <glyph glyph-name="Ÿ" unicode="&#x178;" horiz-adv-x="615" d=" M471,772 L357,772 L357,895 L471,895 M269,772 L157,772 L157,895 L269,895 M615,706 L377,279 L377,0 L246,0 L246,279 L10,706 L160,706 L313,414 L467,706"/> 
            <glyph glyph-name="ƒ" unicode="&#x192;" horiz-adv-x="418" d=" M418,680 L406,579 Q378,581 367,581 Q343,581 328.5,576.5 Q314,572 307,558 Q300,544 298,534 Q296,524 293,499 L290,474 L394,474 L384,389 L280,389 L235,-1 Q227,-76 213.5,-111 Q200,-146 162,-165 Q135,-180 93,-180 Q41,-180 15,-169 L27,-63 Q47,-68 62,-68 Q78,-68 83,-64 Q97,-55 102,-35.5 Q107,-16 112,23 L155,389 L78,389 L88,474 L165,474 L168,494 Q169,503 172.5,525.5 Q176,548 177,555.5 Q178,563 181.5,579.5 Q185,596 187.5,603 Q190,610 195,621 Q200,632 206,639 Q212,646 220,653 Q258,686 336,686 Q370,686 410,681"/> 
            <glyph glyph-name="ˆ" unicode="&#x2C6;" horiz-adv-x="306" d=" M306,572 L183,572 L136,639 L86,572 L-35,572 L76,706 L194,706"/> 
            <glyph glyph-name="˜" unicode="&#x2DC;" horiz-adv-x="316" d=" M316,706 Q314,700 311,682 Q308,664 305,655 Q278,583 214,583 Q185,583 130,605 Q86,622 70,622 Q60,622 54,618 Q38,611 34,584 L-44,584 Q-44,603 -36,630 Q-6,710 60,710 Q74,710 141,690 Q178,673 200,673 Q223,673 231,690 Q233,694 234,698 Q235,702 237,706"/> 
            <glyph glyph-name="–" unicode="&#x2013;" horiz-adv-x="569" d=" M569,247 L41,247 L41,360 L569,360"/> 
            <glyph glyph-name="—" unicode="&#x2014;" horiz-adv-x="852" d=" M852,247 L41,247 L41,360 L852,360"/> 
            <glyph glyph-name="‘" unicode="&#x2018;" horiz-adv-x="169" d=" M169,433 L36,433 L36,583 Q36,613 40,625 Q51,661 86,683 Q121,705 161,709 L161,650 Q107,644 107,570 L169,570"/> 
            <glyph glyph-name="’" unicode="&#x2019;" horiz-adv-x="170" d=" M170,557 Q170,502 136,469.5 Q102,437 46,429 L46,485 Q75,498 87,511 Q99,524 99,553 Q99,564 98,569 L39,569 L39,706 L170,706"/> 
            <glyph glyph-name="‚" unicode="&#x201A;" horiz-adv-x="170" d=" M170,-14 Q170,-66 143,-94 Q116,-122 62,-135 Q52,-137 45,-139 L45,-81 Q99,-75 99,0 L37,0 L37,137 L170,137 L170,-10"/> 
            <glyph glyph-name="“" unicode="&#x201C;" horiz-adv-x="338" d=" M338,436 L208,436 L208,588 Q208,621 217,642.5 Q226,664 250,683 Q283,708 331,711 L331,658 Q294,644 285,629.5 Q276,615 276,574 L338,574 M167,436 L37,436 L37,581 Q37,641 66.5,672 Q96,703 158,715 L158,659 Q122,644 114.5,630 Q107,616 107,574 L167,574"/> 
            <glyph glyph-name="”" unicode="&#x201D;" horiz-adv-x="338" d=" M338,563 Q338,501 308.5,469.5 Q279,438 216,426 L216,482 Q241,490 252.5,501.5 Q264,513 266,526 Q268,539 268,567 L208,567 L208,706 L338,706 M167,551 Q167,491 125,459 Q87,430 44,431 L44,484 Q99,498 99,553 Q99,556 98.5,560 Q98,564 98,567 L37,567 L37,706 L167,706"/> 
            <glyph glyph-name="„" unicode="&#x201E;" horiz-adv-x="338" d=" M338,-5 Q338,-66 308.5,-98.5 Q279,-131 216,-142 L216,-86 Q244,-77 256,-63 Q268,-49 268,-21 L268,0 L208,0 L208,139 L338,139 M167,-7 Q167,-47 161,-62 Q148,-95 114.5,-116 Q81,-137 44,-137 L44,-84 Q99,-70 99,-14 Q99,-12 98.5,-7 Q98,-2 98,0 L37,0 L37,139 L167,139"/> 
            <glyph glyph-name="†" unicode="&#x2020;" horiz-adv-x="503" d=" M503,366 L335,366 L335,-44 L209,-44 L209,366 L40,366 L40,478 L209,478 L209,706 L335,706 L335,478 L503,478"/> 
            <glyph glyph-name="‡" unicode="&#x2021;" horiz-adv-x="472" d=" M472,427 L310,427 L310,230 L469,230 L469,128 L308,128 L308,-47 L190,-47 L190,129 L29,129 L29,230 L192,230 L192,428 L29,428 L29,530 L192,530 L192,706 L311,706 L311,530 L472,530"/> 
            <glyph glyph-name="•" unicode="&#x2022;" horiz-adv-x="286" d=" M286,233 L47,233 L47,471 L286,471"/> 
            <glyph glyph-name="…" unicode="&#x2026;" horiz-adv-x="890" d=" M890,0 L777,0 L777,111 L890,111 M556,0 L444,0 L444,111 L556,111 M222,0 L110,0 L110,111 L222,111"/> 
            <glyph glyph-name="‰" unicode="&#x2030;" horiz-adv-x="1225" d=" M1225,219 Q1225,189 1223,171 Q1215,78 1171.5,36.5 Q1128,-5 1067,-7 Q1012,-9 972,20 Q899,71 899,212 Q899,331 942.5,390 Q986,449 1065,449 Q1140,449 1182.5,394.5 Q1225,340 1225,229 M850,223 Q850,142 833,97 Q794,-6 689,-7 Q648,-7 617,7.5 Q586,22 570,44.5 Q554,67 542.5,94.5 Q531,122 529,146.5 Q527,171 525,189 Q523,207 525,212 L525,213 Q525,280 532,310 Q537,330 545,349 Q553,368 570,392.5 Q587,417 617,432.5 Q647,448 687,449 Q748,449 786,415 Q814,390 829,351.5 Q844,313 846.5,287 Q849,261 850,223 M621,646 L307,-37 L238,-6 L553,678 M351,458 Q351,377 336,335 Q299,226 189,225 Q155,225 127.5,236 Q100,247 84,263 Q68,279 56,300.5 Q44,322 39.5,337 Q35,352 32,368 Q26,396 26,452 Q26,606 107,658 Q140,680 187,681 Q264,682 307,626.5 Q350,571 351,458 M1136,218 Q1136,290 1121,331 Q1106,372 1065,373 Q991,375 991,224 Q991,190 992,173 Q998,68 1066,71 Q1137,74 1136,212 Q1136,216 1136,218 M760,220 Q760,267 756,292 Q756,295 755,302 Q754,309 749.5,321.5 Q745,334 738.5,345 Q732,356 718.5,364 Q705,372 688,372 Q657,372 636,343 Q615,313 615,216 Q615,70 687,70 Q761,70 760,214 Q760,218 760,220 M261,457 Q261,506 256,532 Q242,607 187,605 Q116,604 116,451 Q116,301 190,303 Q262,304 261,451 Q261,455 261,457"/> 
            <glyph glyph-name="‹" unicode="&#x2039;" horiz-adv-x="198" d=" M198,132 L56,244 L56,385 L198,499 L198,385 L112,314 L198,244"/> 
            <glyph glyph-name="›" unicode="&#x203A;" horiz-adv-x="192" d=" M192,242 L50,129 L50,242 L136,314 L50,383 L50,496 L192,383"/> 
            <glyph glyph-name="€" unicode="&#x20AC;" horiz-adv-x="665" d=" M665,621 L619,488 Q583,535 542.5,556.5 Q502,578 445,578 Q374,578 325,541 Q276,504 257,436 L602,436 L575,364 L247,364 Q246,358 246,345 Q246,331 247,324 L563,324 L536,252 L256,252 Q298,101 449,101 Q504,101 555.5,124.5 Q607,148 644,189 L644,40 Q555,-21 434,-21 Q302,-21 220,50 Q138,121 111,252 L33,252 L60,324 L103,324 L105,364 L33,364 L60,436 L113,436 Q142,559 227,627 Q312,695 438,695 Q508,695 561,678.5 Q614,662 665,621"/> 
            <glyph glyph-name="™" unicode="&#x2122;" horiz-adv-x="628" d=" M628,374 L562,374 L563,637 L495,374 L437,374 L367,641 L371,374 L303,374 L304,706 L410,706 L467,473 L522,706 L627,706 M262,648 L174,648 L174,374 L102,374 L102,648 L8,648 L8,706 L262,706"/> 
            <glyph glyph-name=" " unicode="&#x20;" horiz-adv-x="211" d=" M211,436 L173,176 L117,176 L80,436 L80,706 L211,706 M211,0 L80,0 L80,138 L211,138"/> 
            <glyph glyph-name="!" unicode="&#x21;" horiz-adv-x="297" d=" M297,743 L266,444 L232,444 L200,743 M131,743 L101,444 L66,444 L35,743"/> 
            <glyph glyph-name="&quot;" unicode="&#x22;" horiz-adv-x="623" d=" M623,408 L492,408 L478,314 L601,314 L601,214 L466,214 L435,0 L334,0 L365,214 L266,214 L236,0 L134,0 L164,214 L42,214 L42,314 L177,314 L190,408 L64,408 L64,508 L203,508 L230,706 L334,706 L306,508 L404,508 L431,706 L532,706 L505,508 L623,508 M391,408 L292,408 L278,314 L378,314"/> 
            <glyph glyph-name="#" unicode="&#x23;" horiz-adv-x="586" d=" M586,219 Q586,131 528,73 Q496,41 452,22 Q418,9 358,0 L358,-114 L266,-114 L266,0 Q214,10 183.5,19.5 Q153,29 119,52 Q89,73 66,96 Q56,106 35,133 L136,210 Q164,170 207,142 Q233,127 242,125 Q251,121 266,120 L266,311 Q132,325 83,394 Q54,439 54,491 Q54,563 97,615 Q156,685 266,697 L266,805 L358,805 L358,697 Q488,685 574,588 L479,513 Q458,540 432.5,557 Q407,574 395,578 Q383,582 358,588 L358,428 Q454,415 514,371 Q586,317 586,219 M266,444 L266,588 Q265,588 256,586 Q247,584 242,582 Q185,561 185,511 Q185,482 205,467 Q225,451 266,444 M454,212 Q453,276 358,297 L358,118 Q375,120 388,126 Q454,154 454,212"/> 
            <glyph glyph-name="$" unicode="&#x24;" horiz-adv-x="850" d=" M850,223 Q850,159 841,124 Q837,106 829,88.5 Q821,71 804.5,47 Q788,23 757.5,8 Q727,-7 687,-7 Q601,-7 559,60 Q525,113 525,224 Q525,309 549,359 Q592,449 691,449 Q765,449 806,392 Q831,359 841,315 Q849,283 850,223 M621,646 L307,-37 L238,-6 L553,678 M351,458 Q353,353 316,294 Q274,225 187,225 Q109,225 65,286 Q44,316 35,356 Q26,392 26,453 Q26,557 62,614 Q106,681 191,681 Q250,681 288,647 Q326,613 341,555 Q351,518 351,458 M760,220 Q760,302 743,336 Q725,372 688,372 Q650,372 632,335 Q615,300 615,217 Q615,168 622,136 Q631,96 654,80 Q671,70 688,70 Q721,70 739,98 Q760,129 760,220 M261,453 Q261,535 244,569 Q226,605 189,605 Q151,605 133,568 Q116,533 116,450 Q116,401 123,369 Q132,329 155,313 Q172,303 189,303 Q222,303 240,331 Q261,362 261,453"/> 
            <glyph glyph-name="%" unicode="&#x25;" horiz-adv-x="614" d=" M614,0 Q582,-3 565,-3 Q531,-3 505,3 Q479,9 466.5,16 Q454,23 436,37 Q358,-15 267,-15 Q171,-15 111,34 Q43,91 43,184 Q43,220 56,255 Q68,287 94,315 Q120,343 137,355 Q154,367 196,394 Q166,442 166,498 Q166,567 207,612 Q251,662 329,662 Q365,662 399,649 Q440,631 466,594 Q492,557 492,512 Q492,468 461,422 Q430,376 359,351 Q365,339 374,325.5 Q383,312 394,296.5 Q405,281 411,272 Q440,229 451,217 Q458,227 463.5,236.5 Q469,246 472.5,255.5 Q476,265 478.5,272.5 Q481,280 482.5,289.5 Q484,299 485,303.5 Q486,308 487,317 Q488,326 488,328 L603,327 Q600,301 597,290 Q574,194 522,129 Q539,111 553.5,104.5 Q568,98 592,98 Q596,98 614,100 M387,515 Q387,539 371.5,553.5 Q356,568 332,568 Q309,568 293.5,553 Q278,538 279,515 Q279,484 309,440 L327,446 Q337,449 348,454.5 Q359,460 373,476.5 Q387,493 387,515 M371,127 L250,304 Q234,296 215,282 Q164,242 164,192 Q164,164 176,145 Q205,89 274,89 Q326,89 371,127"/> 
            <glyph glyph-name="&amp;" unicode="&#x26;" horiz-adv-x="131" d=" M131,743 L101,444 L66,444 L35,743"/> 
            <glyph glyph-name="'" unicode="&#x27;" horiz-adv-x="333" d=" M333,-105 L289,-164 Q272,-152 265,-146 Q197,-90 151,-31 Q35,118 35,316 Q35,505 141,655 Q170,694 204,730 Q242,768 285,800 L331,749 Q282,699 255,662 Q158,525 158,327 Q158,193 204.5,77.5 Q251,-38 333,-105"/> 
            <glyph glyph-name="(" unicode="&#x28;" horiz-adv-x="296" d=" M296,320 Q296,131 189,-19 Q136,-94 45,-164 L-1,-113 Q48,-63 75,-26 Q173,112 173,310 Q173,444 127,558.5 Q81,673 -1,741 L43,800 Q49,796 56.5,790 Q64,784 66,782 Q131,730 180,667 Q296,514 296,320"/> 
            <glyph glyph-name=")" unicode="&#x29;" horiz-adv-x="358" d=" M358,557 L260,523 L320,444 L252,391 L188,474 L130,391 L60,442 L116,522 L20,550 L45,633 L143,605 L143,708 L230,708 L230,604 L330,638"/> 
            <glyph glyph-name="*" unicode="&#x2A;" horiz-adv-x="631" d=" M631,260 L427,260 L427,44 L297,44 L297,260 L93,260 L93,367 L297,367 L297,580 L427,580 L427,367 L631,367"/> 
            <glyph glyph-name="+" unicode="&#x2B;" horiz-adv-x="170" d=" M170,-14 Q170,-66 143,-94 Q116,-122 62,-135 Q52,-137 45,-139 L45,-81 Q99,-75 99,0 L37,0 L37,137 L170,137 L170,-10"/> 
            <glyph glyph-name="," unicode="&#x2C;" horiz-adv-x="330" d=" M330,247 L41,247 L41,360 L330,360"/> 
            <glyph glyph-name="-" unicode="&#x2D;" horiz-adv-x="169" d=" M169,0 L37,0 L37,137 L169,137"/> 
            <glyph glyph-name="." unicode="&#x2E;" horiz-adv-x="467" d=" M467,706 L132,0 L13,0 L348,706"/> 
            <glyph glyph-name="/" unicode="&#x2F;" horiz-adv-x="529" d=" M529,340 Q528,222 503,152 Q478,82 429,42 Q367,-9 281,-9 Q164,-9 97,79 Q36,159 36,336 Q36,464 66,536 Q96,608 155,647 Q213,686 287,686 Q369,686 427,638 Q529,555 529,340 M399,338 Q401,440 384,485 Q381,502 369,525 Q340,575 285,575 Q239,575 212,544 Q165,491 165,334 Q165,270 172,221 Q188,143 227,117 Q251,102 283,102 Q312,102 333,114 Q369,134 384,184 Q399,231 399,338"/> 
            <glyph glyph-name="0" unicode="&#x30;" horiz-adv-x="363" d=" M363,0 L240,0 L240,386 Q240,392 240,403 Q240,414 240,418 Q240,422 239.5,429.5 Q239,437 238,440.5 Q237,444 234.5,448.5 Q232,453 229,457 Q217,469 184,469 L75,469 L75,546 L88,546 Q167,546 205,574 Q246,603 263,675 L363,675"/> 
            <glyph glyph-name="1" unicode="&#x31;" horiz-adv-x="516" d=" M516,0 L57,0 L57,98 Q197,198 293,305 Q366,387 366,470 Q366,514 343,542.5 Q320,571 277,571 Q242,571 218,550 Q200,534 191.5,506.5 Q183,479 182.5,463.5 Q182,448 182,414 L57,426 Q56,536 105,601 Q128,633 174,659.5 Q220,686 288,686 Q381,686 441,631 Q506,572 504,474 Q504,415 478,362 Q468,342 453.5,321 Q439,300 428.5,286.5 Q418,273 394,250.5 Q370,228 363,221.5 Q356,215 325,189 Q294,163 292,161 Q240,117 220,104 L516,104"/> 
            <glyph glyph-name="2" unicode="&#x32;" horiz-adv-x="524" d=" M524,199 Q524,103 454,45 Q390,-9 282,-9 Q167,-9 107,52 Q47,112 47,221 L180,221 Q176,195 181,174 Q188,146 212.5,123 Q237,100 284,100 Q314,100 339,113 Q390,140 390,207 Q390,242 372,267 Q343,308 271,306 L239,305 L239,410 Q245,410 264,409 Q283,408 292.5,409 Q302,410 317,412.5 Q332,415 342.5,422 Q353,429 361,441 Q375,460 375,489 Q375,527 351,551 Q327,575 289,575 Q245,575 218,542 Q193,511 192,462 L60,490 Q84,622 190,665 Q240,686 293,686 Q316,686 344,681 Q360,678 375,673.5 Q390,669 416,656 Q442,643 460.5,625.5 Q479,608 493.5,576.5 Q508,545 508,507 Q508,423 448,384 Q426,370 396,362 Q449,352 487,311 Q524,266 524,199"/> 
            <glyph glyph-name="3" unicode="&#x33;" horiz-adv-x="523" d=" M523,155 L436,155 L436,0 L313,0 L313,155 L17,155 L17,243 L313,675 L436,675 L436,258 L523,258 M320,526 L146,258 L313,258"/> 
            <glyph glyph-name="4" unicode="&#x34;" horiz-adv-x="519" d=" M519,241 Q519,138 459,71 Q388,-9 267,-9 Q172,-9 112,37 Q43,91 37,189 L176,198 Q178,154 204,126 Q230,98 273,99 Q306,99 327,112 Q355,128 369,163.5 Q383,199 383,235 Q383,261 375,286 Q369,302 360,316.5 Q351,331 327,346.5 Q303,362 271,362 Q257,362 241,359 Q225,356 202.5,340.5 Q180,325 170,299 L58,306 L105,677 L480,677 L470,564 L208,564 L185,415 Q198,428 201,430 Q248,465 315,465 Q405,465 462,402 Q519,339 519,241"/> 
            <glyph glyph-name="5" unicode="&#x35;" horiz-adv-x="513" d=" M513,225 Q513,130 458,67 Q390,-9 286,-9 Q211,-9 155,31 Q48,108 48,318 Q48,468 94,560 Q112,597 141,624 Q203,686 298,686 Q384,686 443,636 Q492,594 505,517 L377,500 Q377,518 371,532 Q351,576 298,576 Q231,576 203,506 Q181,454 179,367 Q194,386 209,398 Q257,435 321,435 Q397,435 451,385 Q513,325 513,225 M387,213 Q387,253 369,281 Q343,322 291,322 Q243,322 216.5,290.5 Q190,259 190,212 Q190,141 239,114 Q259,103 288,103 Q338,103 364,137 Q387,166 387,213"/> 
            <glyph glyph-name="6" unicode="&#x36;" horiz-adv-x="512" d=" M512,567 Q480,528 445,475 Q369,356 325,210 Q294,102 285,0 L120,0 Q127,52 140,104 Q153,156 166,196 Q179,236 200.5,281.5 Q222,327 235.5,354.5 Q249,382 274.5,421.5 Q300,461 309.5,475.5 Q319,490 343,523.5 Q367,557 369,559 L64,559 L64,677 L512,677"/> 
            <glyph glyph-name="7" unicode="&#x37;" horiz-adv-x="531" d=" M531,195 Q531,138 503,94 Q477,52 420.5,21.5 Q364,-9 279,-9 Q222,-9 173,7 Q154,13 134,24 Q114,35 88,56 Q62,77 45.5,113 Q29,149 29,194 Q29,246 53,283 Q82,329 140,354 Q114,367 94,387 Q53,434 53,500 Q53,549 78,590 Q103,629 154,657.5 Q205,686 286,686 Q341,686 382,672 Q400,666 419,655.5 Q438,645 461.5,625 Q485,605 500,571 Q515,537 515,495 Q515,398 427,354 Q454,342 478,319 Q531,269 531,195 M384,485 Q384,523 362,547 Q348,561 331,568 Q309,576 283,576 Q256,576 240,570 Q181,551 181,485 Q181,447 205,423 Q219,411 235,404 Q252,397 285,397 Q311,397 330,404 Q384,423 384,485 M397,199 Q397,238 376,260 Q355,282 333,289 Q307,296 284,296 Q251,296 230,288 Q170,263 170,198 Q170,156 201,128 Q232,103 285,103 Q333,103 365,127.5 Q397,152 397,199"/> 
            <glyph glyph-name="8" unicode="&#x38;" horiz-adv-x="517" d=" M517,365 Q517,208 461,112 Q439,73 408,45 Q375,17 332,3 Q293,-9 253,-9 Q138,-9 82,76 Q61,108 50,162 L187,181 Q191,157 197,144 Q217,101 269,102 Q294,102 312,113 Q348,136 364,191.5 Q380,247 379,300 Q366,279 339,265 Q297,241 244,241 Q171,241 119,283 Q50,341 50,453 Q50,513 70,558 Q91,606 142.5,646 Q194,686 279,686 Q350,686 399,655 Q429,635 449,610 Q466,588 475,570 Q517,491 517,365 M369,459 Q369,489 363,508 Q351,547 325,562 Q299,577 274,577 Q252,577 230,565 Q180,537 180,465 Q180,445 184,425 Q187,414 191.5,403.5 Q196,393 206,379.5 Q216,366 234,357.5 Q252,349 275,349 Q341,349 363,413 Q369,433 369,459"/> 
            <glyph glyph-name="9" unicode="&#x39;" horiz-adv-x="210" d=" M210,371 L78,371 L78,509 L210,509 M210,0 L78,0 L78,137 L210,137"/> 
            <glyph glyph-name=":" unicode="&#x3A;" horiz-adv-x="211" d=" M211,371 L78,371 L78,509 L211,509 M211,-9 Q211,-69 180.5,-96.5 Q150,-124 85,-140 L85,-80 Q140,-73 140,-10 L140,0 L78,0 L78,137 L211,137"/> 
            <glyph glyph-name=";" unicode="&#x3B;" horiz-adv-x="578" d=" M578,28 L113,257 L113,380 L578,608 L578,484 L232,322 L578,158"/> 
            <glyph glyph-name="&lt;" unicode="&#x3C;" horiz-adv-x="625" d=" M625,351 L99,351 L99,458 L625,458 M625,148 L99,148 L99,255 L625,255"/> 
            <glyph glyph-name="=" unicode="&#x3D;" horiz-adv-x="608" d=" M608,255 L143,27 L143,151 L489,313 L142,477 L143,607 L608,378"/> 
            <glyph glyph-name="&gt;" unicode="&#x3E;" horiz-adv-x="535" d=" M535,509 Q535,416 461,356 Q456,352 423,329 Q381,300 369,279 Q357,258 357,210 Q357,191 358,182 L240,182 L240,207 Q240,316 268,355 Q283,377 317.5,399.5 Q352,422 374.5,446.5 Q397,471 397,509 Q397,550 365,577 Q333,604 292,604 Q236,604 205,567 Q174,530 174,473 L53,487 Q59,546 72,580 Q99,650 159.5,684 Q220,718 299,718 Q397,718 466,662 Q535,606 535,509 M366,0 L233,0 L233,137 L366,137"/> 
            <glyph glyph-name="?" unicode="&#x3F;" horiz-adv-x="827" d=" M827,421 Q827,370 815,321 Q803,267 781,221 Q751,160 701,114.5 Q651,69 593,69 Q515,69 506,146 Q445,69 371,69 Q305,69 270.5,117 Q236,165 236,234 Q236,297 260,361 Q284,425 335,472.5 Q386,520 451,520 Q524,520 561,448 L573,499 L652,499 L619,345 Q591,219 591,177 Q591,140 616,140 Q636,140 668,172 Q708,212 732,284 Q756,356 756,419 Q756,526 692,585.5 Q628,645 522,645 Q416,645 327,586.5 Q238,528 188,434.5 Q138,341 138,236 Q138,99 226.5,21 Q315,-57 454,-57 Q545,-57 630.5,-18 Q716,21 783,89 L823,38 Q663,-124 454,-124 Q372,-124 293,-94 Q69,-6 69,235 Q69,362 128.5,471.5 Q188,581 294.5,646.5 Q401,712 529,712 Q663,712 745,633.5 Q827,555 827,421 M532,349 Q532,387 512.5,415.5 Q493,444 457,444 Q416,444 384.5,407 Q353,370 340,324.5 Q327,279 327,239 Q327,175 368,154 Q382,146 398,146 L402,146 Q443,149 474,185 Q505,221 518.5,265 Q532,309 532,349"/> 
            <glyph glyph-name="@" unicode="&#x40;" horiz-adv-x="636" d=" M636,0 L495,0 L454,138 L189,138 L148,0 L6,0 L245,706 L395,706 M419,254 L322,579 L224,254"/> 
            <glyph glyph-name="A" unicode="&#x41;" horiz-adv-x="643" d=" M643,200 Q643,85 550,32 Q541,27 531,22.5 Q521,18 513,15 Q505,12 493.5,9.5 Q482,7 475.5,5.5 Q469,4 455.5,3 Q442,2 437,1.5 Q432,1 416.5,0.5 Q401,0 397.5,0 Q394,0 377,0 Q360,0 357,0 L80,0 L80,706 L333,706 Q404,706 439,703 Q518,696 565,646 Q610,598 610,533 Q610,517 607,499 Q604,481 588.5,452 Q573,423 546,406 Q527,394 493,387 Q527,380 547,368 Q643,317 643,200 M474,511 Q474,538 457,560 Q451,567 445,572.5 Q439,578 430.5,582 Q422,586 416,588.5 Q410,591 398.5,593 Q387,595 382,596 Q377,597 364,597.5 Q351,598 347.5,598 Q344,598 330,598 Q316,598 314,598 L211,598 L211,422 L257,422 Q327,422 363,424 Q426,428 452,456 Q474,478 474,511 M508,212 Q508,277 451,306 Q434,315 407,318.5 Q380,322 360.5,322.5 Q341,323 285,323 L211,323 L211,114 L359,114 Q427,114 452,125 Q472,134 486,150 Q508,174 508,212"/> 
            <glyph glyph-name="B" unicode="&#x42;" horiz-adv-x="672" d=" M672,197 Q648,140 619,102 Q525,-18 367,-18 Q290,-18 225,12 Q191,28 161,53 Q131,78 101.5,118 Q72,158 54.5,219.5 Q37,281 37,355 Q37,494 102,587 Q197,724 372,724 Q530,724 610,612 Q638,570 659,506 L528,472 Q525,501 510,528 Q490,565 453.5,584.5 Q417,604 374,603 Q330,603 292,584 Q246,561 213,504.5 Q180,448 180,358 Q180,256 222,191 Q244,158 273,139 Q319,107 376,107 Q454,107 506,171 Q514,181 534,214 Q539,226 547,249"/> 
            <glyph glyph-name="C" unicode="&#x43;" horiz-adv-x="669" d=" M669,347 Q669,273 650,210 Q631,147 585,94 Q539,41 469,19 Q408,0 296,0 L71,0 L71,706 L324,706 Q385,706 426,698 Q530,677 596,592 Q669,495 669,347 M529,348 Q529,481 461,541 Q429,568 387,579 Q357,587 273,587 L203,587 L203,119 L238,119 Q345,119 383,125 Q451,136 487,180 Q529,233 529,348"/> 
            <glyph glyph-name="D" unicode="&#x44;" horiz-adv-x="605" d=" M605,0 L78,0 L78,706 L580,706 L580,588 L208,588 L208,422 L549,422 L549,308 L208,308 L208,119 L605,119"/> 
            <glyph glyph-name="E" unicode="&#x45;" horiz-adv-x="548" d=" M548,588 L212,588 L212,412 L507,412 L507,299 L212,299 L212,0 L81,0 L81,706 L548,706"/> 
            <glyph glyph-name="F" unicode="&#x46;" horiz-adv-x="685" d=" M685,0 L572,0 L571,60 Q487,-18 377,-18 Q242,-18 151,71 Q46,176 46,346 Q46,496 129,601 Q144,620 164,638 Q184,656 216,677 Q248,698 293,711 Q338,724 388,724 Q448,724 504,703 Q634,652 685,516 L559,466 Q510,605 387,605 Q311,605 260,554 Q190,482 190,350 Q190,215 271,147 Q319,107 390,107 Q444,107 486.5,133 Q529,159 549,207 Q559,230 564,270 L388,270 L388,386 L685,386"/> 
            <glyph glyph-name="G" unicode="&#x47;" horiz-adv-x="649" d=" M649,0 L516,0 L516,321 L213,321 L213,0 L80,0 L80,706 L213,706 L213,440 L516,440 L516,706 L649,706"/> 
            <glyph glyph-name="H" unicode="&#x48;" horiz-adv-x="210" d=" M210,0 L80,0 L80,706 L210,706"/> 
            <glyph glyph-name="I" unicode="&#x49;" horiz-adv-x="332" d=" M332,170 Q332,99 294,54 Q235,-15 108,-15 Q65,-15 26,-6 L26,124 Q71,114 96,114 Q132,114 160,129 Q167,133 172.5,138 Q178,143 182,147.5 Q186,152 189.5,159.5 Q193,167 195,172 Q197,177 198.5,186 Q200,195 200.5,199 Q201,203 201.5,214 Q202,225 202,228 Q202,231 202,242 Q202,253 202,255 L202,706 L332,706"/> 
            <glyph glyph-name="J" unicode="&#x4A;" horiz-adv-x="665" d=" M665,0 L514,0 L326,332 L211,200 L211,0 L80,0 L80,706 L211,706 L211,382 L494,706 L649,706 L418,440"/> 
            <glyph glyph-name="K" unicode="&#x4B;" horiz-adv-x="495" d=" M495,0 L82,0 L82,706 L215,706 L215,120 L495,120"/> 
            <glyph glyph-name="L" unicode="&#x4C;" horiz-adv-x="733" d=" M733,0 L604,0 L617,580 L464,0 L345,0 L192,580 L205,0 L76,0 L76,706 L268,706 L406,182 L542,706 L733,706"/> 
            <glyph glyph-name="M" unicode="&#x4D;" horiz-adv-x="628" d=" M628,0 L512,0 L203,495 L211,0 L82,0 L82,706 L201,706 L514,208 L498,706 L628,706"/> 
            <glyph glyph-name="N" unicode="&#x4E;" horiz-adv-x="725" d=" M725,353 Q725,189 627,83 Q574,26 507,2 Q452,-18 384,-18 Q237,-18 142,91 Q48,198 48,352 Q48,426 69,489 Q104,596 189.5,660 Q275,724 387,724 Q540,724 637,612 Q726,511 725,353 M592,339 Q594,440 550,510 Q493,603 386,603 Q338,603 296,582 Q250,557 217,502 Q184,447 184,357 Q184,201 284,135 Q330,105 388,105 Q432,105 469,122 Q518,145 554,197 Q590,249 592,339"/> 
            <glyph glyph-name="O" unicode="&#x4F;" horiz-adv-x="607" d=" M607,471 Q607,341 513,280 Q484,262 448.5,252.5 Q413,243 387,241.5 Q361,240 317,240 L214,240 L214,0 L82,0 L82,706 L320,706 L346,706 Q371,707 371,706 Q491,698 554,624 Q607,563 607,471 M471,475 Q471,512 455,541 Q441,565 415,577.5 Q389,590 369.5,591.5 Q350,593 315,593 L214,593 L214,348 L309,348 Q314,348 323,348.5 Q332,349 337,349 Q423,353 452,401 Q471,434 471,475"/> 
            </font>
</defs>
</svg>
