<?xml version="1.0" standalone="no"?>
<!DOCTYPE svg PUBLIC "-//W3C//DTD SVG 1.1//EN" "http://www.w3.org/Graphics/SVG/1.1/DTD/svg11.dtd" >
<svg xmlns="http://www.w3.org/2000/svg">
    <defs>
        <font id="Oswald-Regular">
            <font-face font-family="Oswald-Regular"
                       units-per-em="2048"
                       ascent="2444"
                       descent="-591"
                       bbox="-211 -652 2027 2424"
                    />
            <missing-glyph horiz-adv-x="0" />
            
            <glyph glyph-name="!" unicode="&#x21;" horiz-adv-x="320" d=" M128,384 L64,1792 L320,1792 L274,384 M64,0 L64,256 L320,256 L320,0"/> 
            <glyph glyph-name="&quot;" unicode="&#x22;" horiz-adv-x="641" d=" M449,1328 L385,1792 L641,1792 L577,1328 M126,1328 L62,1792 L318,1792 L254,1328"/> 
            <glyph glyph-name="#" unicode="&#x23;" horiz-adv-x="1024" d=" M437,832 L630,832 L657,1024 L465,1024 M64,0 L154,640 L64,640 L64,832 L181,832 L209,1024 L64,1024 L64,1216 L236,1216 L318,1792 L574,1792 L492,1216 L684,1216 L766,1792 L1022,1792 L940,1216 L1024,1216 L1024,1024 L913,1024 L885,832 L1024,832 L1024,640 L858,640 L768,0 L512,0 L602,640 L410,640 L320,0"/> 
            <glyph glyph-name="$" unicode="&#x24;" horiz-adv-x="1088" d=" M704,198 Q832,227 832,384 Q832,462 804,519 Q776,576 724,628 L704,648 M576,1101 L576,1600 Q484,1600 434,1548 Q384,1496 384,1405 Q384,1253 512,1152 M576,-128 L576,-15 Q368,0 254.5,142.5 Q141,285 128,512 L384,576 Q394,283 555,208 L576,200 L576,755 L320,960 Q232,1031 179.5,1136.5 Q127,1242 127,1378 Q127,1576 250,1693 Q373,1810 576,1810 L576,1920 L704,1920 L704,1799 L745,1790 Q1061,1704 1088,1344 L832,1280 Q823,1468 724,1549 L704,1564 L704,998 L832,896 Q945,808 1016.5,683.5 Q1088,559 1088,401 Q1088,220 984,112 Q880,4 704,-15 L704,-128"/> 
            <glyph glyph-name="%" unicode="&#x25;" horiz-adv-x="1921" d=" M1649,0 Q1459,0 1387.5,38.5 Q1316,77 1273,145.5 Q1230,214 1209,301 Q1188,388 1188,492 Q1188,598 1208.5,683.5 Q1229,769 1271.5,835.5 Q1314,902 1385.5,938.5 Q1457,975 1554,975 Q1651,975 1723,938.5 Q1795,902 1837.5,835.5 Q1880,769 1900.5,683.5 Q1921,598 1921,492 Q1921,387 1900,300 Q1879,213 1836,144.5 Q1793,76 1649,0 M1554,195 Q1688,195 1688,492 Q1688,780 1554,780 Q1421,780 1421,492 Q1421,440 1426,395 Q1431,350 1444,301 Q1457,252 1485,223.5 Q1513,195 1554,195 M751,0 L1034,1518 L1253,1518 L971,0 M539,541 Q349,541 277.5,579.5 Q206,618 163,686 Q120,754 99,841 Q78,928 78,1032 Q78,1138 98,1224 Q118,1310 160.5,1376.5 Q203,1443 275,1479.5 Q347,1516 444,1516 Q522,1516 584,1491.5 Q646,1467 688,1424 Q730,1381 758,1320 Q786,1259 798.5,1187.5 Q811,1116 811,1032 Q811,928 789.5,840.5 Q768,753 725,685 Q682,617 539,541 M444,735 Q578,735 578,1032 Q578,1321 444,1321 Q311,1321 311,1032 Q311,980 316,934.5 Q321,889 334,840.5 Q347,792 375,763.5 Q403,735 444,735"/> 
            <glyph glyph-name="&amp;" unicode="&#x26;" horiz-adv-x="1217" d=" M545,1024 Q609,1104 656.5,1229.5 Q704,1355 704,1472 Q704,1530 669,1565 Q634,1600 576,1600 Q511,1600 479.5,1543.5 Q448,1487 448,1408 Q448,1343 465,1267 Q482,1191 499,1142.5 Q516,1094 545,1024 M512,192 Q634,192 736,320 L613,503 Q600,524 568.5,564.5 Q537,605 514,639.5 Q491,674 481,704 Q437,646 410.5,561 Q384,476 384,384 Q384,300 414,246 Q444,192 512,192 M512,-18 Q334,-18 231,92 Q128,202 128,384 Q128,670 384,896 Q370,925 326,1005.5 Q282,1086 259,1134.5 Q236,1183 214,1260.5 Q192,1338 192,1408 Q192,1588 296,1699 Q400,1810 576,1810 Q741,1810 850.5,1718.5 Q960,1627 960,1472 Q960,1402 938,1330 Q916,1258 885.5,1202 Q855,1146 807,1083.5 Q759,1021 723.5,982.5 Q688,944 640,896 L896,512 Q914,552 927,612 Q940,672 944.5,705.5 Q949,739 960,832 L1216,832 Q1216,710 1169,579 Q1122,448 1057,350 Q1132,256 1216,256 L1216,-18 Q1191,-18 1168.5,-15.5 Q1146,-13 1123,-4.5 Q1100,4 1084,9.5 Q1068,15 1045.5,30.5 Q1023,46 1013,51.5 Q1003,57 980,78 Q957,99 952,103 Q947,107 922,131.5 Q897,156 896,157 Q833,77 735.5,29.5 Q638,-18 512,-18"/> 
            <glyph glyph-name="'" unicode="&#x27;" horiz-adv-x="318" d=" M126,1328 L62,1792 L318,1792 L254,1328"/> 
            <glyph glyph-name="(" unicode="&#x28;" horiz-adv-x="576" d=" M576,-64 Q496,-64 431,-42.5 Q366,-21 320.5,24.5 Q275,70 241.5,120 Q208,170 187.5,249.5 Q167,329 154,393.5 Q141,458 136,558.5 Q131,659 129.5,724.5 Q128,790 128,896 Q128,1018 129.5,1092.5 Q131,1167 140,1280.5 Q149,1394 166,1464.5 Q183,1535 215.5,1617.5 Q248,1700 295,1746.5 Q342,1793 413.5,1824.5 Q485,1856 576,1856 L576,1664 Q526,1664 489.5,1632.5 Q453,1601 432.5,1553 Q412,1505 400,1432 Q388,1359 384.5,1293 Q381,1227 381,1143 Q381,1095 382.5,1011.5 Q384,928 384,896 Q384,864 382.5,779 Q381,694 381,645 Q381,561 384.5,495.5 Q388,430 400,358 Q412,286 432.5,238 Q453,190 489.5,159 Q526,128 576,128"/> 
            <glyph glyph-name=")" unicode="&#x29;" horiz-adv-x="513" d=" M64,-64 L64,128 Q114,128 150.5,159.5 Q187,191 207.5,239 Q228,287 240,360 Q252,433 255.5,499 Q259,565 259,649 Q259,697 257.5,780.5 Q256,864 256,896 Q256,928 257.5,1013 Q259,1098 259,1147 Q259,1231 255.5,1296.5 Q252,1362 240,1434 Q228,1506 207.5,1554 Q187,1602 150.5,1633 Q114,1664 64,1664 L64,1856 Q144,1856 209,1834.5 Q274,1813 319.5,1767.5 Q365,1722 398.5,1672 Q432,1622 452.5,1542.5 Q473,1463 486,1398.5 Q499,1334 504,1233.5 Q509,1133 510.5,1067.5 Q512,1002 512,896 Q512,774 510.5,699.5 Q509,625 500,511.5 Q491,398 474,327.5 Q457,257 424.5,174.5 Q392,92 345,45.5 Q298,-1 226.5,-32.5 Q155,-64 64,-64"/> 
            <glyph glyph-name="*" unicode="&#x2A;" horiz-adv-x="854" d=" M343,904 L191,994 L363,1237 L106,1335 L167,1496 L412,1364 L384,1664 L576,1664 L547,1364 L793,1496 L854,1335 L597,1236 L769,994 L617,904 L480,1181"/> 
            <glyph glyph-name="+" unicode="&#x2B;" horiz-adv-x="640" d=" M256,384 L256,576 L64,576 L64,768 L256,768 L256,960 L448,960 L448,768 L640,768 L640,576 L448,576 L448,384"/> 
            <glyph glyph-name="," unicode="&#x2C;" horiz-adv-x="332" d=" M140,-256 L76,-128 Q145,-128 174.5,-98 Q204,-68 204,0 L76,0 L76,256 L332,256 Q332,112 329,14 Q327,-40 323,-77 Q319,-114 307,-150.5 Q295,-187 275,-208.5 Q255,-230 221.5,-243 Q188,-256 140,-256"/> 
            <glyph glyph-name="-" unicode="&#x2D;" horiz-adv-x="384" d=" M0,448 L0,640 L384,640 L384,448"/> 
            <glyph glyph-name="." unicode="&#x2E;" horiz-adv-x="320" d=" M64,0 L64,256 L320,256 L320,0"/> 
            <glyph glyph-name="/" unicode="&#x2F;" horiz-adv-x="832" d=" M0,0 L575,1792 L832,1792 L256,0"/> 
            <glyph glyph-name="0" unicode="&#x30;" horiz-adv-x="992" d=" M544,-18 Q398,-18 295.5,51 Q193,120 144.5,237.5 Q96,355 96,512 L96,1280 Q96,1527 208,1668.5 Q320,1810 544,1810 Q767,1810 879.5,1668 Q992,1526 992,1280 L992,512 Q992,271 877.5,126.5 Q763,-18 544,-18 M544,192 Q736,192 736,512 L736,1280 Q736,1334 732,1376.5 Q728,1419 715.5,1462.5 Q703,1506 682.5,1535 Q662,1564 627,1582 Q592,1600 544,1600 Q496,1600 461,1582 Q426,1564 405.5,1535 Q385,1506 372.5,1462.5 Q360,1419 356,1376.5 Q352,1334 352,1280 L352,512 Q352,449 360.5,396 Q369,343 389.5,295 Q410,247 449,219.5 Q488,192 544,192"/> 
            <glyph glyph-name="1" unicode="&#x31;" horiz-adv-x="512" d=" M256,0 L256,1408 L64,1408 L64,1600 Q257,1669 320,1792 L512,1792 L512,0"/> 
            <glyph glyph-name="2" unicode="&#x32;" horiz-adv-x="968" d=" M71,0 L71,256 L520,896 Q528,907 555,944.5 Q582,982 591,995.5 Q600,1009 622,1043.5 Q644,1078 652.5,1096.5 Q661,1115 675.5,1149 Q690,1183 696,1209.5 Q702,1236 707,1271.5 Q712,1307 712,1344 Q712,1451 662.5,1525.5 Q613,1600 520,1600 Q465,1600 426,1573 Q387,1546 366.5,1498 Q346,1450 337,1396.5 Q328,1343 328,1280 L328,1216 L72,1216 L72,1280 Q72,1532 180,1671 Q288,1810 520,1810 Q738,1810 853,1687.5 Q968,1565 968,1344 Q968,1261 953.5,1189 Q939,1117 907.5,1051 Q876,985 849.5,942 Q823,899 776,832 L328,256 L968,256 L968,0"/> 
            <glyph glyph-name="3" unicode="&#x33;" horiz-adv-x="974" d=" M526,-18 Q308,-18 193,104.5 Q78,227 78,448 L78,512 L334,512 Q334,452 337.5,409.5 Q341,367 352.5,323 Q364,279 384,252.5 Q404,226 440,209 Q476,192 526,192 Q576,192 612,209 Q648,226 668,252.5 Q688,279 699.5,323 Q711,367 714.5,409.5 Q718,452 718,512 Q718,666 658.5,749 Q599,832 462,832 L462,1088 Q602,1088 660,1145.5 Q718,1203 718,1344 Q718,1471 676,1535.5 Q634,1600 526,1600 Q476,1600 440,1583 Q404,1566 384,1539.5 Q364,1513 352.5,1469 Q341,1425 337.5,1382.5 Q334,1340 334,1280 L78,1280 L78,1344 Q78,1564 193.5,1687 Q309,1810 526,1810 Q744,1810 859,1687.5 Q974,1565 974,1344 Q974,1192 906,1094.5 Q838,997 718,960 Q843,918 908.5,803 Q974,688 974,512 Q974,260 866,121 Q758,-18 526,-18"/> 
            <glyph glyph-name="4" unicode="&#x34;" horiz-adv-x="1049" d=" M339,702 L595,702 L595,1472 M595,0 L595,460 L83,460 L83,745 L531,1793 L851,1793 L851,702 L1049,702 L1049,460 L851,460 L851,0"/> 
            <glyph glyph-name="5" unicode="&#x35;" horiz-adv-x="989" d=" M535,-18 Q296,-18 194,116.5 Q92,251 92,512 L348,512 L348,472 Q348,421 351.5,383.5 Q355,346 365.5,306.5 Q376,267 394.5,242.5 Q413,218 445,202 Q477,186 521,186 Q556,186 584.5,194.5 Q613,203 633.5,215.5 Q654,228 670,252 Q686,276 696.5,296.5 Q707,317 714,353 Q721,389 724.5,413.5 Q728,438 730,482.5 Q732,527 732,552 L732,625 L732,658 Q732,701 731,731.5 Q730,762 725.5,797.5 Q721,833 713,857 Q705,881 691,905 Q677,929 657,943 Q637,957 607.5,965.5 Q578,974 541,974 Q473,974 423,930 Q373,886 350,826 L132,826 L132,1792 L924,1792 L924,1536 L364,1536 L348,1102 Q456,1166 604,1166 Q691,1166 757.5,1139.5 Q824,1113 867,1067 Q910,1021 937.5,953 Q965,885 976.5,809 Q988,733 988,640 Q988,525 976,432 Q964,339 933,253 Q902,167 852,109 Q802,51 721.5,16.5 Q641,-18 535,-18"/> 
            <glyph glyph-name="6" unicode="&#x36;" horiz-adv-x="1009" d=" M505,192 Q615,192 654,219 Q693,246 713.5,294 Q734,342 743,395.5 Q752,449 752,512 L752,570 Q752,589 750.5,625 Q749,661 746.5,680.5 Q744,700 739.5,730 Q735,760 728,776.5 Q721,793 710.5,815.5 Q700,838 686,850 Q672,862 654,874 Q636,886 612,891 Q588,896 560,896 Q436,896 368,768 L368,512 Q368,448 377,395 Q386,342 406.5,294 Q427,246 505,192 M560,-18 Q468,-18 393,13 Q318,44 266.5,98 Q215,152 179.5,227.5 Q144,303 128,390.5 Q112,478 112,576 L112,1152 Q112,1262 125,1355.5 Q138,1449 170,1534.5 Q202,1620 252,1680 Q302,1740 380.5,1775 Q459,1810 560,1810 Q776,1810 892,1687.5 Q1008,1565 1008,1344 L752,1344 Q752,1472 710.5,1536 Q669,1600 560,1600 Q368,1600 368,1216 L368,960 Q442,1088 624,1088 Q732,1088 808.5,1050.5 Q885,1013 927.5,941.5 Q970,870 989,781 Q1008,692 1008,576 Q1008,450 983,345.5 Q958,241 906,158 Q854,75 766,28.5 Q678,-18 560,-18"/> 
            <glyph glyph-name="7" unicode="&#x37;" horiz-adv-x="762" d=" M190,0 L518,1579 L45,1579 L45,1792 L762,1792 L762,1669 L436,0"/> 
            <glyph glyph-name="8" unicode="&#x38;" horiz-adv-x="960" d=" M513,1063 Q563,1063 596.5,1086 Q630,1109 646,1152.5 Q662,1196 667.5,1240 Q673,1284 673,1344 Q673,1600 513,1600 Q351,1600 351,1344 Q351,1284 357,1239.5 Q363,1195 379,1152 Q395,1109 428.5,1086 Q462,1063 513,1063 M463,192 Q563,192 599,210 Q635,228 655,255 Q675,282 686.5,326.5 Q698,371 701,412 Q704,453 704,511 Q704,575 696,625.5 Q688,676 668,722 Q648,768 609,793 Q570,818 513,818 Q456,818 416.5,793 Q377,768 356.5,722.5 Q336,677 328,626.5 Q320,576 320,511 Q320,453 323.5,411.5 Q327,370 338.5,325.5 Q350,281 370.5,254 Q391,227 463,192 M513,-18 Q277,-18 170.5,118.5 Q64,255 64,511 Q64,678 110,779.5 Q156,881 258,946 Q172,1011 131,1106 Q90,1201 90,1344 Q90,1566 196,1688 Q302,1810 513,1810 Q723,1810 828.5,1687.5 Q934,1565 934,1344 Q934,1200 893.5,1105.5 Q853,1011 767,946 Q868,880 914,778 Q960,676 960,511 Q960,255 854,118.5 Q748,-18 513,-18"/> 
            <glyph glyph-name="9" unicode="&#x39;" horiz-adv-x="988" d=" M540,896 Q662,896 732,1024 L732,1280 Q732,1344 723,1397 Q714,1450 693.5,1498 Q673,1546 634,1573 Q595,1600 540,1600 Q485,1600 446,1573 Q407,1546 386.5,1498 Q366,1450 357,1396.5 Q348,1343 348,1280 L348,1222 Q348,1203 349.5,1167 Q351,1131 353.5,1111.5 Q356,1092 360.5,1062 Q365,1032 372,1015.5 Q379,999 389.5,976.5 Q400,954 414,942 Q428,930 446,918 Q464,906 488,901 Q512,896 540,896 M540,-18 Q324,-18 208,104.5 Q92,227 92,448 L348,448 Q348,320 389.5,256 Q431,192 540,192 Q732,192 732,576 L732,832 Q656,704 476,704 Q368,704 291.5,741.5 Q215,779 172.5,850.5 Q130,922 111,1011 Q92,1100 92,1216 Q92,1342 117,1446.5 Q142,1551 194,1634 Q246,1717 334,1763.5 Q422,1810 540,1810 Q632,1810 707,1779 Q782,1748 833.5,1694 Q885,1640 920.5,1564.5 Q956,1489 972,1401.5 Q988,1314 988,1216 L988,640 Q988,530 975,436.5 Q962,343 930,257.5 Q898,172 848,112 Q798,52 719.5,17 Q641,-18 540,-18"/> 
            <glyph glyph-name=":" unicode="&#x3A;" horiz-adv-x="384" d=" M128,832 L128,1088 L384,1088 L384,832 M128,256 L128,512 L384,512 L384,256"/> 
            <glyph glyph-name=";" unicode="&#x3B;" horiz-adv-x="320" d=" M64,832 L64,1088 L320,1088 L320,832 M128,0 L64,128 Q133,128 162.5,158 Q192,188 192,256 L64,256 L64,512 L320,512 Q320,368 317,270 Q315,216 311,179 Q307,142 295,105.5 Q283,69 263,47.5 Q243,26 209.5,13 Q176,0 128,0"/> 
            <glyph glyph-name="&lt;" unicode="&#x3C;" horiz-adv-x="704" d=" M704,64 L64,512 L64,768 L704,1216 L704,960 L256,641 L704,320"/> 
            <glyph glyph-name="=" unicode="&#x3D;" horiz-adv-x="640" d=" M64,576 L64,768 L640,768 L640,576 M64,255 L64,447 L640,447 L640,255"/> 
            <glyph glyph-name="&gt;" unicode="&#x3E;" horiz-adv-x="768" d=" M128,64 L128,320 L576,641 L128,960 L128,1216 L768,768 L768,512"/> 
            <glyph glyph-name="?" unicode="&#x3F;" horiz-adv-x="1025" d=" M384,0 L384,256 L640,256 L640,0 M384,384 L384,704 Q447,742 493.5,774 Q540,806 595.5,855.5 Q651,905 685.5,955 Q720,1005 744,1073 Q768,1141 768,1216 Q768,1408 576,1408 Q468,1408 426,1343.5 Q384,1279 384,1152 L128,1152 L128,1216 Q128,1435 243.5,1549.5 Q359,1664 576,1664 Q795,1664 910,1548.5 Q1025,1433 1025,1216 Q1025,1004 923.5,865.5 Q822,727 640,640 L640,384"/> 
            <glyph glyph-name="@" unicode="&#x40;" horiz-adv-x="1655" d=" M884,502 Q953,502 958,542 L958,945 Q951,996 904,996 Q884,996 867,992 Q850,988 837,977.5 Q824,967 814,957.5 Q804,948 796.5,929 Q789,910 784,897.5 Q779,885 776,859.5 Q773,834 771.5,820.5 Q770,807 769,777.5 Q768,748 768,736 L768,693 Q768,502 884,502 M958,-128 Q524,-128 326,93.5 Q128,315 128,768 Q128,1140 331,1356 Q534,1572 896,1572 Q1267,1572 1460.5,1360.5 Q1654,1149 1654,768 Q1654,667 1632,581.5 Q1610,496 1566,431 Q1522,366 1450.5,329 Q1379,292 1286,292 Q1190,292 1118.5,326 Q1047,360 1011,420 Q954,292 840,292 Q734,292 658.5,348 Q583,404 547.5,493 Q512,582 512,693 Q512,770 521,839.5 Q530,909 552.5,975.5 Q575,1042 609,1090 Q643,1138 696,1167.5 Q749,1197 816,1197 Q882,1197 918.5,1160.5 Q955,1124 958,1061 L958,1188 L1214,1188 L1214,620 Q1214,582 1217,560 Q1220,538 1236,520 Q1252,502 1282,502 Q1398,502 1398,768 Q1398,916 1372,1025.5 Q1346,1135 1288,1216.5 Q1230,1298 1132,1339 Q1034,1380 896,1380 Q767,1380 668,1335 Q569,1290 507.5,1208 Q446,1126 415,1015 Q384,904 384,768 Q384,596 413,470.5 Q442,345 507,251.5 Q572,158 684.5,111 Q797,64 958,64 Q1083,64 1254,119 L1348,-77 Q1125,-128 958,-128"/> 
            <glyph glyph-name="A" unicode="&#x41;" horiz-adv-x="1040" d=" M400,640 L656,640 L528,1408 M16,0 L400,1792 L656,1792 L1040,0 L784,0 L688,448 L368,448 L272,0"/> 
            <glyph glyph-name="B" unicode="&#x42;" horiz-adv-x="1088" d=" M384,1024 L512,1024 Q832,1024 832,1344 Q832,1397 819,1437.5 Q806,1478 788,1505 Q770,1532 733.5,1550.5 Q697,1569 667,1579 Q637,1589 581.5,1593.5 Q526,1598 489,1599 Q452,1600 384,1600 M384,192 L512,192 Q678,192 755,268.5 Q832,345 832,512 Q832,679 755,755.5 Q678,832 512,832 L384,832 M128,0 L128,1792 L512,1792 Q636,1792 734,1766 Q832,1740 905.5,1687 Q979,1634 1018.5,1547 Q1058,1460 1058,1344 Q1058,1176 987,1088.5 Q916,1001 768,960 Q928,907 1008,804.5 Q1088,702 1088,512 Q1088,275 950.5,137.5 Q813,0 576,0"/> 
            <glyph glyph-name="C" unicode="&#x43;" horiz-adv-x="1065" d=" M588,-18 Q475,-18 389,14 Q303,46 248,102.5 Q193,159 158.5,243.5 Q124,328 110,424 Q96,520 96,641 L96,1152 Q96,1273 110,1369 Q124,1465 158.5,1549.5 Q193,1634 248,1690 Q303,1746 389,1778 Q475,1810 588,1810 Q713,1810 804,1773 Q895,1736 949.5,1664 Q1004,1592 1031.5,1497 Q1059,1402 1064,1275 Q1065,1256 1065,1216 L809,1216 L809,1273 Q808,1326 805,1363.5 Q802,1401 794,1441 Q786,1481 770.5,1507.5 Q755,1534 731.5,1556.5 Q708,1579 672,1589.5 Q636,1600 588,1600 Q526,1600 481.5,1580 Q437,1560 412,1528.5 Q387,1497 373.5,1444 Q360,1391 356,1340.5 Q352,1290 352,1216 L352,576 Q352,512 357.5,460 Q363,408 379,356.5 Q395,305 420.5,270 Q446,235 488.5,213.5 Q531,192 588,192 Q645,192 686,214 Q727,236 750.5,270 Q774,304 787.5,357 Q801,410 805,460 Q809,510 809,576 L809,640 L1065,640 L1065,576 Q1065,437 1040.5,332 Q1016,227 961.5,146.5 Q907,66 813.5,24 Q720,-18 588,-18"/> 
            <glyph glyph-name="D" unicode="&#x44;" horiz-adv-x="1037" d=" M128,0 L128,1792 L525,1792 Q806,1792 921.5,1677 Q1037,1562 1037,1280 L1037,576 Q1037,281 919.5,140.5 Q802,0 523,0 M384,192 L525,192 Q588,192 633,203.5 Q678,215 706,245.5 Q734,276 750,303.5 Q766,331 772.5,389 Q779,447 780,484.5 Q781,522 781,601 L781,640 L781,1216 Q781,1265 780.5,1294 Q780,1323 777.5,1362.5 Q775,1402 770,1425 Q765,1448 756,1476.5 Q747,1505 733.5,1521 Q720,1537 700.5,1554.5 Q681,1572 655.5,1580.5 Q630,1589 596,1594.5 Q562,1600 520,1600 L384,1600"/> 
            <glyph glyph-name="E" unicode="&#x45;" horiz-adv-x="832" d=" M128,0 L128,1792 L832,1792 L832,1600 L384,1600 L384,1024 L704,1024 L704,832 L384,832 L384,192 L832,192 L832,0"/> 
            <glyph glyph-name="F" unicode="&#x46;" horiz-adv-x="832" d=" M128,0 L128,1792 L832,1792 L832,1600 L384,1600 L384,1024 L704,1024 L704,832 L384,832 L384,0"/> 
            <glyph glyph-name="G" unicode="&#x47;" horiz-adv-x="1120" d=" M608,-18 Q485,-18 394.5,17 Q304,52 247,112 Q190,172 156,265 Q122,358 109,461 Q96,564 96,698 L96,1152 Q96,1810 618,1810 Q743,1810 835,1772.5 Q927,1735 984,1663 Q1041,1591 1070,1494.5 Q1099,1398 1104,1271 Q1105,1253 1105,1216 L849,1216 L849,1270 Q848,1333 842.5,1378.5 Q837,1424 822.5,1468 Q808,1512 783,1539.5 Q758,1567 716.5,1583.5 Q675,1600 618,1600 Q540,1600 486.5,1571.5 Q433,1543 404.5,1488.5 Q376,1434 364,1368.5 Q352,1303 352,1216 L352,640 Q352,576 356,524.5 Q360,473 369.5,419.5 Q379,366 397.5,327 Q416,288 443.5,256.5 Q471,225 512.5,208.5 Q554,192 608,192 Q672,192 719,217 Q766,242 793.5,281.5 Q821,321 837,382 Q853,443 858.5,503 Q864,563 864,640 L864,704 L608,704 L608,894 L1120,894 L1120,0 L928,0 L864,192 Q789,-18 608,-18"/> 
            <glyph glyph-name="H" unicode="&#x48;" horiz-adv-x="1088" d=" M128,0 L128,1792 L384,1792 L384,1024 L832,1024 L832,1792 L1088,1792 L1088,0 L832,0 L832,832 L384,832 L384,0"/> 
            <glyph glyph-name="I" unicode="&#x49;" horiz-adv-x="396" d=" M140,0 L140,1792 L396,1792 L396,0"/> 
            <glyph glyph-name="J" unicode="&#x4A;" horiz-adv-x="512" d=" M0,0 L0,192 Q83,192 129.5,201 Q176,210 206,239.5 Q236,269 246,316.5 Q256,364 256,448 L256,1792 L512,1792 L512,448 Q512,326 496,246.5 Q480,167 437.5,109 Q395,51 319.5,25.5 Q244,0 128,0"/> 
            <glyph glyph-name="K" unicode="&#x4B;" horiz-adv-x="1152" d=" M128,0 L128,1792 L384,1792 L384,1024 L768,1792 L1088,1792 L703,1088 L1152,0 L832,0 L512,832 L384,576 L384,0"/> 
            <glyph glyph-name="L" unicode="&#x4C;" horiz-adv-x="832" d=" M128,0 L128,1792 L384,1792 L384,192 L832,192 L832,0"/> 
            <glyph glyph-name="M" unicode="&#x4D;" horiz-adv-x="1344" d=" M128,0 L128,1792 L482,1792 L736,420 L990,1792 L1344,1792 L1344,0 L1088,0 L1088,1414 L832,0 L640,0 L384,1414 L384,0"/> 
            <glyph glyph-name="N" unicode="&#x4E;" horiz-adv-x="1024" d=" M128,0 L128,1792 L320,1792 L768,684 L768,1792 L1024,1792 L1024,0 L842,0 L384,1192 L384,0"/> 
            <glyph glyph-name="O" unicode="&#x4F;" horiz-adv-x="1084" d=" M590,-18 Q455,-18 358.5,23 Q262,64 205,143 Q148,222 122,328.5 Q96,435 96,576 L96,1226 Q96,1367 122,1472 Q148,1577 205,1654.5 Q262,1732 358.5,1771 Q455,1810 590,1810 Q852,1810 968,1660 Q1084,1510 1084,1226 L1084,576 Q1084,437 1057.5,330.5 Q1031,224 974,144.5 Q917,65 820.5,23.5 Q724,-18 590,-18 M455,192 Q725,192 776.5,273 Q828,354 828,512 L828,1290 Q828,1446 777,1523 Q726,1600 590,1600 Q454,1600 403,1523 Q352,1446 352,1290 L352,512 Q352,354 455,192"/> 
            <glyph glyph-name="P" unicode="&#x50;" horiz-adv-x="1025" d=" M384,1024 L448,1024 Q535,1024 590.5,1034 Q646,1044 688.5,1071.5 Q731,1099 749.5,1150 Q768,1201 768,1280 Q768,1376 754,1435.5 Q740,1495 702.5,1533 Q665,1571 605.5,1585.5 Q546,1600 448,1600 L384,1600 M128,0 L128,1792 L576,1792 Q1024,1792 1024,1280 Q1024,1061 908.5,946.5 Q793,832 576,832 L384,832 L384,0"/> 
            <glyph glyph-name="Q" unicode="&#x51;" horiz-adv-x="1084" d=" M455,192 Q725,192 776.5,273 Q828,354 828,512 L828,1290 Q828,1446 777,1523 Q726,1600 590,1600 Q454,1600 403,1523 Q352,1446 352,1290 L352,512 Q352,354 455,192 M1063,-256 Q954,-256 846.5,-180 Q739,-104 690,-11 Q647,-18 590,-18 Q455,-18 358.5,23 Q262,64 205,143 Q148,222 122,328.5 Q96,435 96,576 L96,1226 Q96,1367 122,1472 Q148,1577 205,1654.5 Q262,1732 358.5,1771 Q455,1810 590,1810 Q852,1810 968,1660 Q1084,1510 1084,1226 L1084,576 Q1084,180 869,49 Q898,7 956.5,-19.5 Q1015,-46 1063,-46"/> 
            <glyph glyph-name="R" unicode="&#x52;" horiz-adv-x="1088" d=" M384,1024 L448,1024 Q608,1024 688,1091.5 Q768,1159 768,1312 Q768,1465 688,1532.5 Q608,1600 448,1600 L384,1600 M128,0 L128,1792 L448,1792 Q734,1792 879,1681 Q1024,1570 1024,1312 Q1024,1152 967,1044 Q910,936 800,896 L1088,0 L834,0 L576,832 L384,832 L384,0"/> 
            <glyph glyph-name="S" unicode="&#x53;" horiz-adv-x="1044" d=" M595,-18 Q353,-18 225.5,124 Q98,266 83,512 L339,576 Q358,192 595,192 Q787,192 787,384 Q787,441 771.5,489.5 Q756,538 724,578.5 Q692,619 666,643.5 Q640,668 595,704 L275,960 Q187,1029 134.5,1135.5 Q82,1242 82,1378 Q82,1576 205,1693 Q328,1810 531,1810 Q749,1810 877.5,1703.5 Q1006,1597 1036,1402 Q1039,1381 1043,1344 L787,1280 Q786,1297 782,1331 Q765,1453 705.5,1526.5 Q646,1600 531,1600 Q439,1600 389,1548.5 Q339,1497 339,1405 Q339,1254 467,1152 L787,896 Q1043,689 1043,401 Q1043,204 921.5,93 Q800,-18 595,-18"/> 
            <glyph glyph-name="T" unicode="&#x54;" horiz-adv-x="895" d=" M319,0 L319,1564 L-1,1564 L-1,1792 L895,1792 L895,1564 L575,1564 L575,0"/> 
            <glyph glyph-name="U" unicode="&#x55;" horiz-adv-x="1138" d=" M743,-19 Q509,-19 420,12 Q331,43 273.5,98.5 Q216,154 180,238 Q144,322 129,419.5 Q114,517 114,640 L114,1792 L370,1792 L370,640 Q370,557 373.5,501 Q377,445 392,381.5 Q407,318 433.5,280 Q460,242 508.5,217 Q557,192 626,192 Q695,192 743.5,217 Q792,242 818.5,280 Q845,318 860,381.5 Q875,445 878.5,501 Q882,557 882,640 L882,1792 L1138,1792 L1138,640 Q1138,517 1123,419.5 Q1108,322 1072,238 Q1036,154 978.5,98.5 Q921,43 743,-19"/> 
            <glyph glyph-name="V" unicode="&#x56;" horiz-adv-x="1036" d=" M396,0 L12,1792 L268,1792 L457,832 L523,384 L591,832 L780,1792 L1036,1792 L652,0"/> 
            <glyph glyph-name="W" unicode="&#x57;" horiz-adv-x="1547" d=" M331,0 L11,1792 L267,1792 L395,960 L460,448 L523,960 L651,1792 L907,1792 L1035,960 L1098,448 L1163,960 L1291,1792 L1547,1792 L1227,0 L971,0 L843,832 L779,1344 L715,832 L587,0"/> 
            <glyph glyph-name="X" unicode="&#x58;" horiz-adv-x="1047" d=" M25,0 L343,929 L23,1792 L279,1792 L535,1088 L791,1792 L1047,1792 L727,933 L1043,0 L789,0 L535,768 L281,0"/> 
            <glyph glyph-name="Y" unicode="&#x59;" horiz-adv-x="1021" d=" M381,0 L381,576 L-3,1792 L253,1792 L509,896 L765,1792 L1021,1792 L637,576 L637,0"/> 
            <glyph glyph-name="Z" unicode="&#x5A;" horiz-adv-x="894" d=" M62,0 L62,192 L638,1600 L126,1600 L126,1792 L894,1792 L894,1600 L318,192 L894,192 L894,0"/> 
            <glyph glyph-name="[" unicode="&#x5B;" horiz-adv-x="640" d=" M128,-64 L128,1856 L640,1856 L640,1728 L384,1728 L384,64 L640,64 L640,-64"/> 
            <glyph glyph-name="\" unicode="&#x5C;" horiz-adv-x="512" d=" M256,0 L64,1792 L320,1792 L512,0"/> 
            <glyph glyph-name="]" unicode="&#x5D;" horiz-adv-x="640" d=" M128,-64 L128,64 L384,64 L384,1728 L128,1728 L128,1856 L640,1856 L640,-64"/> 
            <glyph glyph-name="^" unicode="&#x5E;" horiz-adv-x="832" d=" M64,896 L320,1536 L576,1536 L832,896 L576,896 L447,1344 L320,896"/> 
            <glyph glyph-name="_" unicode="&#x5F;" horiz-adv-x="768" d=" M0,0 L0,192 L768,192 L768,0"/> 
            <glyph glyph-name="`" unicode="&#x60;" horiz-adv-x="512" d=" M384,1408 L128,1792 L384,1792 L512,1408"/> 
            <glyph glyph-name="a" unicode="&#x61;" horiz-adv-x="886" d=" M468,192 Q495,192 520.5,208 Q546,224 559,239 Q572,254 591,279 Q594,284 596,286 L596,640 Q580,629 543,606 Q506,583 484,568.5 Q462,554 431,528.5 Q400,503 383,479.5 Q366,456 353,422 Q340,388 340,351 Q340,192 468,192 M340,-18 Q233,-18 158.5,74.5 Q84,167 84,283 Q84,376 115.5,452 Q147,528 182,573.5 Q217,619 299,667.5 Q381,716 423,734 Q465,752 569,793 Q587,800 596,804 L596,896 Q596,993 569,1046.5 Q542,1100 468,1100 Q402,1100 373.5,1054.5 Q345,1009 341,929 Q340,918 340,896 L84,896 Q86,1080 187,1189 Q288,1298 468,1298 Q647,1298 749.5,1187.5 Q852,1077 852,896 L852,320 Q852,120 885,0 L630,0 L596,192 Q576,152 563.5,130 Q551,108 527,75.5 Q503,43 479,25.5 Q455,8 419,-5 Q383,-18 340,-18"/> 
            <glyph glyph-name="b" unicode="&#x62;" horiz-adv-x="949" d=" M565,192 Q606,192 633.5,222 Q661,252 673.5,307.5 Q686,363 690.5,418 Q695,473 695,546 Q695,600 694.5,689 Q694,778 694,823 Q694,868 692,901.5 Q690,935 682,972 Q674,1009 660.5,1033 Q647,1057 623,1072.5 Q599,1088 565,1088 Q459,1088 373,1037 L373,232 Q472,192 565,192 M629,-18 Q551,-18 491,19 Q431,56 373,116 L373,0 L117,0 L117,1791 L373,1791 L373,1153 Q409,1191 427,1208 Q445,1225 479.5,1251 Q514,1277 551,1287.5 Q588,1298 633,1298 Q698,1298 749,1274.5 Q800,1251 833,1218 Q866,1185 889,1123 Q912,1061 923.5,1011 Q935,961 941,876 Q947,791 948,738.5 Q949,686 949,594 L949,577 Q949,493 940.5,415 Q932,337 909.5,256 Q887,175 852.5,116 Q818,57 760.5,19.5 Q703,-18 629,-18"/> 
            <glyph glyph-name="c" unicode="&#x63;" horiz-adv-x="822" d=" M437,-18 Q344,-18 275.5,13 Q207,44 166,94 Q125,144 100,221.5 Q75,299 65.5,376.5 Q56,454 54,557 Q51,640 54,724 Q56,826 65.5,904 Q75,982 100.5,1059.5 Q126,1137 166.5,1186.5 Q207,1236 275.5,1267 Q344,1298 437,1298 Q639,1298 727,1189 Q815,1080 821,866 L821,832 L565,832 L565,868 Q564,916 558.5,952 Q553,988 540.5,1024 Q528,1060 501.5,1079.5 Q475,1099 437,1099 Q399,1099 373,1076.5 Q347,1054 333.5,1012 Q320,970 314,925.5 Q308,881 307,823 Q303,699 307,449 Q309,394 315,352.5 Q321,311 334.5,272.5 Q348,234 374,213 Q400,192 437,192 Q471,192 495.5,205 Q520,218 533,237 Q546,256 553.5,288 Q561,320 563,347.5 Q565,375 565,417 L565,448 L821,448 L821,415 Q818,314 796,236.5 Q774,159 729.5,101 Q685,43 611.5,12.5 Q538,-18 437,-18"/> 
            <glyph glyph-name="d" unicode="&#x64;" horiz-adv-x="928" d=" M480,192 Q573,192 672,232 L672,1037 Q586,1088 480,1088 Q442,1088 416,1069.5 Q390,1051 377,1015.5 Q364,980 358,942.5 Q352,905 351,854 Q347,630 351,499 Q352,435 358,385 Q364,335 377.5,288.5 Q391,242 417,217 Q443,192 480,192 M416,-18 Q331,-18 267.5,30 Q204,78 169.5,160 Q135,242 118,330.5 Q101,419 97,521 Q95,568 97,751 Q99,817 103,870.5 Q107,924 116.5,982 Q126,1040 140.5,1084.5 Q155,1129 179,1170.5 Q203,1212 235,1239 Q267,1266 312,1282 Q357,1298 412,1298 Q455,1298 492.5,1286.5 Q530,1275 564,1250.5 Q598,1226 618.5,1207 Q639,1188 672,1153 L672,1791 L928,1791 L928,0 L672,0 L672,116 Q614,56 554,19 Q494,-18 416,-18"/> 
            <glyph glyph-name="e" unicode="&#x65;" horiz-adv-x="865" d=" M479,-18 Q386,-18 317.5,14 Q249,46 208.5,97.5 Q168,149 143,229.5 Q118,310 108.5,390.5 Q99,471 97,578 Q94,662 97,746 Q100,846 110.5,923.5 Q121,1001 147,1074 Q173,1147 214.5,1194 Q256,1241 323.5,1269.5 Q391,1298 481,1298 Q563,1298 625.5,1276.5 Q688,1255 729.5,1211.5 Q771,1168 798.5,1115 Q826,1062 840,986.5 Q854,911 859.5,838 Q865,765 865,670 L865,640 L353,640 L353,576 L353,535 Q351,498 352.5,458.5 Q354,419 356,381 Q358,343 367,308.5 Q376,274 389,248 Q402,222 425.5,207 Q449,192 481,192 Q521,192 547,207.5 Q573,223 585.5,254 Q598,285 603,316 Q608,347 609,394 L609,448 L863,448 L863,397 Q854,192 762,87 Q670,-18 479,-18 M353,768 L607,768 L607,845 Q606,896 601,934 Q596,972 583.5,1010 Q571,1048 545,1068 Q519,1088 481,1088 Q442,1088 415.5,1067 Q389,1046 376.5,1006.5 Q364,967 359,929 Q354,891 353,838"/> 
            <glyph glyph-name="f" unicode="&#x66;" horiz-adv-x="633" d=" M184,0 L184,1088 L56,1088 L56,1280 L184,1280 L184,1329 Q184,1410 190,1466.5 Q196,1523 214.5,1575.5 Q233,1628 264.5,1659.5 Q296,1691 348.5,1709.5 Q401,1728 474,1728 Q536,1728 632,1716 L632,1526 Q622,1527 591,1531.5 Q560,1536 546,1536 Q482,1536 461,1495.5 Q440,1455 440,1376 L440,1280 L632,1280 L632,1088 L440,1088 L440,0"/> 
            <glyph glyph-name="g" unicode="&#x67;" horiz-adv-x="970" d=" M298,560 Q618,560 618,832 Q618,887 611,933.5 Q604,980 587,1024.5 Q570,1069 537,1094.5 Q504,1120 458,1120 Q411,1120 378,1094.5 Q345,1069 328.5,1024.5 Q312,980 305,933.5 Q298,887 298,832 M522,-194 Q549,-194 570.5,-193 Q592,-192 620,-189 Q648,-186 668.5,-179.5 Q689,-173 707.5,-163 Q726,-153 736,-136.5 Q746,-120 746,-99 Q746,8 541,32 L330,57 Q291,29 263.5,-24 Q236,-77 236,-135 Q236,-151 247,-162.5 Q258,-174 279.5,-180 Q301,-186 323.5,-190 Q346,-194 377,-195 Q408,-196 430,-196 Q452,-196 481.5,-195 Q511,-194 522,-194 M522,-383 Q474,-383 444,-382.5 Q414,-382 362,-380 Q310,-378 275,-372.5 Q240,-367 195,-358.5 Q150,-350 120.5,-336 Q91,-322 64,-303 Q37,-284 23.5,-256.5 Q10,-229 10,-195 Q10,-95 63.5,-24 Q117,47 202,89 Q150,103 112,131.5 Q74,160 74,201 Q74,218 78,237 Q82,256 87,271.5 Q92,287 103,307 Q114,327 120.5,338.5 Q127,350 142,370.5 Q157,391 162.5,398.5 Q168,406 184,425.5 Q200,445 202,448 Q74,600 74,832 Q74,965 116,1069 Q158,1173 246.5,1235.5 Q335,1298 458,1298 Q529,1298 582,1278 Q635,1258 668.5,1227.5 Q702,1197 734,1147 Q810,1288 950,1297 L956,1297 L963,1297 L970,1297 L970,1088 L954,1088 Q911,1088 889,1087 Q867,1086 840,1078.5 Q813,1071 797,1055 Q815,1016 828.5,951.5 Q842,887 842,832 Q842,698 801.5,595 Q761,492 672.5,430 Q584,368 458,368 L329,383 Q327,378 319,365.5 Q311,353 306.5,345 Q302,337 298,324.5 Q294,312 294,301 Q294,275 319,257 Q344,239 388,230.5 Q432,222 472.5,218 Q513,214 563,211.5 Q613,209 632,206 Q689,198 733.5,187.5 Q778,177 824.5,157 Q871,137 901,109 Q931,81 950.5,37 Q970,-7 970,-64 Q970,-134 945.5,-189 Q921,-244 880,-280 Q839,-316 781,-339.5 Q723,-363 659,-373 Q595,-383 522,-383"/> 
            <glyph glyph-name="h" unicode="&#x68;" horiz-adv-x="885" d=" M117,0 L117,1792 L373,1792 L373,1142 Q430,1194 466,1221.5 Q502,1249 565.5,1273.5 Q629,1298 701,1298 Q783,1298 834,1238 Q885,1178 885,1091 L885,0 L629,0 L629,960 Q629,1026 612.5,1057 Q596,1088 541,1088 Q463,1088 373,1013 L373,0"/> 
            <glyph glyph-name="i" unicode="&#x69;" horiz-adv-x="384" d=" M128,1472 L128,1728 L384,1728 L384,1472 M128,0 L128,1280 L384,1280 L384,0"/> 
            <glyph glyph-name="j" unicode="&#x6A;" horiz-adv-x="406" d=" M150,1472 L150,1728 L406,1728 L406,1472 M86,-320 Q2,-320 -42,-303 L-42,-121 Q-7,-128 22,-128 Q150,-128 150,21 L150,1280 L406,1280 L406,-7 Q406,-155 320.5,-237.5 Q235,-320 86,-320"/> 
            <glyph glyph-name="k" unicode="&#x6B;" horiz-adv-x="949" d=" M117,0 L117,1792 L373,1792 L373,807 L693,1280 L949,1280 L662,833 L949,0 L693,0 L501,619 L373,448 L373,0"/> 
            <glyph glyph-name="l" unicode="&#x6C;" horiz-adv-x="374" d=" M118,0 L118,1792 L374,1792 L374,0"/> 
            <glyph glyph-name="m" unicode="&#x6D;" horiz-adv-x="1397" d=" M117,0 L117,1280 L373,1280 L373,1135 Q510,1298 692,1298 Q784,1298 827,1257.5 Q870,1217 885,1129 Q948,1212 1021,1255 Q1094,1298 1205,1298 Q1237,1298 1262.5,1291.5 Q1288,1285 1307,1276 Q1326,1267 1340.5,1248.5 Q1355,1230 1364.5,1214.5 Q1374,1199 1380.5,1170 Q1387,1141 1390,1122 Q1393,1103 1395,1066 Q1397,1029 1397,1008 L1397,945 L1397,931 L1397,0 L1141,0 L1141,934 L1141,950 Q1141,983 1140,1001 Q1139,1019 1133.5,1042.5 Q1128,1066 1114,1077 Q1100,1088 1077,1088 Q1038,1088 999,1072.5 Q960,1057 938.5,1042.5 Q917,1028 885,1002 L885,0 L629,0 L629,929 L629,947 L629,989 Q629,1003 625.5,1025.5 Q622,1048 616,1059 Q610,1070 597,1079 Q584,1088 565,1088 Q471,1088 373,1007 L373,0"/> 
            <glyph glyph-name="n" unicode="&#x6E;" horiz-adv-x="886" d=" M117,0 L117,1280 L373,1280 L373,1142 Q430,1194 466,1221.5 Q502,1249 565.5,1273.5 Q629,1298 701,1298 Q783,1298 834,1238 Q885,1178 885,1091 L885,0 L629,0 L629,960 Q629,1027 610,1057.5 Q591,1088 533,1088 Q500,1088 467.5,1074.5 Q435,1061 419,1049.5 Q403,1038 373,1013 L373,0"/> 
            <glyph glyph-name="o" unicode="&#x6F;" horiz-adv-x="861" d=" M683,-18 Q271,-18 182,102 Q93,222 93,448 L93,832 Q93,1058 182,1178 Q271,1298 477,1298 Q683,1298 772,1178 Q861,1058 861,832 L861,448 Q861,222 683,-18 M450,192 Q504,192 524.5,200 Q545,208 558.5,219.5 Q572,231 581,253.5 Q590,276 595,293 Q600,310 602,342 Q604,374 604.5,392.5 Q605,411 605,448 L605,832 Q605,869 604.5,887.5 Q604,906 602,938 Q600,970 595,987 Q590,1004 581,1026.5 Q572,1049 558.5,1060.5 Q545,1072 524.5,1080 Q504,1088 477,1088 Q450,1088 429.5,1080 Q409,1072 395.5,1060.5 Q382,1049 373,1026.5 Q364,1004 359,987 Q354,970 352,938 Q350,906 349.5,887.5 Q349,869 349,832 L349,448 Q349,411 349.5,392.5 Q350,374 352,342 Q354,310 359,293 Q364,276 373,253.5 Q382,231 395.5,219.5 Q409,208 450,192"/> 
            <glyph glyph-name="p" unicode="&#x70;" horiz-adv-x="949" d=" M565,192 Q606,192 633.5,222 Q661,252 673.5,307.5 Q686,363 690.5,417.5 Q695,472 695,545 L693,714 Q693,759 692.5,786.5 Q692,814 689,859.5 Q686,905 680.5,934 Q675,963 664,998 Q653,1033 637.5,1053 Q622,1073 597.5,1087 Q573,1101 542,1101 Q527,1101 513.5,1099 Q500,1097 485.5,1092.5 Q471,1088 461.5,1084.5 Q452,1081 437,1073 Q422,1065 415.5,1061.5 Q409,1058 393,1048 Q377,1038 373,1036 L373,244 Q461,192 565,192 M117,-384 L117,1280 L373,1280 L373,1152 Q404,1185 416,1197 Q428,1209 457.5,1234 Q487,1259 508.5,1269 Q530,1279 563.5,1288.5 Q597,1298 633,1298 Q698,1298 749,1274.5 Q800,1251 833,1218 Q866,1185 889,1123.5 Q912,1062 923.5,1012 Q935,962 941,877 Q947,792 948,739.5 Q949,687 949,595 L949,576 Q949,492 940.5,414 Q932,336 909.5,255.5 Q887,175 852.5,116 Q818,57 760.5,19.5 Q703,-18 629,-18 Q499,-18 373,115 L373,-384"/> 
            <glyph glyph-name="q" unicode="&#x71;" horiz-adv-x="924" d=" M476,192 Q577,192 668,244 L668,1036 Q664,1038 648,1048 Q632,1058 625.5,1061.5 Q619,1065 604,1073 Q589,1081 579.5,1084.5 Q570,1088 555.5,1092.5 Q541,1097 527.5,1099 Q514,1101 499,1101 Q467,1101 442.5,1086.5 Q418,1072 402,1052 Q386,1032 374.5,995 Q363,958 358,929.5 Q353,901 350,853.5 Q347,806 346.5,780 Q346,754 346,707 L346,704 L346,649 L346,576 L346,510 Q347,443 352.5,392.5 Q358,342 371.5,293.5 Q385,245 411.5,218.5 Q438,192 476,192 M668,-384 L668,115 Q611,56 550.5,19 Q490,-18 412,-18 Q338,-18 280.5,19.5 Q223,57 188.5,116 Q154,175 131.5,255.5 Q109,336 100.5,414 Q92,492 92,576 L92,771 Q92,858 100,930 Q108,1002 129,1072 Q150,1142 184.5,1190.5 Q219,1239 276,1268.5 Q333,1298 408,1298 Q451,1298 488.5,1286.5 Q526,1275 560.5,1250 Q595,1225 614.5,1206.5 Q634,1188 668,1152 L668,1280 L924,1280 L924,-384"/> 
            <glyph glyph-name="r" unicode="&#x72;" horiz-adv-x="693" d=" M117,0 L117,1280 L373,1280 L373,1109 Q412,1185 486.5,1241.5 Q561,1298 652,1298 Q655,1298 693,1294 L693,1011 Q622,1039 551,1039 Q471,1039 422,991 Q373,943 373,864 L373,0"/> 
            <glyph glyph-name="s" unicode="&#x73;" horiz-adv-x="838" d=" M453,-18 Q295,-18 199.5,76 Q104,170 69,320 L261,384 Q330,192 453,192 Q514,192 547.5,225.5 Q581,259 581,320 Q581,409 517,468 L261,660 Q218,689 189,714.5 Q160,740 130,777 Q100,814 84.5,860 Q69,906 69,960 Q69,1124 173.5,1211 Q278,1298 453,1298 Q536,1298 603,1271.5 Q670,1245 715.5,1197 Q761,1149 790.5,1090.5 Q820,1032 837,960 L645,896 Q631,934 617,961.5 Q603,989 579.5,1021 Q556,1053 524,1070.5 Q492,1088 453,1088 Q392,1088 358.5,1054.5 Q325,1021 325,960 Q325,900 389,852 L645,660 Q688,626 718.5,594.5 Q749,563 778,521.5 Q807,480 822,429 Q837,378 837,320 Q837,156 732.5,69 Q628,-18 453,-18"/> 
            <glyph glyph-name="t" unicode="&#x74;" horiz-adv-x="630" d=" M472,-18 Q321,-18 252.5,59 Q184,136 182,292 L182,1088 L54,1088 L54,1280 L182,1280 L182,1728 L438,1728 L438,1280 L630,1280 L630,1088 L438,1088 L438,341 Q438,264 459,228 Q480,192 544,192 Q572,192 630,202 L630,-6 Q534,-18 472,-18"/> 
            <glyph glyph-name="u" unicode="&#x75;" horiz-adv-x="882" d=" M300,-18 Q216,-18 165,41.5 Q114,101 114,189 L114,1280 L370,1280 L370,267 Q370,227 394.5,202 Q419,177 458,177 Q479,177 499,182 Q519,187 538.5,199.5 Q558,212 569,219.5 Q580,227 600.5,245 Q621,263 626,267 L626,1280 L882,1280 L882,0 L626,0 L626,138 Q588,105 570.5,90 Q553,75 517,49.5 Q481,24 453.5,12.5 Q426,1 385,-8.5 Q344,-18 300,-18"/> 
            <glyph glyph-name="v" unicode="&#x76;" horiz-adv-x="852" d=" M308,0 L20,1280 L266,1280 L444,319 L606,1280 L852,1280 L566,0"/> 
            <glyph glyph-name="w" unicode="&#x77;" horiz-adv-x="1261" d=" M257,0 L20,1280 L247,1280 L389,308 L523,1280 L757,1280 L893,318 L1033,1280 L1261,1280 L1013,0 L777,0 L641,882 L503,0"/> 
            <glyph glyph-name="x" unicode="&#x78;" horiz-adv-x="849" d=" M17,0 L273,640 L273,666 L17,1280 L264,1280 L435,791 L606,1280 L849,1280 L593,666 L593,640 L849,0 L593,0 L441,493 L273,0"/> 
            <glyph glyph-name="y" unicode="&#x79;" horiz-adv-x="853" d=" M84,-320 L84,-128 Q160,-128 205.5,-118 Q251,-108 274,-82.5 Q297,-57 303.5,-26.5 Q310,4 310,58 L20,1280 L276,1280 Q425,457 437,384 Q458,519 484.5,668.5 Q511,818 544.5,998.5 Q578,1179 596,1280 L852,1280 L532,-64 Q500,-203 397,-261.5 Q294,-320 110,-320"/> 
            <glyph glyph-name="z" unicode="&#x7A;" horiz-adv-x="775" d=" M71,0 L71,192 L519,1088 L135,1088 L135,1280 L775,1280 L775,1088 L327,192 L775,192 L775,0"/> 
            <glyph glyph-name="{" unicode="&#x7B;" horiz-adv-x="641" d=" M640,-64 Q508,-64 419,-27 Q330,10 281,87 Q232,164 212,265 Q192,366 192,512 Q192,525 192.5,554.5 Q193,584 192.5,595.5 Q192,607 191,632 Q190,657 188,667 Q186,677 181.5,695 Q177,713 170.5,721 Q164,729 154.5,740.5 Q145,752 132,756.5 Q119,761 102,764.5 Q85,768 64,768 L64,1024 Q88,1024 107,1031 Q126,1038 139,1054.5 Q152,1071 162,1087 Q172,1103 177.5,1132.5 Q183,1162 186.5,1182 Q190,1202 191,1238.5 Q192,1275 192.5,1294.5 Q193,1314 192.5,1353.5 Q192,1393 192,1408 Q192,1539 213.5,1622.5 Q235,1706 288.5,1759.5 Q342,1813 425.5,1834.5 Q509,1856 640,1856 L640,1664 Q601,1664 572,1659 Q543,1654 522.5,1646 Q502,1638 488,1621 Q474,1604 466,1587 Q458,1570 454,1539.5 Q450,1509 449,1481.5 Q448,1454 448,1408 Q448,986 256,896 Q351,855 399.5,756.5 Q448,658 448,512 L448,503 Q448,447 448.5,419 Q449,391 452.5,343.5 Q456,296 463,271.5 Q470,247 484,215 Q498,183 518,167 Q538,151 569,139.5 Q600,128 640,128"/> 
            <glyph glyph-name="|" unicode="&#x7C;" horiz-adv-x="320" d=" M128,-128 L128,1920 L320,1920 L320,-128"/> 
            <glyph glyph-name="}" unicode="&#x7D;" horiz-adv-x="640" d=" M64,-64 L64,128 Q92,128 116,132.5 Q140,137 158,148.5 Q176,160 190,171.5 Q204,183 214.5,204.5 Q225,226 232,242 Q239,258 243.5,287.5 Q248,317 250.5,336 Q253,355 254.5,391 Q256,427 256,447 L256,506 L256,512 Q256,657 304.5,756.5 Q353,856 448,896 Q256,982 256,1408 Q256,1444 255.5,1466.5 Q255,1489 253,1515.5 Q251,1542 247,1557.5 Q243,1573 236.5,1591 Q230,1609 220,1619 Q210,1629 196,1639 Q182,1649 162.5,1653.5 Q143,1658 119,1661 Q95,1664 64,1664 L64,1856 Q237,1856 332.5,1814 Q428,1772 470,1676.5 Q512,1581 512,1408 Q512,1392 511.5,1353.5 Q511,1315 511,1295 Q511,1275 512.5,1238.5 Q514,1202 517,1181.5 Q520,1161 526,1132.5 Q532,1104 541.5,1087.5 Q551,1071 564.5,1054.5 Q578,1038 597,1031 Q616,1024 640,1024 L640,768 Q613,768 592,762.5 Q571,757 557.5,747 Q544,737 534.5,722.5 Q525,708 520.5,689.5 Q516,671 514,648.5 Q512,626 512,601 L512,549 L512,512 Q512,395 500,309 Q488,223 458,150 Q428,77 377.5,31.5 Q327,-14 249,-39 Q171,-64 64,-64"/> 
            <glyph glyph-name="~" unicode="&#x7E;" horiz-adv-x="833" d=" M613,812 Q565,812 514.5,834 Q464,856 417,877.5 Q370,899 329,899 Q281,899 281,832 L127,832 Q127,948 184.5,1026.5 Q242,1105 347,1105 Q405,1105 492,1062 Q579,1019 628,1019 Q679,1019 679,1088 L833,1088 Q833,969 776.5,890.5 Q720,812 613,812"/> 
            <glyph glyph-name="¡" unicode="&#xA1;" horiz-adv-x="320" d=" M64,1280 L64,1536 L320,1536 L320,1280 M64,0 L128,1152 L256,1152 L256,0"/> 
            <glyph glyph-name="¢" unicode="&#xA2;" horiz-adv-x="898" d=" M479,206 L479,1071 Q456,1060 438.5,1040.5 Q421,1021 411,990.5 Q401,960 394.5,934 Q388,908 386,863 Q384,818 383.5,792.5 Q383,767 384,713.5 Q385,660 385,640 Q385,616 384,567 Q383,518 383,488 Q383,458 384.5,414.5 Q386,371 392,342.5 Q398,314 408,284 Q418,254 436,235 Q454,216 479,206 M479,-128 L479,-15 Q391,-8 328,21 Q265,50 227,94 Q189,138 166.5,208 Q144,278 136.5,353 Q129,428 129,532 L129,733 Q129,833 137.5,910 Q146,987 169.5,1057.5 Q193,1128 231.5,1175.5 Q270,1223 332,1254.5 Q394,1286 479,1294 L479,1408 L557,1408 L557,1294 Q735,1274 816,1157 Q897,1040 897,831 L641,832 Q641,933 625,991 Q609,1049 557,1073 L557,207 Q581,219 597.5,239.5 Q614,260 622.5,282 Q631,304 635,340 Q639,376 640,402 Q641,428 641,473 L897,473 Q897,468 897.5,453 Q898,438 898,430 Q898,239 811.5,122 Q725,5 557,-14 L557,-128"/> 
            <glyph glyph-name="£" unicode="&#xA3;" horiz-adv-x="832" d=" M0,0 L0,128 L128,191 L128,768 L0,768 L0,960 L128,960 L128,1152 Q128,1235 131,1298 Q134,1361 143.5,1433 Q153,1505 169.5,1557 Q186,1609 215,1659 Q244,1709 284,1740.5 Q324,1772 381.5,1791 Q439,1810 512,1810 Q677,1810 753.5,1706 Q830,1602 832,1422 L832,1344 L640,1344 Q640,1397 636,1435 Q632,1473 620,1514.5 Q608,1556 581,1578 Q554,1600 512,1600 Q479,1600 455,1582.5 Q431,1565 418.5,1540 Q406,1515 398,1475 Q390,1435 387.5,1404 Q385,1373 384,1330 L384,960 L640,960 L640,768 L384,768 L384,192 L832,192 L832,0"/> 
            <glyph glyph-name="¤" unicode="&#xA4;" horiz-adv-x="919" d=" M421,682 Q603,682 653.5,741 Q704,800 704,896 Q704,992 653.5,1051 Q603,1110 512,1110 Q420,1110 370,1051.5 Q320,993 320,897 Q320,801 421,682 M195,489 L105,579 L191,665 Q128,761 128,897 Q128,1030 191,1127 L105,1213 L195,1303 L281,1217 Q378,1280 512,1280 Q646,1280 743,1217 L829,1303 L919,1213 L832,1126 Q896,1028 896,897 Q896,765 832,665 L919,579 L829,489 L743,575 Q646,512 512,512 Q378,512 281,575"/> 
            <glyph glyph-name="¥" unicode="&#xA5;" horiz-adv-x="974" d=" M384,0 L384,256 L192,256 L192,424 L384,424 L384,553 L192,553 L192,719 L341,719 L48,1792 L308,1792 L512,848 L714,1792 L974,1792 L679,719 L832,719 L832,553 L640,553 L640,424 L832,424 L832,256 L640,256 L640,0"/> 
            <glyph glyph-name="¦" unicode="&#xA6;" horiz-adv-x="297" d=" M94,889 L94,1518 L297,1518 L297,889 M94,-14 L94,614 L297,614 L297,-14"/> 
            <glyph glyph-name="§" unicode="&#xA7;" horiz-adv-x="865" d=" M512,754 Q608,799 608,882 Q608,906 598,929 Q588,952 564.5,976 Q541,1000 528,1012 Q515,1024 482.5,1048.5 Q450,1073 448,1074 Q352,1017 352,925 Q352,891 371,862 Q390,833 416,817 M480,-17 Q398,-17 331,10 Q264,37 218.5,85 Q173,133 143,191.5 Q113,250 96,321 L288,385 Q357,193 480,193 Q541,193 574.5,226.5 Q608,260 608,321 Q608,370 590.5,411 Q573,452 544,469 L288,625 Q228,661 189.5,696 Q151,731 123.5,790 Q96,849 96,925 Q96,1035 145.5,1111 Q195,1187 282,1226 Q239,1251 213,1269.5 Q187,1288 156.5,1318 Q126,1348 111,1386.5 Q96,1425 96,1472 Q96,1636 200.5,1723 Q305,1810 480,1810 Q563,1810 629.5,1783.5 Q696,1757 742,1709 Q788,1661 817.5,1602 Q847,1543 864,1472 L672,1408 Q658,1446 644,1473.5 Q630,1501 606.5,1533 Q583,1565 551,1582.5 Q519,1600 480,1600 Q419,1600 385.5,1566.5 Q352,1533 352,1472 Q352,1412 416,1364 Q577,1275 600,1261 Q775,1153 831,1032 Q864,963 864,882 Q864,687 706,596 Q779,537 821.5,473 Q864,409 864,321 Q864,157 759.5,70 Q655,-17 480,-17"/> 
            <glyph glyph-name="¨" unicode="&#xA8;" horiz-adv-x="768" d=" M512,1536 L512,1792 L768,1792 L768,1536 M128,1536 L128,1792 L384,1792 L384,1536"/> 
            <glyph glyph-name="©" unicode="&#xA9;" horiz-adv-x="1458" d=" M764,-14 Q614,-14 484.5,41 Q355,96 264.5,191 Q174,286 122,418 Q70,550 70,700 Q70,902 158,1065 Q246,1228 405,1321.5 Q564,1415 764,1415 Q914,1415 1043.5,1360 Q1173,1305 1263.5,1210 Q1354,1115 1406,982.5 Q1458,850 1458,700 Q1458,499 1369.5,336 Q1281,173 1122,79.5 Q963,-14 764,-14 M612,133 Q916,133 1036,208.5 Q1156,284 1221,412 Q1286,540 1286,696 Q1286,813 1248,917 Q1210,1021 1142.5,1096.5 Q1075,1172 977,1216 Q879,1260 764,1260 Q611,1260 490.5,1184.5 Q370,1109 306,981 Q242,853 242,696 Q242,541 307,412.5 Q372,284 612,133 M768,217 Q710,217 664.5,231.5 Q619,246 588.5,268.5 Q558,291 536.5,330 Q515,369 503,407 Q491,445 484.5,502.5 Q478,560 476.5,607 Q475,654 475,723 Q475,810 481,872 Q487,934 505,995.5 Q523,1057 555,1095 Q587,1133 642,1156.5 Q697,1180 774,1180 Q1055,1180 1055,840 L872,840 Q872,881 869,910 Q866,939 857,971 Q848,1003 827.5,1019.5 Q807,1036 776,1036 Q753,1036 734.5,1031 Q716,1026 703,1014 Q690,1002 681,989.5 Q672,977 666.5,955.5 Q661,934 658,917 Q655,900 654.5,871 Q654,842 654,823.5 Q654,805 654.5,772 Q655,739 655,721 Q655,703 654.5,671 Q654,639 653.5,617 Q653,595 653.5,564.5 Q654,534 656.5,512.5 Q659,491 664,466 Q669,441 677.5,424.5 Q686,408 698,393.5 Q710,379 728,372 Q746,365 768,365 Q803,365 826,383 Q849,401 858.5,435.5 Q868,470 871,501 Q874,532 874,578 L1053,578 L1053,562 Q1053,406 982.5,311.5 Q912,217 768,217"/> 
            <glyph glyph-name="ª" unicode="&#xAA;" horiz-adv-x="678" d=" M374,144 Q410,144 440,166 Q470,188 485,219 L485,408 Q390,357 361,332 Q303,285 303,228 Q303,189 321.5,166.5 Q340,144 374,144 M301,-10 Q218,-10 163,45 Q108,100 108,183 Q108,251 134.5,300.5 Q161,350 224.5,385 Q288,420 325.5,434.5 Q363,449 450,475 Q474,482 485,486 L485,580 Q485,719 409,719 Q319,719 319,568 L141,568 Q143,702 214,782.5 Q285,863 413,863 Q492,863 545,840.5 Q598,818 626.5,771.5 Q655,725 666.5,666 Q678,607 678,521 L678,0 L501,0 L501,111 Q472,58 418.5,24 Q365,-10 301,-10"/> 
            <glyph glyph-name="«" unicode="&#xAB;" horiz-adv-x="960" d=" M960,64 L512,576 L512,704 L960,1216 L960,896 L704,641 L960,384 M512,64 L64,576 L64,704 L512,1216 L512,896 L256,641 L512,384"/> 
            <glyph glyph-name="¬" unicode="&#xAC;" horiz-adv-x="640" d=" M512,256 L512,448 L128,448 L128,640 L640,640 L640,256"/> 
            <glyph glyph-name="­" unicode="&#xAD;" horiz-adv-x="640" d=" M128,448 L128,640 L640,640 L640,448"/> 
            <glyph glyph-name="®" unicode="&#xAE;" horiz-adv-x="1458" d=" M764,-14 Q614,-14 484.5,41 Q355,96 264.5,191 Q174,286 122,418 Q70,550 70,700 Q70,902 158,1065 Q246,1228 405,1321.5 Q564,1415 764,1415 Q914,1415 1043.5,1360 Q1173,1305 1263.5,1210 Q1354,1115 1406,982.5 Q1458,850 1458,700 Q1458,499 1369.5,336 Q1281,173 1122,79.5 Q963,-14 764,-14 M612,133 Q916,133 1036,208.5 Q1156,284 1221,412 Q1286,540 1286,696 Q1286,813 1248,917 Q1210,1021 1142.5,1096.5 Q1075,1172 977,1216 Q879,1260 764,1260 Q611,1260 490.5,1184.5 Q370,1109 306,981 Q242,853 242,696 Q242,541 307,412.5 Q372,284 612,133 M672,729 L705,729 Q798,729 832,764.5 Q866,800 866,897 Q866,972 837.5,1010.5 Q809,1049 743,1049 L672,1049 M516,248 L516,1167 L756,1167 Q1026,1167 1026,893 Q1026,738 901,670 L1049,248 L881,248 L754,633 L672,633 L672,248"/> 
            <glyph glyph-name="¯" unicode="&#xAF;" horiz-adv-x="557" d=" M123,1407 L123,1559 L557,1559 L557,1407"/> 
            <glyph glyph-name="°" unicode="&#xB0;" horiz-adv-x="896" d=" M692,1042 Q332,1042 230,1145 Q128,1248 128,1427 Q128,1605 230,1707.5 Q332,1810 512,1810 Q692,1810 794,1707.5 Q896,1605 896,1427 Q896,1248 692,1042 M421,1212 Q603,1212 653.5,1271 Q704,1330 704,1426 Q704,1522 653.5,1581 Q603,1640 512,1640 Q420,1640 370,1581.5 Q320,1523 320,1427 Q320,1331 421,1212"/> 
            <glyph glyph-name="±" unicode="&#xB1;" horiz-adv-x="704" d=" M128,0 L128,192 L704,192 L704,0 M320,384 L320,576 L128,576 L128,768 L320,768 L320,960 L512,960 L512,768 L704,768 L704,576 L512,576 L512,384"/> 
            <glyph glyph-name="²" unicode="&#xB2;" horiz-adv-x="576" d=" M64,576 L64,704 L256,960 Q263,969 283.5,995.5 Q304,1022 313.5,1034.5 Q323,1047 339.5,1073 Q356,1099 363.5,1118 Q371,1137 377.5,1163.5 Q384,1190 384,1216 Q384,1237 383.5,1248 Q383,1259 381.5,1277 Q380,1295 376,1304.5 Q372,1314 365,1324.5 Q358,1335 347,1339.5 Q336,1344 320,1344 Q304,1344 293,1339.5 Q282,1335 275,1324.5 Q268,1314 264,1304.5 Q260,1295 258.5,1277 Q257,1259 256.5,1248 Q256,1237 256,1216 L64,1216 Q64,1337 130.5,1404.5 Q197,1472 320,1472 Q443,1472 509.5,1404.5 Q576,1337 576,1216 Q576,1145 538.5,1067.5 Q501,990 457,937 Q413,884 347.5,811.5 Q282,739 256,704 L576,704 L576,576"/> 
            <glyph glyph-name="³" unicode="&#xB3;" horiz-adv-x="640" d=" M507,640 Q261,640 194.5,707 Q128,774 128,896 L320,896 Q320,875 320.5,864 Q321,853 322.5,835 Q324,817 328,807.5 Q332,798 339,787.5 Q346,777 357,772.5 Q368,768 384,768 Q400,768 411,772.5 Q422,777 429,787.5 Q436,798 440,807.5 Q444,817 445.5,835 Q447,853 447.5,864 Q448,875 448,896 Q448,967 420,995.5 Q392,1024 320,1024 L320,1152 Q393,1152 420.5,1180 Q448,1208 448,1280 Q448,1301 447.5,1312 Q447,1323 445.5,1341 Q444,1359 440,1368.5 Q436,1378 429,1388.5 Q422,1399 411,1403.5 Q400,1408 384,1408 Q368,1408 357,1403.5 Q346,1399 339,1388.5 Q332,1378 328,1368.5 Q324,1359 322.5,1341 Q321,1323 320.5,1312 Q320,1301 320,1280 L128,1280 Q128,1401 194.5,1468.5 Q261,1536 384,1536 Q507,1536 573.5,1468.5 Q640,1401 640,1280 Q640,1189 588.5,1140 Q537,1091 448,1088 Q538,1082 589,1035 Q640,988 640,896 Q640,775 507,640"/> 
            <glyph glyph-name="´" unicode="&#xB4;" horiz-adv-x="512" d=" M128,1408 L256,1792 L512,1792 L256,1408"/> 
            <glyph glyph-name="µ" unicode="&#xB5;" horiz-adv-x="882" d=" M370,267 Q370,227 394.5,202 Q419,177 458,177 Q479,177 499,182 Q519,187 538.5,199.5 Q558,212 569,219.5 Q580,227 600.5,245 Q621,263 626,267 L626,1280 L882,1280 L882,0 L626,0 L626,138 Q590,75 529.5,38 Q469,1 370,0 L370,-252 L114,-253 L114,1280 L370,1280"/> 
            <glyph glyph-name="¶" unicode="&#xB6;" horiz-adv-x="896" d=" M382,0 L382,876 Q218,876 117,962 Q16,1048 16,1204 Q16,1373 123,1454.5 Q230,1536 423,1536 L896,1536 L896,0 L718,0 L718,876 L579,876 L579,0"/> 
            <glyph glyph-name="·" unicode="&#xB7;" horiz-adv-x="320" d=" M64,706 L64,962 L320,962 L320,706"/> 
            <glyph glyph-name="¸" unicode="&#xB8;" horiz-adv-x="513" d=" M64,-512 L64,-384 Q79,-384 115.5,-385 Q152,-386 172,-386 Q240,-386 280,-372.5 Q320,-359 320,-320 Q320,-306 312.5,-293 Q305,-280 290.5,-268.5 Q276,-257 261.5,-248 Q247,-239 225,-229.5 Q203,-220 190,-214.5 Q177,-209 155,-201.5 Q133,-194 128,-192 L128,0 L256,0 L256,-128 Q303,-141 337.5,-154 Q372,-167 417,-190 Q462,-213 487,-246 Q512,-279 512,-320 Q512,-358 501,-387.5 Q490,-417 472.5,-437 Q455,-457 426.5,-471 Q398,-485 370,-493 Q342,-501 301,-505.5 Q260,-510 227.5,-511 Q195,-512 149,-512"/> 
            <glyph glyph-name="¹" unicode="&#xB9;" horiz-adv-x="384" d=" M192,640 L192,1216 L64,1216 L64,1344 Q232,1427 320,1536 L384,1536 L384,640"/> 
            <glyph glyph-name="º" unicode="&#xBA;" horiz-adv-x="800" d=" M450,-14 Q261,-14 180,94 Q99,202 99,410 L99,729 Q99,937 180,1045 Q261,1153 450,1153 Q630,1153 715,1040 Q800,927 800,729 L800,410 Q800,212 715,99 Q630,-14 450,-14 M445,186 Q464,186 480.5,189 Q497,192 509,200.5 Q521,209 530.5,216.5 Q540,224 547,240 Q554,256 558.5,266 Q563,276 566,298.5 Q569,321 571,332 Q573,343 573.5,370.5 Q574,398 574,409 L574,451 L574,688 L574,700 L574,745 Q574,759 573,785.5 Q572,812 569.5,825.5 Q567,839 562.5,860 Q558,881 552,892 Q546,903 536,916.5 Q526,930 513.5,936.5 Q501,943 483.5,947.5 Q466,952 445,952 Q418,952 397,944 Q376,936 362,924.5 Q348,913 338,891 Q328,869 323,850.5 Q318,832 315.5,800.5 Q313,769 312.5,747 Q312,725 312,688 L312,451 Q312,408 313,382.5 Q314,357 317.5,321.5 Q321,286 330,265.5 Q339,245 353,224.5 Q367,204 390,195 Q413,186 445,186"/> 
            <glyph glyph-name="»" unicode="&#xBB;" horiz-adv-x="960" d=" M512,64 L512,384 L768,641 L512,896 L512,1216 L960,704 L960,576 M64,64 L64,384 L320,641 L64,896 L64,1216 L512,704 L512,576"/> 
            <glyph glyph-name="¼" unicode="&#xBC;" horiz-adv-x="1621" d=" M1173,383 L1301,383 L1301,639 M1301,-1 L1301,255 L981,255 L981,383 L1321,959 L1493,959 L1493,383 L1621,383 L1621,255 L1493,255 L1493,-1 M409,0 L984,1792 L1241,1792 L665,0 M197,744 L197,1320 L69,1320 L69,1448 Q237,1531 325,1640 L389,1640 L389,744"/> 
            <glyph glyph-name="½" unicode="&#xBD;" horiz-adv-x="1642" d=" M1130,3 L1130,131 L1322,387 Q1329,396 1349.5,422.5 Q1370,449 1379.5,461.5 Q1389,474 1405.5,500 Q1422,526 1429.5,545 Q1437,564 1443.5,590.5 Q1450,617 1450,643 Q1450,664 1449.5,675 Q1449,686 1447.5,704 Q1446,722 1442,731.5 Q1438,741 1431,751.5 Q1424,762 1413,766.5 Q1402,771 1386,771 Q1370,771 1359,766.5 Q1348,762 1341,751.5 Q1334,741 1330,731.5 Q1326,722 1324.5,704 Q1323,686 1322.5,675 Q1322,664 1322,643 L1130,643 Q1130,764 1196.5,831.5 Q1263,899 1386,899 Q1509,899 1575.5,831.5 Q1642,764 1642,643 Q1642,572 1604.5,494.5 Q1567,417 1523,364 Q1479,311 1413.5,238.5 Q1348,166 1322,131 L1642,131 L1642,3 M434,0 L1009,1792 L1266,1792 L690,0 M194,744 L194,1320 L66,1320 L66,1448 Q234,1531 322,1640 L386,1640 L386,744"/> 
            <glyph glyph-name="¾" unicode="&#xBE;" horiz-adv-x="1739" d=" M1291,386 L1419,386 L1419,642 M1419,2 L1419,258 L1099,258 L1099,386 L1439,962 L1611,962 L1611,386 L1739,386 L1739,258 L1611,258 L1611,2 M519,0 L1094,1792 L1351,1792 L775,0 M450,764 Q204,764 137.5,831 Q71,898 71,1020 L263,1020 Q263,999 263.5,988 Q264,977 265.5,959 Q267,941 271,931.5 Q275,922 282,911.5 Q289,901 300,896.5 Q311,892 327,892 Q343,892 354,896.5 Q365,901 372,911.5 Q379,922 383,931.5 Q387,941 388.5,959 Q390,977 390.5,988 Q391,999 391,1020 Q391,1091 363,1119.5 Q335,1148 263,1148 L263,1276 Q336,1276 363.5,1304 Q391,1332 391,1404 Q391,1425 390.5,1436 Q390,1447 388.5,1465 Q387,1483 383,1492.5 Q379,1502 372,1512.5 Q365,1523 354,1527.5 Q343,1532 327,1532 Q311,1532 300,1527.5 Q289,1523 282,1512.5 Q275,1502 271,1492.5 Q267,1483 265.5,1465 Q264,1447 263.5,1436 Q263,1425 263,1404 L71,1404 Q71,1525 137.5,1592.5 Q204,1660 327,1660 Q450,1660 516.5,1592.5 Q583,1525 583,1404 Q583,1313 531.5,1264 Q480,1215 391,1212 Q481,1206 532,1159 Q583,1112 583,1020 Q583,899 450,764"/> 
            <glyph glyph-name="¿" unicode="&#xBF;" horiz-adv-x="790" d=" M343,1106 L343,1329 L564,1329 L564,1106 M430,-5 Q80,-5 80,346 Q80,387 90.5,430 Q101,473 113.5,505.5 Q126,538 154,580.5 Q182,623 197.5,645 Q213,667 251,708.5 Q289,750 299.5,761.5 Q310,773 349,812 L349,1029 L565,1029 L565,760 Q553,745 510,694.5 Q467,644 441.5,610 Q416,576 383.5,525.5 Q351,475 334.5,425 Q318,375 318,328 Q318,202 430,202 Q472,202 501,219.5 Q530,237 544.5,269 Q559,301 565,337.5 Q571,374 571,421 L790,421 L790,396 Q790,210 698.5,102.5 Q607,-5 430,-5"/> 
            <glyph glyph-name="À" unicode="&#xC0;" horiz-adv-x="1040" d=" M400,640 L656,640 L528,1408 M16,0 L400,1792 L656,1792 L1040,0 L784,0 L688,448 L368,448 L272,0 M464,1912 L208,2296 L464,2296 L592,1912"/> 
            <glyph glyph-name="Á" unicode="&#xC1;" horiz-adv-x="1040" d=" M400,640 L656,640 L528,1408 M16,0 L400,1792 L656,1792 L1040,0 L784,0 L688,448 L368,448 L272,0 M464,1912 L592,2296 L848,2296 L592,1912"/> 
            <glyph glyph-name="Â" unicode="&#xC2;" horiz-adv-x="1040" d=" M400,640 L656,640 L528,1408 M16,0 L400,1792 L656,1792 L1040,0 L784,0 L688,448 L368,448 L272,0 M208,1912 L400,2296 L656,2296 L848,1912 L656,1912 L528,2168 L400,1912"/> 
            <glyph glyph-name="Ã" unicode="&#xC3;" horiz-adv-x="1040" d=" M400,640 L656,640 L528,1408 M16,0 L400,1792 L656,1792 L1040,0 L784,0 L688,448 L368,448 L272,0 M661,1912 Q613,1912 562.5,1934 Q512,1956 465,1977.5 Q418,1999 377,1999 Q329,1999 329,1932 L175,1932 Q175,2048 232.5,2126.5 Q290,2205 395,2205 Q453,2205 540,2162 Q627,2119 676,2119 Q727,2119 727,2188 L881,2188 Q881,2071 823.5,1991.5 Q766,1912 661,1912"/> 
            <glyph glyph-name="Ä" unicode="&#xC4;" horiz-adv-x="1040" d=" M400,640 L656,640 L528,1408 M16,0 L400,1792 L656,1792 L1040,0 L784,0 L688,448 L368,448 L272,0 M592,1912 L592,2168 L848,2168 L848,1912 M208,1912 L208,2168 L464,2168 L464,1912"/> 
            <glyph glyph-name="Å" unicode="&#xC5;" horiz-adv-x="1040" d=" M400,640 L656,640 L528,1408 M16,0 L400,1792 L656,1792 L1040,0 L784,0 L688,448 L368,448 L272,0 M645,1857 Q411,1857 341.5,1927 Q272,1997 272,2113 Q272,2229 341.5,2299 Q411,2369 528,2369 Q645,2369 714.5,2299 Q784,2229 784,2113 Q784,1997 645,1857 M468,1985 Q588,1985 622,2019.5 Q656,2054 656,2113 Q656,2172 622,2206.5 Q588,2241 528,2241 Q468,2241 434,2207 Q400,2173 400,2113 Q400,2053 468,1985"/> 
            <glyph glyph-name="Æ" unicode="&#xC6;" horiz-adv-x="1344" d=" M393,640 L640,640 L640,1298 M-126,0 L638,1792 L1344,1792 L1344,1600 L896,1600 L896,1024 L1216,1024 L1216,832 L896,832 L896,192 L1344,192 L1344,0 L640,0 L640,448 L320,448 L129,0"/> 
            <glyph glyph-name="Ç" unicode="&#xC7;" horiz-adv-x="1065" d=" M588,-18 Q475,-18 389,14 Q303,46 248,102.5 Q193,159 158.5,243.5 Q124,328 110,424 Q96,520 96,641 L96,1152 Q96,1273 110,1369 Q124,1465 158.5,1549.5 Q193,1634 248,1690 Q303,1746 389,1778 Q475,1810 588,1810 Q713,1810 804,1773 Q895,1736 949.5,1664 Q1004,1592 1031.5,1497 Q1059,1402 1064,1275 Q1065,1256 1065,1216 L809,1216 L809,1273 Q808,1326 805,1363.5 Q802,1401 794,1441 Q786,1481 770.5,1507.5 Q755,1534 731.5,1556.5 Q708,1579 672,1589.5 Q636,1600 588,1600 Q526,1600 481.5,1580 Q437,1560 412,1528.5 Q387,1497 373.5,1444 Q360,1391 356,1340.5 Q352,1290 352,1216 L352,576 Q352,512 357.5,460 Q363,408 379,356.5 Q395,305 420.5,270 Q446,235 488.5,213.5 Q531,192 588,192 Q645,192 686,214 Q727,236 750.5,270 Q774,304 787.5,357 Q801,410 805,460 Q809,510 809,576 L809,640 L1065,640 L1065,576 Q1065,437 1040.5,332 Q1016,227 961.5,146.5 Q907,66 813.5,24 Q720,-18 588,-18 M452,-513 L452,-385 Q467,-385 503.5,-386 Q540,-387 560,-387 Q628,-387 668,-373.5 Q708,-360 708,-321 Q708,-307 700.5,-294 Q693,-281 678.5,-269.5 Q664,-258 649.5,-249 Q635,-240 613,-230.5 Q591,-221 578,-215.5 Q565,-210 543,-202.5 Q521,-195 516,-193 L516,-1 L644,-1 L644,-129 Q691,-142 725.5,-155 Q760,-168 805,-191 Q850,-214 875,-247 Q900,-280 900,-321 Q900,-359 889,-388.5 Q878,-418 860.5,-438 Q843,-458 814.5,-472 Q786,-486 758,-494 Q730,-502 689,-506.5 Q648,-511 615.5,-512 Q583,-513 537,-513"/> 
            <glyph glyph-name="È" unicode="&#xC8;" horiz-adv-x="832" d=" M128,0 L128,1792 L832,1792 L832,1600 L384,1600 L384,1024 L704,1024 L704,832 L384,832 L384,192 L832,192 L832,0 M416,1912 L160,2296 L416,2296 L544,1912"/> 
            <glyph glyph-name="É" unicode="&#xC9;" horiz-adv-x="832" d=" M128,0 L128,1792 L832,1792 L832,1600 L384,1600 L384,1024 L704,1024 L704,832 L384,832 L384,192 L832,192 L832,0 M416,1912 L544,2296 L800,2296 L544,1912"/> 
            <glyph glyph-name="Ê" unicode="&#xCA;" horiz-adv-x="832" d=" M128,0 L128,1792 L832,1792 L832,1600 L384,1600 L384,1024 L704,1024 L704,832 L384,832 L384,192 L832,192 L832,0 M160,1912 L352,2296 L608,2296 L800,1912 L608,1912 L480,2168 L352,1912"/> 
            <glyph glyph-name="Ë" unicode="&#xCB;" horiz-adv-x="832" d=" M128,0 L128,1792 L832,1792 L832,1600 L384,1600 L384,1024 L704,1024 L704,832 L384,832 L384,192 L832,192 L832,0 M544,1912 L544,2168 L800,2168 L800,1912 M160,1912 L160,2168 L416,2168 L416,1912"/> 
            <glyph glyph-name="Ì" unicode="&#xCC;" horiz-adv-x="396" d=" M140,0 L140,1792 L396,1792 L396,0 M204,1912 L-52,2296 L204,2296 L332,1912"/> 
            <glyph glyph-name="Í" unicode="&#xCD;" horiz-adv-x="588" d=" M140,0 L140,1792 L396,1792 L396,0 M204,1912 L332,2296 L588,2296 L332,1912"/> 
            <glyph glyph-name="Î" unicode="&#xCE;" horiz-adv-x="588" d=" M140,0 L140,1792 L396,1792 L396,0 M-52,1912 L140,2296 L396,2296 L588,1912 L396,1912 L268,2168 L140,1912"/> 
            <glyph glyph-name="Ï" unicode="&#xCF;" horiz-adv-x="588" d=" M140,0 L140,1792 L396,1792 L396,0 M332,1912 L332,2168 L588,2168 L588,1912 M-52,1912 L-52,2168 L204,2168 L204,1912"/> 
            <glyph glyph-name="Ð" unicode="&#xD0;" horiz-adv-x="1024" d=" M128,0 L128,852 L34,852 L34,1004 L128,1004 L128,1792 L512,1792 Q793,1792 908.5,1677 Q1024,1562 1024,1280 L1024,576 Q1024,281 906.5,140.5 Q789,0 510,0 M384,192 L512,192 Q575,192 620,203.5 Q665,215 693,245.5 Q721,276 737,303.5 Q753,331 759.5,389 Q766,447 767,484.5 Q768,522 768,601 L768,640 L768,1216 Q768,1265 767.5,1294 Q767,1323 764.5,1362.5 Q762,1402 757,1425 Q752,1448 743,1476.5 Q734,1505 720.5,1521 Q707,1537 687.5,1554.5 Q668,1572 642.5,1580.5 Q617,1589 583,1594.5 Q549,1600 507,1600 L384,1600 L384,1004 L528,1004 L528,852 L384,852"/> 
            <glyph glyph-name="Ñ" unicode="&#xD1;" horiz-adv-x="1024" d=" M128,0 L128,1792 L320,1792 L768,684 L768,1792 L1024,1792 L1024,0 L842,0 L384,1192 L384,0 M709,1912 Q661,1912 610.5,1934 Q560,1956 513,1977.5 Q466,1999 425,1999 Q377,1999 377,1932 L223,1932 Q223,2048 280.5,2126.5 Q338,2205 443,2205 Q501,2205 588,2162 Q675,2119 724,2119 Q775,2119 775,2188 L929,2188 Q929,2071 871.5,1991.5 Q814,1912 709,1912"/> 
            <glyph glyph-name="Ò" unicode="&#xD2;" horiz-adv-x="1084" d=" M590,-18 Q455,-18 358.5,23 Q262,64 205,143 Q148,222 122,328.5 Q96,435 96,576 L96,1226 Q96,1367 122,1472 Q148,1577 205,1654.5 Q262,1732 358.5,1771 Q455,1810 590,1810 Q852,1810 968,1660 Q1084,1510 1084,1226 L1084,576 Q1084,437 1057.5,330.5 Q1031,224 974,144.5 Q917,65 820.5,23.5 Q724,-18 590,-18 M455,192 Q725,192 776.5,273 Q828,354 828,512 L828,1290 Q828,1446 777,1523 Q726,1600 590,1600 Q454,1600 403,1523 Q352,1446 352,1290 L352,512 Q352,354 455,192 M526,1912 L270,2296 L526,2296 L654,1912"/> 
            <glyph glyph-name="Ó" unicode="&#xD3;" horiz-adv-x="1084" d=" M590,-18 Q455,-18 358.5,23 Q262,64 205,143 Q148,222 122,328.5 Q96,435 96,576 L96,1226 Q96,1367 122,1472 Q148,1577 205,1654.5 Q262,1732 358.5,1771 Q455,1810 590,1810 Q852,1810 968,1660 Q1084,1510 1084,1226 L1084,576 Q1084,437 1057.5,330.5 Q1031,224 974,144.5 Q917,65 820.5,23.5 Q724,-18 590,-18 M455,192 Q725,192 776.5,273 Q828,354 828,512 L828,1290 Q828,1446 777,1523 Q726,1600 590,1600 Q454,1600 403,1523 Q352,1446 352,1290 L352,512 Q352,354 455,192 M526,1912 L654,2296 L910,2296 L654,1912"/> 
            <glyph glyph-name="Ô" unicode="&#xD4;" horiz-adv-x="1084" d=" M590,-18 Q455,-18 358.5,23 Q262,64 205,143 Q148,222 122,328.5 Q96,435 96,576 L96,1226 Q96,1367 122,1472 Q148,1577 205,1654.5 Q262,1732 358.5,1771 Q455,1810 590,1810 Q852,1810 968,1660 Q1084,1510 1084,1226 L1084,576 Q1084,437 1057.5,330.5 Q1031,224 974,144.5 Q917,65 820.5,23.5 Q724,-18 590,-18 M455,192 Q725,192 776.5,273 Q828,354 828,512 L828,1290 Q828,1446 777,1523 Q726,1600 590,1600 Q454,1600 403,1523 Q352,1446 352,1290 L352,512 Q352,354 455,192 M270,1912 L462,2296 L718,2296 L910,1912 L718,1912 L590,2168 L462,1912"/> 
            <glyph glyph-name="Õ" unicode="&#xD5;" horiz-adv-x="1084" d=" M590,-18 Q455,-18 358.5,23 Q262,64 205,143 Q148,222 122,328.5 Q96,435 96,576 L96,1226 Q96,1367 122,1472 Q148,1577 205,1654.5 Q262,1732 358.5,1771 Q455,1810 590,1810 Q852,1810 968,1660 Q1084,1510 1084,1226 L1084,576 Q1084,437 1057.5,330.5 Q1031,224 974,144.5 Q917,65 820.5,23.5 Q724,-18 590,-18 M455,192 Q725,192 776.5,273 Q828,354 828,512 L828,1290 Q828,1446 777,1523 Q726,1600 590,1600 Q454,1600 403,1523 Q352,1446 352,1290 L352,512 Q352,354 455,192 M723,1912 Q675,1912 624.5,1934 Q574,1956 527,1977.5 Q480,1999 439,1999 Q391,1999 391,1932 L237,1932 Q237,2048 294.5,2126.5 Q352,2205 457,2205 Q515,2205 602,2162 Q689,2119 738,2119 Q789,2119 789,2188 L943,2188 Q943,2071 885.5,1991.5 Q828,1912 723,1912"/> 
            <glyph glyph-name="Ö" unicode="&#xD6;" horiz-adv-x="1084" d=" M590,-18 Q455,-18 358.5,23 Q262,64 205,143 Q148,222 122,328.5 Q96,435 96,576 L96,1226 Q96,1367 122,1472 Q148,1577 205,1654.5 Q262,1732 358.5,1771 Q455,1810 590,1810 Q852,1810 968,1660 Q1084,1510 1084,1226 L1084,576 Q1084,437 1057.5,330.5 Q1031,224 974,144.5 Q917,65 820.5,23.5 Q724,-18 590,-18 M455,192 Q725,192 776.5,273 Q828,354 828,512 L828,1290 Q828,1446 777,1523 Q726,1600 590,1600 Q454,1600 403,1523 Q352,1446 352,1290 L352,512 Q352,354 455,192 M654,1912 L654,2168 L910,2168 L910,1912 M270,1912 L270,2168 L526,2168 L526,1912"/> 
            <glyph glyph-name="×" unicode="&#xD7;" horiz-adv-x="704" d=" M192,320 L64,448 L256,640 L64,832 L192,960 L384,768 L576,960 L704,832 L512,640 L704,448 L576,320 L384,512"/> 
            <glyph glyph-name="Ø" unicode="&#xD8;" horiz-adv-x="1084" d=" M590,192 Q725,192 776.5,273 Q828,354 828,512 L828,1290 Q828,1417 799,1484 L463,219 Q512,192 590,192 M387,301 L723,1571 Q671,1600 590,1600 Q454,1600 403,1523 Q352,1446 352,1290 L352,512 Q352,374 387,301 M364,-156 L274,-128 L319,43 Q96,169 96,576 L96,1226 Q96,1367 122,1472 Q148,1577 205,1654.5 Q262,1732 358.5,1771 Q455,1810 590,1810 Q700,1810 779,1785 L821,1944 L914,1920 L868,1746 Q1084,1619 1084,1226 L1084,576 Q1084,437 1057.5,330.5 Q1031,224 974,144.5 Q917,65 820.5,23.5 Q724,-18 590,-18 Q486,-18 407,6"/> 
            <glyph glyph-name="Ù" unicode="&#xD9;" horiz-adv-x="1138" d=" M743,-19 Q509,-19 420,12 Q331,43 273.5,98.5 Q216,154 180,238 Q144,322 129,419.5 Q114,517 114,640 L114,1792 L370,1792 L370,640 Q370,557 373.5,501 Q377,445 392,381.5 Q407,318 433.5,280 Q460,242 508.5,217 Q557,192 626,192 Q695,192 743.5,217 Q792,242 818.5,280 Q845,318 860,381.5 Q875,445 878.5,501 Q882,557 882,640 L882,1792 L1138,1792 L1138,640 Q1138,517 1123,419.5 Q1108,322 1072,238 Q1036,154 978.5,98.5 Q921,43 743,-19 M562,1912 L306,2296 L562,2296 L690,1912"/> 
            <glyph glyph-name="Ú" unicode="&#xDA;" horiz-adv-x="1138" d=" M743,-19 Q509,-19 420,12 Q331,43 273.5,98.5 Q216,154 180,238 Q144,322 129,419.5 Q114,517 114,640 L114,1792 L370,1792 L370,640 Q370,557 373.5,501 Q377,445 392,381.5 Q407,318 433.5,280 Q460,242 508.5,217 Q557,192 626,192 Q695,192 743.5,217 Q792,242 818.5,280 Q845,318 860,381.5 Q875,445 878.5,501 Q882,557 882,640 L882,1792 L1138,1792 L1138,640 Q1138,517 1123,419.5 Q1108,322 1072,238 Q1036,154 978.5,98.5 Q921,43 743,-19 M562,1912 L690,2296 L946,2296 L690,1912"/> 
            <glyph glyph-name="Û" unicode="&#xDB;" horiz-adv-x="1138" d=" M743,-19 Q509,-19 420,12 Q331,43 273.5,98.5 Q216,154 180,238 Q144,322 129,419.5 Q114,517 114,640 L114,1792 L370,1792 L370,640 Q370,557 373.5,501 Q377,445 392,381.5 Q407,318 433.5,280 Q460,242 508.5,217 Q557,192 626,192 Q695,192 743.5,217 Q792,242 818.5,280 Q845,318 860,381.5 Q875,445 878.5,501 Q882,557 882,640 L882,1792 L1138,1792 L1138,640 Q1138,517 1123,419.5 Q1108,322 1072,238 Q1036,154 978.5,98.5 Q921,43 743,-19 M306,1912 L498,2296 L754,2296 L946,1912 L754,1912 L626,2168 L498,1912"/> 
            <glyph glyph-name="Ü" unicode="&#xDC;" horiz-adv-x="1138" d=" M743,-19 Q509,-19 420,12 Q331,43 273.5,98.5 Q216,154 180,238 Q144,322 129,419.5 Q114,517 114,640 L114,1792 L370,1792 L370,640 Q370,557 373.5,501 Q377,445 392,381.5 Q407,318 433.5,280 Q460,242 508.5,217 Q557,192 626,192 Q695,192 743.5,217 Q792,242 818.5,280 Q845,318 860,381.5 Q875,445 878.5,501 Q882,557 882,640 L882,1792 L1138,1792 L1138,640 Q1138,517 1123,419.5 Q1108,322 1072,238 Q1036,154 978.5,98.5 Q921,43 743,-19 M690,1912 L690,2168 L946,2168 L946,1912 M306,1912 L306,2168 L562,2168 L562,1912"/> 
            <glyph glyph-name="Ý" unicode="&#xDD;" horiz-adv-x="1021" d=" M381,0 L381,576 L-3,1792 L253,1792 L509,896 L765,1792 L1021,1792 L637,576 L637,0 M445,1912 L573,2296 L829,2296 L573,1912"/> 
            <glyph glyph-name="Þ" unicode="&#xDE;" horiz-adv-x="932" d=" M324,581 L369,581 Q524,581 596.5,646.5 Q669,712 669,888 Q669,1052 605.5,1120 Q542,1188 401,1188 L324,1188 M72,0 L72,1792 L324,1792 L324,1411 L504,1411 Q720,1411 825.5,1273.5 Q931,1136 931,886 Q931,622 812.5,493 Q694,364 457,364 L326,364 L326,0"/> 
            <glyph glyph-name="ß" unicode="&#xDF;" horiz-adv-x="1024" d=" M512,-18 L512,192 Q591,192 641.5,210.5 Q692,229 720,271.5 Q748,314 758,370 Q768,426 768,512 Q768,653 703.5,732.5 Q639,812 512,812 L512,1024 Q568,1024 608,1051 Q648,1078 670,1125.5 Q692,1173 701.5,1226.5 Q711,1280 711,1344 Q711,1404 704.5,1446 Q698,1488 681,1525 Q664,1562 630,1581 Q596,1600 544,1600 Q495,1600 462.5,1582.5 Q430,1565 413.5,1530 Q397,1495 390.5,1455 Q384,1415 384,1359 L384,0 L128,0 L128,1354 Q128,1561 226.5,1685.5 Q325,1810 512,1810 Q735,1810 847.5,1690 Q960,1570 960,1344 Q960,1191 906,1095.5 Q852,1000 741,939 Q873,903 948.5,791 Q1024,679 1024,512 Q1024,247 899,114.5 Q774,-18 512,-18"/> 
            <glyph glyph-name="à" unicode="&#xE0;" horiz-adv-x="886" d=" M468,192 Q495,192 520.5,208 Q546,224 559,239 Q572,254 591,279 Q594,284 596,286 L596,640 Q580,629 543,606 Q506,583 484,568.5 Q462,554 431,528.5 Q400,503 383,479.5 Q366,456 353,422 Q340,388 340,351 Q340,192 468,192 M340,-18 Q233,-18 158.5,74.5 Q84,167 84,283 Q84,376 115.5,452 Q147,528 182,573.5 Q217,619 299,667.5 Q381,716 423,734 Q465,752 569,793 Q587,800 596,804 L596,896 Q596,993 569,1046.5 Q542,1100 468,1100 Q402,1100 373.5,1054.5 Q345,1009 341,929 Q340,918 340,896 L84,896 Q86,1080 187,1189 Q288,1298 468,1298 Q647,1298 749.5,1187.5 Q852,1077 852,896 L852,320 Q852,120 885,0 L630,0 L596,192 Q576,152 563.5,130 Q551,108 527,75.5 Q503,43 479,25.5 Q455,8 419,-5 Q383,-18 340,-18 M392,1400 L136,1784 L392,1784 L520,1400"/> 
            <glyph glyph-name="á" unicode="&#xE1;" horiz-adv-x="886" d=" M468,192 Q495,192 520.5,208 Q546,224 559,239 Q572,254 591,279 Q594,284 596,286 L596,640 Q580,629 543,606 Q506,583 484,568.5 Q462,554 431,528.5 Q400,503 383,479.5 Q366,456 353,422 Q340,388 340,351 Q340,192 468,192 M340,-18 Q233,-18 158.5,74.5 Q84,167 84,283 Q84,376 115.5,452 Q147,528 182,573.5 Q217,619 299,667.5 Q381,716 423,734 Q465,752 569,793 Q587,800 596,804 L596,896 Q596,993 569,1046.5 Q542,1100 468,1100 Q402,1100 373.5,1054.5 Q345,1009 341,929 Q340,918 340,896 L84,896 Q86,1080 187,1189 Q288,1298 468,1298 Q647,1298 749.5,1187.5 Q852,1077 852,896 L852,320 Q852,120 885,0 L630,0 L596,192 Q576,152 563.5,130 Q551,108 527,75.5 Q503,43 479,25.5 Q455,8 419,-5 Q383,-18 340,-18 M392,1400 L520,1784 L776,1784 L520,1400"/> 
            <glyph glyph-name="â" unicode="&#xE2;" horiz-adv-x="886" d=" M468,192 Q495,192 520.5,208 Q546,224 559,239 Q572,254 591,279 Q594,284 596,286 L596,640 Q580,629 543,606 Q506,583 484,568.5 Q462,554 431,528.5 Q400,503 383,479.5 Q366,456 353,422 Q340,388 340,351 Q340,192 468,192 M340,-18 Q233,-18 158.5,74.5 Q84,167 84,283 Q84,376 115.5,452 Q147,528 182,573.5 Q217,619 299,667.5 Q381,716 423,734 Q465,752 569,793 Q587,800 596,804 L596,896 Q596,993 569,1046.5 Q542,1100 468,1100 Q402,1100 373.5,1054.5 Q345,1009 341,929 Q340,918 340,896 L84,896 Q86,1080 187,1189 Q288,1298 468,1298 Q647,1298 749.5,1187.5 Q852,1077 852,896 L852,320 Q852,120 885,0 L630,0 L596,192 Q576,152 563.5,130 Q551,108 527,75.5 Q503,43 479,25.5 Q455,8 419,-5 Q383,-18 340,-18 M136,1400 L328,1784 L584,1784 L776,1400 L584,1400 L456,1656 L328,1400"/> 
            <glyph glyph-name="ã" unicode="&#xE3;" horiz-adv-x="886" d=" M468,192 Q495,192 520.5,208 Q546,224 559,239 Q572,254 591,279 Q594,284 596,286 L596,640 Q580,629 543,606 Q506,583 484,568.5 Q462,554 431,528.5 Q400,503 383,479.5 Q366,456 353,422 Q340,388 340,351 Q340,192 468,192 M340,-18 Q233,-18 158.5,74.5 Q84,167 84,283 Q84,376 115.5,452 Q147,528 182,573.5 Q217,619 299,667.5 Q381,716 423,734 Q465,752 569,793 Q587,800 596,804 L596,896 Q596,993 569,1046.5 Q542,1100 468,1100 Q402,1100 373.5,1054.5 Q345,1009 341,929 Q340,918 340,896 L84,896 Q86,1080 187,1189 Q288,1298 468,1298 Q647,1298 749.5,1187.5 Q852,1077 852,896 L852,320 Q852,120 885,0 L630,0 L596,192 Q576,152 563.5,130 Q551,108 527,75.5 Q503,43 479,25.5 Q455,8 419,-5 Q383,-18 340,-18 M589,1400 Q541,1400 490.5,1422 Q440,1444 393,1465.5 Q346,1487 305,1487 Q257,1487 257,1420 L103,1420 Q103,1536 160.5,1614.5 Q218,1693 323,1693 Q381,1693 468,1650 Q555,1607 604,1607 Q655,1607 655,1676 L809,1676 Q809,1559 751.5,1479.5 Q694,1400 589,1400"/> 
            <glyph glyph-name="ä" unicode="&#xE4;" horiz-adv-x="886" d=" M468,192 Q495,192 520.5,208 Q546,224 559,239 Q572,254 591,279 Q594,284 596,286 L596,640 Q580,629 543,606 Q506,583 484,568.5 Q462,554 431,528.5 Q400,503 383,479.5 Q366,456 353,422 Q340,388 340,351 Q340,192 468,192 M340,-18 Q233,-18 158.5,74.5 Q84,167 84,283 Q84,376 115.5,452 Q147,528 182,573.5 Q217,619 299,667.5 Q381,716 423,734 Q465,752 569,793 Q587,800 596,804 L596,896 Q596,993 569,1046.5 Q542,1100 468,1100 Q402,1100 373.5,1054.5 Q345,1009 341,929 Q340,918 340,896 L84,896 Q86,1080 187,1189 Q288,1298 468,1298 Q647,1298 749.5,1187.5 Q852,1077 852,896 L852,320 Q852,120 885,0 L630,0 L596,192 Q576,152 563.5,130 Q551,108 527,75.5 Q503,43 479,25.5 Q455,8 419,-5 Q383,-18 340,-18 M520,1400 L520,1656 L776,1656 L776,1400 M136,1400 L136,1656 L392,1656 L392,1400"/> 
            <glyph glyph-name="å" unicode="&#xE5;" horiz-adv-x="886" d=" M468,192 Q495,192 520.5,208 Q546,224 559,239 Q572,254 591,279 Q594,284 596,286 L596,640 Q580,629 543,606 Q506,583 484,568.5 Q462,554 431,528.5 Q400,503 383,479.5 Q366,456 353,422 Q340,388 340,351 Q340,192 468,192 M340,-18 Q233,-18 158.5,74.5 Q84,167 84,283 Q84,376 115.5,452 Q147,528 182,573.5 Q217,619 299,667.5 Q381,716 423,734 Q465,752 569,793 Q587,800 596,804 L596,896 Q596,993 569,1046.5 Q542,1100 468,1100 Q402,1100 373.5,1054.5 Q345,1009 341,929 Q340,918 340,896 L84,896 Q86,1080 187,1189 Q288,1298 468,1298 Q647,1298 749.5,1187.5 Q852,1077 852,896 L852,320 Q852,120 885,0 L630,0 L596,192 Q576,152 563.5,130 Q551,108 527,75.5 Q503,43 479,25.5 Q455,8 419,-5 Q383,-18 340,-18 M573,1400 Q339,1400 269.5,1470 Q200,1540 200,1656 Q200,1772 269.5,1842 Q339,1912 456,1912 Q573,1912 642.5,1842 Q712,1772 712,1656 Q712,1540 573,1400 M396,1528 Q516,1528 550,1562.5 Q584,1597 584,1656 Q584,1715 550,1749.5 Q516,1784 456,1784 Q396,1784 362,1750 Q328,1716 328,1656 Q328,1596 396,1528"/> 
            <glyph glyph-name="æ" unicode="&#xE6;" horiz-adv-x="1363" d=" M864,764 L981,764 Q1021,770 1043,776.5 Q1065,783 1084.5,797.5 Q1104,812 1112,837.5 Q1120,863 1120,904 Q1120,983 1089,1035.5 Q1058,1088 992,1088 Q965,1088 944.5,1076.5 Q924,1065 910.5,1049.5 Q897,1034 887.5,1005.5 Q878,977 873.5,954.5 Q869,932 867,894 Q865,856 864.5,835 Q864,814 864,775 M481,192 Q565,192 652,291 Q613,433 609,580 Q553,565 514.5,550.5 Q476,536 435.5,510 Q395,484 374,444 Q353,404 353,351 Q353,192 481,192 M353,-18 Q246,-18 171.5,74.5 Q97,167 97,283 Q97,348 112.5,403 Q128,458 152,497.5 Q176,537 217,570.5 Q258,604 296.5,625.5 Q335,647 393.5,667 Q452,687 497,698.5 Q542,710 609,725 L609,896 Q609,993 582,1046.5 Q555,1100 481,1100 Q431,1100 401.5,1071 Q372,1042 362.5,1000 Q353,958 353,896 L97,896 Q99,1080 200.5,1189 Q302,1298 481,1298 Q576,1298 644.5,1258 Q713,1218 737,1146 Q775,1213 839.5,1255.5 Q904,1298 992,1298 Q1169,1298 1261.5,1185 Q1354,1072 1354,880 Q1354,841 1346.5,809 Q1339,777 1326.5,753.5 Q1314,730 1293,711.5 Q1272,693 1251,680.5 Q1230,668 1199,658.5 Q1168,649 1141,644 Q1114,639 1075.5,635 Q1037,631 1008,629 Q979,627 936,624.5 Q893,622 864,619 L864,576 L864,533 Q862,496 863.5,456 Q865,416 867,377 Q869,338 878,303.5 Q887,269 900,242.5 Q913,216 936.5,200.5 Q960,185 992,185 Q1016,185 1035,193.5 Q1054,202 1066,214 Q1078,226 1086.5,248.5 Q1095,271 1099,288.5 Q1103,306 1105,337.5 Q1107,369 1107.5,387 Q1108,405 1108,439 L1108,444 L1108,448 L1363,448 Q1363,220 1275.5,101 Q1188,-18 991,-18 Q767,-18 684,179 Q652,133 625,102.5 Q598,72 558.5,42 Q519,12 467.5,-3 Q416,-18 353,-18"/> 
            <glyph glyph-name="ç" unicode="&#xE7;" horiz-adv-x="822" d=" M437,-18 Q344,-18 275.5,13 Q207,44 166,94 Q125,144 100,221.5 Q75,299 65.5,376.5 Q56,454 54,557 Q51,640 54,724 Q56,826 65.5,904 Q75,982 100.5,1059.5 Q126,1137 166.5,1186.5 Q207,1236 275.5,1267 Q344,1298 437,1298 Q639,1298 727,1189 Q815,1080 821,866 L821,832 L565,832 L565,868 Q564,916 558.5,952 Q553,988 540.5,1024 Q528,1060 501.5,1079.5 Q475,1099 437,1099 Q399,1099 373,1076.5 Q347,1054 333.5,1012 Q320,970 314,925.5 Q308,881 307,823 Q303,699 307,449 Q309,394 315,352.5 Q321,311 334.5,272.5 Q348,234 374,213 Q400,192 437,192 Q471,192 495.5,205 Q520,218 533,237 Q546,256 553.5,288 Q561,320 563,347.5 Q565,375 565,417 L565,448 L821,448 L821,415 Q818,314 796,236.5 Q774,159 729.5,101 Q685,43 611.5,12.5 Q538,-18 437,-18 M349,-513 L349,-385 Q364,-385 400.5,-386 Q437,-387 457,-387 Q525,-387 565,-373.5 Q605,-360 605,-321 Q605,-307 597.5,-294 Q590,-281 575.5,-269.5 Q561,-258 546.5,-249 Q532,-240 510,-230.5 Q488,-221 475,-215.5 Q462,-210 440,-202.5 Q418,-195 413,-193 L413,-1 L541,-1 L541,-129 Q588,-142 622.5,-155 Q657,-168 702,-191 Q747,-214 772,-247 Q797,-280 797,-321 Q797,-359 786,-388.5 Q775,-418 757.5,-438 Q740,-458 711.5,-472 Q683,-486 655,-494 Q627,-502 586,-506.5 Q545,-511 512.5,-512 Q480,-513 434,-513"/> 
            <glyph glyph-name="è" unicode="&#xE8;" horiz-adv-x="865" d=" M479,-18 Q386,-18 317.5,14 Q249,46 208.5,97.5 Q168,149 143,229.5 Q118,310 108.5,390.5 Q99,471 97,578 Q94,662 97,746 Q100,846 110.5,923.5 Q121,1001 147,1074 Q173,1147 214.5,1194 Q256,1241 323.5,1269.5 Q391,1298 481,1298 Q563,1298 625.5,1276.5 Q688,1255 729.5,1211.5 Q771,1168 798.5,1115 Q826,1062 840,986.5 Q854,911 859.5,838 Q865,765 865,670 L865,640 L353,640 L353,576 L353,535 Q351,498 352.5,458.5 Q354,419 356,381 Q358,343 367,308.5 Q376,274 389,248 Q402,222 425.5,207 Q449,192 481,192 Q521,192 547,207.5 Q573,223 585.5,254 Q598,285 603,316 Q608,347 609,394 L609,448 L863,448 L863,397 Q854,192 762,87 Q670,-18 479,-18 M353,768 L607,768 L607,845 Q606,896 601,934 Q596,972 583.5,1010 Q571,1048 545,1068 Q519,1088 481,1088 Q442,1088 415.5,1067 Q389,1046 376.5,1006.5 Q364,967 359,929 Q354,891 353,838 M413,1400 L157,1784 L413,1784 L541,1400"/> 
            <glyph glyph-name="é" unicode="&#xE9;" horiz-adv-x="865" d=" M479,-18 Q386,-18 317.5,14 Q249,46 208.5,97.5 Q168,149 143,229.5 Q118,310 108.5,390.5 Q99,471 97,578 Q94,662 97,746 Q100,846 110.5,923.5 Q121,1001 147,1074 Q173,1147 214.5,1194 Q256,1241 323.5,1269.5 Q391,1298 481,1298 Q563,1298 625.5,1276.5 Q688,1255 729.5,1211.5 Q771,1168 798.5,1115 Q826,1062 840,986.5 Q854,911 859.5,838 Q865,765 865,670 L865,640 L353,640 L353,576 L353,535 Q351,498 352.5,458.5 Q354,419 356,381 Q358,343 367,308.5 Q376,274 389,248 Q402,222 425.5,207 Q449,192 481,192 Q521,192 547,207.5 Q573,223 585.5,254 Q598,285 603,316 Q608,347 609,394 L609,448 L863,448 L863,397 Q854,192 762,87 Q670,-18 479,-18 M353,768 L607,768 L607,845 Q606,896 601,934 Q596,972 583.5,1010 Q571,1048 545,1068 Q519,1088 481,1088 Q442,1088 415.5,1067 Q389,1046 376.5,1006.5 Q364,967 359,929 Q354,891 353,838 M413,1400 L541,1784 L797,1784 L541,1400"/> 
            <glyph glyph-name="ê" unicode="&#xEA;" horiz-adv-x="865" d=" M479,-18 Q386,-18 317.5,14 Q249,46 208.5,97.5 Q168,149 143,229.5 Q118,310 108.5,390.5 Q99,471 97,578 Q94,662 97,746 Q100,846 110.5,923.5 Q121,1001 147,1074 Q173,1147 214.5,1194 Q256,1241 323.5,1269.5 Q391,1298 481,1298 Q563,1298 625.5,1276.5 Q688,1255 729.5,1211.5 Q771,1168 798.5,1115 Q826,1062 840,986.5 Q854,911 859.5,838 Q865,765 865,670 L865,640 L353,640 L353,576 L353,535 Q351,498 352.5,458.5 Q354,419 356,381 Q358,343 367,308.5 Q376,274 389,248 Q402,222 425.5,207 Q449,192 481,192 Q521,192 547,207.5 Q573,223 585.5,254 Q598,285 603,316 Q608,347 609,394 L609,448 L863,448 L863,397 Q854,192 762,87 Q670,-18 479,-18 M353,768 L607,768 L607,845 Q606,896 601,934 Q596,972 583.5,1010 Q571,1048 545,1068 Q519,1088 481,1088 Q442,1088 415.5,1067 Q389,1046 376.5,1006.5 Q364,967 359,929 Q354,891 353,838 M157,1400 L349,1784 L605,1784 L797,1400 L605,1400 L477,1656 L349,1400"/> 
            <glyph glyph-name="ë" unicode="&#xEB;" horiz-adv-x="865" d=" M479,-18 Q386,-18 317.5,14 Q249,46 208.5,97.5 Q168,149 143,229.5 Q118,310 108.5,390.5 Q99,471 97,578 Q94,662 97,746 Q100,846 110.5,923.5 Q121,1001 147,1074 Q173,1147 214.5,1194 Q256,1241 323.5,1269.5 Q391,1298 481,1298 Q563,1298 625.5,1276.5 Q688,1255 729.5,1211.5 Q771,1168 798.5,1115 Q826,1062 840,986.5 Q854,911 859.5,838 Q865,765 865,670 L865,640 L353,640 L353,576 L353,535 Q351,498 352.5,458.5 Q354,419 356,381 Q358,343 367,308.5 Q376,274 389,248 Q402,222 425.5,207 Q449,192 481,192 Q521,192 547,207.5 Q573,223 585.5,254 Q598,285 603,316 Q608,347 609,394 L609,448 L863,448 L863,397 Q854,192 762,87 Q670,-18 479,-18 M353,768 L607,768 L607,845 Q606,896 601,934 Q596,972 583.5,1010 Q571,1048 545,1068 Q519,1088 481,1088 Q442,1088 415.5,1067 Q389,1046 376.5,1006.5 Q364,967 359,929 Q354,891 353,838 M541,1400 L541,1656 L797,1656 L797,1400 M157,1400 L157,1656 L413,1656 L413,1400"/> 
            <glyph glyph-name="ì" unicode="&#xEC;" horiz-adv-x="384" d=" M128,0 L128,1280 L384,1280 L384,0 M192,1400 L-64,1784 L192,1784 L320,1400"/> 
            <glyph glyph-name="í" unicode="&#xED;" horiz-adv-x="576" d=" M128,0 L128,1280 L384,1280 L384,0 M192,1400 L320,1784 L576,1784 L320,1400"/> 
            <glyph glyph-name="î" unicode="&#xEE;" horiz-adv-x="576" d=" M128,0 L128,1280 L384,1280 L384,0 M-64,1400 L128,1784 L384,1784 L576,1400 L384,1400 L256,1656 L128,1400"/> 
            <glyph glyph-name="ï" unicode="&#xEF;" horiz-adv-x="576" d=" M128,0 L128,1280 L384,1280 L384,0 M320,1400 L320,1656 L576,1656 L576,1400 M-64,1400 L-64,1656 L192,1656 L192,1400"/> 
            <glyph glyph-name="ð" unicode="&#xF0;" horiz-adv-x="1089" d=" M576,192 Q631,192 670,219 Q709,246 729.5,294 Q750,342 759,395.5 Q768,449 768,512 L768,978 Q693,1088 576,1088 Q384,1088 384,704 L384,698 Q384,625 385,585 Q386,545 391,474.5 Q396,404 408.5,363.5 Q421,323 441,278.5 Q461,234 495.5,213 Q530,192 576,192 M576,-18 Q470,-18 390,16 Q310,50 261,107.5 Q212,165 182,251 Q152,337 140.5,430 Q129,523 129,640 Q129,741 139,830 Q149,919 176,1007 Q203,1095 245,1157.5 Q287,1220 355.5,1259 Q424,1298 512,1298 Q602,1298 674,1257 Q746,1216 768,1152 Q768,1345 699,1446 L256,1344 L256,1472 L576,1546 Q504,1578 413.5,1589 Q323,1600 192,1600 L192,1810 Q434,1810 599,1766 Q764,1722 860,1611 L1088,1664 L1088,1536 L932,1500 Q1024,1311 1024,960 L1024,576 Q1024,452 997.5,346.5 Q971,241 918.5,158.5 Q866,76 778,29 Q690,-18 576,-18"/> 
            <glyph glyph-name="ñ" unicode="&#xF1;" horiz-adv-x="886" d=" M117,0 L117,1280 L373,1280 L373,1142 Q430,1194 466,1221.5 Q502,1249 565.5,1273.5 Q629,1298 701,1298 Q783,1298 834,1238 Q885,1178 885,1091 L885,0 L629,0 L629,960 Q629,1027 610,1057.5 Q591,1088 533,1088 Q500,1088 467.5,1074.5 Q435,1061 419,1049.5 Q403,1038 373,1013 L373,0 M634,1400 Q586,1400 535.5,1422 Q485,1444 438,1465.5 Q391,1487 350,1487 Q302,1487 302,1420 L148,1420 Q148,1536 205.5,1614.5 Q263,1693 368,1693 Q426,1693 513,1650 Q600,1607 649,1607 Q700,1607 700,1676 L854,1676 Q854,1559 796.5,1479.5 Q739,1400 634,1400"/> 
            <glyph glyph-name="ò" unicode="&#xF2;" horiz-adv-x="861" d=" M683,-18 Q271,-18 182,102 Q93,222 93,448 L93,832 Q93,1058 182,1178 Q271,1298 477,1298 Q683,1298 772,1178 Q861,1058 861,832 L861,448 Q861,222 683,-18 M450,192 Q504,192 524.5,200 Q545,208 558.5,219.5 Q572,231 581,253.5 Q590,276 595,293 Q600,310 602,342 Q604,374 604.5,392.5 Q605,411 605,448 L605,832 Q605,869 604.5,887.5 Q604,906 602,938 Q600,970 595,987 Q590,1004 581,1026.5 Q572,1049 558.5,1060.5 Q545,1072 524.5,1080 Q504,1088 477,1088 Q450,1088 429.5,1080 Q409,1072 395.5,1060.5 Q382,1049 373,1026.5 Q364,1004 359,987 Q354,970 352,938 Q350,906 349.5,887.5 Q349,869 349,832 L349,448 Q349,411 349.5,392.5 Q350,374 352,342 Q354,310 359,293 Q364,276 373,253.5 Q382,231 395.5,219.5 Q409,208 450,192 M413,1400 L157,1784 L413,1784 L541,1400"/> 
            <glyph glyph-name="ó" unicode="&#xF3;" horiz-adv-x="861" d=" M683,-18 Q271,-18 182,102 Q93,222 93,448 L93,832 Q93,1058 182,1178 Q271,1298 477,1298 Q683,1298 772,1178 Q861,1058 861,832 L861,448 Q861,222 683,-18 M450,192 Q504,192 524.5,200 Q545,208 558.5,219.5 Q572,231 581,253.5 Q590,276 595,293 Q600,310 602,342 Q604,374 604.5,392.5 Q605,411 605,448 L605,832 Q605,869 604.5,887.5 Q604,906 602,938 Q600,970 595,987 Q590,1004 581,1026.5 Q572,1049 558.5,1060.5 Q545,1072 524.5,1080 Q504,1088 477,1088 Q450,1088 429.5,1080 Q409,1072 395.5,1060.5 Q382,1049 373,1026.5 Q364,1004 359,987 Q354,970 352,938 Q350,906 349.5,887.5 Q349,869 349,832 L349,448 Q349,411 349.5,392.5 Q350,374 352,342 Q354,310 359,293 Q364,276 373,253.5 Q382,231 395.5,219.5 Q409,208 450,192 M413,1400 L541,1784 L797,1784 L541,1400"/> 
            <glyph glyph-name="ô" unicode="&#xF4;" horiz-adv-x="861" d=" M683,-18 Q271,-18 182,102 Q93,222 93,448 L93,832 Q93,1058 182,1178 Q271,1298 477,1298 Q683,1298 772,1178 Q861,1058 861,832 L861,448 Q861,222 683,-18 M450,192 Q504,192 524.5,200 Q545,208 558.5,219.5 Q572,231 581,253.5 Q590,276 595,293 Q600,310 602,342 Q604,374 604.5,392.5 Q605,411 605,448 L605,832 Q605,869 604.5,887.5 Q604,906 602,938 Q600,970 595,987 Q590,1004 581,1026.5 Q572,1049 558.5,1060.5 Q545,1072 524.5,1080 Q504,1088 477,1088 Q450,1088 429.5,1080 Q409,1072 395.5,1060.5 Q382,1049 373,1026.5 Q364,1004 359,987 Q354,970 352,938 Q350,906 349.5,887.5 Q349,869 349,832 L349,448 Q349,411 349.5,392.5 Q350,374 352,342 Q354,310 359,293 Q364,276 373,253.5 Q382,231 395.5,219.5 Q409,208 450,192 M157,1400 L349,1784 L605,1784 L797,1400 L605,1400 L477,1656 L349,1400"/> 
            <glyph glyph-name="õ" unicode="&#xF5;" horiz-adv-x="861" d=" M683,-18 Q271,-18 182,102 Q93,222 93,448 L93,832 Q93,1058 182,1178 Q271,1298 477,1298 Q683,1298 772,1178 Q861,1058 861,832 L861,448 Q861,222 683,-18 M450,192 Q504,192 524.5,200 Q545,208 558.5,219.5 Q572,231 581,253.5 Q590,276 595,293 Q600,310 602,342 Q604,374 604.5,392.5 Q605,411 605,448 L605,832 Q605,869 604.5,887.5 Q604,906 602,938 Q600,970 595,987 Q590,1004 581,1026.5 Q572,1049 558.5,1060.5 Q545,1072 524.5,1080 Q504,1088 477,1088 Q450,1088 429.5,1080 Q409,1072 395.5,1060.5 Q382,1049 373,1026.5 Q364,1004 359,987 Q354,970 352,938 Q350,906 349.5,887.5 Q349,869 349,832 L349,448 Q349,411 349.5,392.5 Q350,374 352,342 Q354,310 359,293 Q364,276 373,253.5 Q382,231 395.5,219.5 Q409,208 450,192 M610,1400 Q562,1400 511.5,1422 Q461,1444 414,1465.5 Q367,1487 326,1487 Q278,1487 278,1420 L124,1420 Q124,1536 181.5,1614.5 Q239,1693 344,1693 Q402,1693 489,1650 Q576,1607 625,1607 Q676,1607 676,1676 L830,1676 Q830,1559 772.5,1479.5 Q715,1400 610,1400"/> 
            <glyph glyph-name="ö" unicode="&#xF6;" horiz-adv-x="861" d=" M683,-18 Q271,-18 182,102 Q93,222 93,448 L93,832 Q93,1058 182,1178 Q271,1298 477,1298 Q683,1298 772,1178 Q861,1058 861,832 L861,448 Q861,222 683,-18 M450,192 Q504,192 524.5,200 Q545,208 558.5,219.5 Q572,231 581,253.5 Q590,276 595,293 Q600,310 602,342 Q604,374 604.5,392.5 Q605,411 605,448 L605,832 Q605,869 604.5,887.5 Q604,906 602,938 Q600,970 595,987 Q590,1004 581,1026.5 Q572,1049 558.5,1060.5 Q545,1072 524.5,1080 Q504,1088 477,1088 Q450,1088 429.5,1080 Q409,1072 395.5,1060.5 Q382,1049 373,1026.5 Q364,1004 359,987 Q354,970 352,938 Q350,906 349.5,887.5 Q349,869 349,832 L349,448 Q349,411 349.5,392.5 Q350,374 352,342 Q354,310 359,293 Q364,276 373,253.5 Q382,231 395.5,219.5 Q409,208 450,192 M541,1400 L541,1656 L797,1656 L797,1400 M157,1400 L157,1656 L413,1656 L413,1400"/> 
            <glyph glyph-name="÷" unicode="&#xF7;" horiz-adv-x="640" d=" M192,879 L192,1135 L448,1135 L448,879 M0,576 L0,768 L640,768 L640,576 M192,233 L192,489 L448,489 L448,233"/> 
            <glyph glyph-name="ø" unicode="&#xF8;" horiz-adv-x="897" d=" M384,346 L622,1015 Q594,1088 512,1088 Q485,1088 464.5,1080 Q444,1072 430.5,1060.5 Q417,1049 408,1026.5 Q399,1004 394,987 Q389,970 387,938 Q385,906 384.5,887.5 Q384,869 384,832 M512,192 Q539,192 559.5,200 Q580,208 593.5,219.5 Q607,231 616,253.5 Q625,276 630,293 Q635,310 637,342 Q639,374 639.5,392.5 Q640,411 640,448 L640,803 L431,220 Q464,192 512,192 M272,-222 L196,-196 L280,43 Q128,141 128,448 L128,832 Q128,942 148,1025 Q168,1108 212,1170.5 Q256,1233 331.5,1265.5 Q407,1298 512,1298 Q619,1298 707,1258 L789,1491 L876,1462 L784,1205 Q896,1093 896,832 L896,448 Q896,222 807,102 Q718,-18 512,-18 Q418,-18 354,6"/> 
            <glyph glyph-name="ù" unicode="&#xF9;" horiz-adv-x="882" d=" M300,-18 Q216,-18 165,41.5 Q114,101 114,189 L114,1280 L370,1280 L370,267 Q370,227 394.5,202 Q419,177 458,177 Q479,177 499,182 Q519,187 538.5,199.5 Q558,212 569,219.5 Q580,227 600.5,245 Q621,263 626,267 L626,1280 L882,1280 L882,0 L626,0 L626,138 Q588,105 570.5,90 Q553,75 517,49.5 Q481,24 453.5,12.5 Q426,1 385,-8.5 Q344,-18 300,-18 M434,1400 L178,1784 L434,1784 L562,1400"/> 
            <glyph glyph-name="ú" unicode="&#xFA;" horiz-adv-x="882" d=" M300,-18 Q216,-18 165,41.5 Q114,101 114,189 L114,1280 L370,1280 L370,267 Q370,227 394.5,202 Q419,177 458,177 Q479,177 499,182 Q519,187 538.5,199.5 Q558,212 569,219.5 Q580,227 600.5,245 Q621,263 626,267 L626,1280 L882,1280 L882,0 L626,0 L626,138 Q588,105 570.5,90 Q553,75 517,49.5 Q481,24 453.5,12.5 Q426,1 385,-8.5 Q344,-18 300,-18 M434,1400 L562,1784 L818,1784 L562,1400"/> 
            <glyph glyph-name="û" unicode="&#xFB;" horiz-adv-x="882" d=" M300,-18 Q216,-18 165,41.5 Q114,101 114,189 L114,1280 L370,1280 L370,267 Q370,227 394.5,202 Q419,177 458,177 Q479,177 499,182 Q519,187 538.5,199.5 Q558,212 569,219.5 Q580,227 600.5,245 Q621,263 626,267 L626,1280 L882,1280 L882,0 L626,0 L626,138 Q588,105 570.5,90 Q553,75 517,49.5 Q481,24 453.5,12.5 Q426,1 385,-8.5 Q344,-18 300,-18 M178,1400 L370,1784 L626,1784 L818,1400 L626,1400 L498,1656 L370,1400"/> 
            <glyph glyph-name="ü" unicode="&#xFC;" horiz-adv-x="882" d=" M300,-18 Q216,-18 165,41.5 Q114,101 114,189 L114,1280 L370,1280 L370,267 Q370,227 394.5,202 Q419,177 458,177 Q479,177 499,182 Q519,187 538.5,199.5 Q558,212 569,219.5 Q580,227 600.5,245 Q621,263 626,267 L626,1280 L882,1280 L882,0 L626,0 L626,138 Q588,105 570.5,90 Q553,75 517,49.5 Q481,24 453.5,12.5 Q426,1 385,-8.5 Q344,-18 300,-18 M562,1400 L562,1656 L818,1656 L818,1400 M178,1400 L178,1656 L434,1656 L434,1400"/> 
            <glyph glyph-name="ý" unicode="&#xFD;" horiz-adv-x="853" d=" M84,-320 L84,-128 Q160,-128 205.5,-118 Q251,-108 274,-82.5 Q297,-57 303.5,-26.5 Q310,4 310,58 L20,1280 L276,1280 Q425,457 437,384 Q458,519 484.5,668.5 Q511,818 544.5,998.5 Q578,1179 596,1280 L852,1280 L532,-64 Q500,-203 397,-261.5 Q294,-320 110,-320 M362,1400 L490,1784 L746,1784 L490,1400"/> 
            <glyph glyph-name="þ" unicode="&#xFE;" horiz-adv-x="961" d=" M576,192 Q617,192 644.5,222 Q672,252 684.5,307.5 Q697,363 701.5,418 Q706,473 706,546 L706,823 Q706,868 703.5,901.5 Q701,935 693.5,972 Q686,1009 672,1033 Q658,1057 634,1072.5 Q610,1088 576,1088 Q470,1088 384,1037 L384,232 Q483,192 576,192 M128,-410 L128,1791 L384,1791 L384,1153 Q420,1191 438,1208 Q456,1225 490.5,1251 Q525,1277 562,1287.5 Q599,1298 644,1298 Q709,1298 760,1274.5 Q811,1251 844,1218 Q877,1185 900,1123.5 Q923,1062 934.5,1012 Q946,962 952,877 Q958,792 959,739.5 Q960,687 960,594 Q960,507 952,427.5 Q944,348 922.5,264 Q901,180 866.5,119.5 Q832,59 773.5,20.5 Q715,-18 640,-18 Q562,-18 502,19 Q442,56 384,116 L384,-410"/> 
            <glyph glyph-name="ÿ" unicode="&#xFF;" horiz-adv-x="853" d=" M84,-320 L84,-128 Q160,-128 205.5,-118 Q251,-108 274,-82.5 Q297,-57 303.5,-26.5 Q310,4 310,58 L20,1280 L276,1280 Q425,457 437,384 Q458,519 484.5,668.5 Q511,818 544.5,998.5 Q578,1179 596,1280 L852,1280 L532,-64 Q500,-203 397,-261.5 Q294,-320 110,-320 M490,1400 L490,1656 L746,1656 L746,1400 M106,1400 L106,1656 L362,1656 L362,1400"/> 
            <glyph glyph-name="Ā" unicode="&#x100;" horiz-adv-x="1040" d=" M400,640 L656,640 L528,1408 M16,0 L400,1792 L656,1792 L1040,0 L784,0 L688,448 L368,448 L272,0 M311,1912 L311,2064 L745,2064 L745,1912"/> 
            <glyph glyph-name="ā" unicode="&#x101;" horiz-adv-x="886" d=" M468,192 Q495,192 520.5,208 Q546,224 559,239 Q572,254 591,279 Q594,284 596,286 L596,640 Q580,629 543,606 Q506,583 484,568.5 Q462,554 431,528.5 Q400,503 383,479.5 Q366,456 353,422 Q340,388 340,351 Q340,192 468,192 M340,-18 Q233,-18 158.5,74.5 Q84,167 84,283 Q84,376 115.5,452 Q147,528 182,573.5 Q217,619 299,667.5 Q381,716 423,734 Q465,752 569,793 Q587,800 596,804 L596,896 Q596,993 569,1046.5 Q542,1100 468,1100 Q402,1100 373.5,1054.5 Q345,1009 341,929 Q340,918 340,896 L84,896 Q86,1080 187,1189 Q288,1298 468,1298 Q647,1298 749.5,1187.5 Q852,1077 852,896 L852,320 Q852,120 885,0 L630,0 L596,192 Q576,152 563.5,130 Q551,108 527,75.5 Q503,43 479,25.5 Q455,8 419,-5 Q383,-18 340,-18 M239,1400 L239,1552 L673,1552 L673,1400"/> 
            <glyph glyph-name="Ă" unicode="&#x102;" horiz-adv-x="1040" d=" M400,640 L656,640 L528,1408 M16,0 L400,1792 L656,1792 L1040,0 L784,0 L688,448 L368,448 L272,0 M528,1912 Q349,1912 278.5,2005 Q208,2098 208,2296 L400,2296 Q400,2194 424.5,2149 Q449,2104 528,2104 Q607,2104 631.5,2149.5 Q656,2195 656,2296 L848,2296 Q848,2096 778.5,2004 Q709,1912 528,1912"/> 
            <glyph glyph-name="ă" unicode="&#x103;" horiz-adv-x="886" d=" M468,192 Q495,192 520.5,208 Q546,224 559,239 Q572,254 591,279 Q594,284 596,286 L596,640 Q580,629 543,606 Q506,583 484,568.5 Q462,554 431,528.5 Q400,503 383,479.5 Q366,456 353,422 Q340,388 340,351 Q340,192 468,192 M340,-18 Q233,-18 158.5,74.5 Q84,167 84,283 Q84,376 115.5,452 Q147,528 182,573.5 Q217,619 299,667.5 Q381,716 423,734 Q465,752 569,793 Q587,800 596,804 L596,896 Q596,993 569,1046.5 Q542,1100 468,1100 Q402,1100 373.5,1054.5 Q345,1009 341,929 Q340,918 340,896 L84,896 Q86,1080 187,1189 Q288,1298 468,1298 Q647,1298 749.5,1187.5 Q852,1077 852,896 L852,320 Q852,120 885,0 L630,0 L596,192 Q576,152 563.5,130 Q551,108 527,75.5 Q503,43 479,25.5 Q455,8 419,-5 Q383,-18 340,-18 M456,1400 Q277,1400 206.5,1493 Q136,1586 136,1784 L328,1784 Q328,1682 352.5,1637 Q377,1592 456,1592 Q535,1592 559.5,1637.5 Q584,1683 584,1784 L776,1784 Q776,1584 706.5,1492 Q637,1400 456,1400"/> 
            <glyph glyph-name="Ą" unicode="&#x104;" horiz-adv-x="1040" d=" M400,640 L656,640 L528,1408 M16,0 L400,1792 L656,1792 L1040,0 L784,0 L688,448 L368,448 L272,0 M985,-519 Q938,-519 908.5,-518.5 Q879,-518 839.5,-516 Q800,-514 775.5,-510.5 Q751,-507 721,-500 Q691,-493 672.5,-483.5 Q654,-474 635,-459.5 Q616,-445 605.5,-426.5 Q595,-408 588.5,-383 Q582,-358 582,-327 Q582,-219 663,-121.5 Q744,-24 838,3 L966,3 Q960,-5 913,-62 Q866,-119 844,-150 Q822,-181 798,-232 Q774,-283 774,-323 Q774,-397 918,-397 Q937,-397 976.5,-394 Q1016,-391 1030,-391 L1030,-519"/> 
            <glyph glyph-name="ą" unicode="&#x105;" horiz-adv-x="886" d=" M468,192 Q495,192 520.5,208 Q546,224 559,239 Q572,254 591,279 Q594,284 596,286 L596,640 Q580,629 543,606 Q506,583 484,568.5 Q462,554 431,528.5 Q400,503 383,479.5 Q366,456 353,422 Q340,388 340,351 Q340,192 468,192 M340,-18 Q233,-18 158.5,74.5 Q84,167 84,283 Q84,376 115.5,452 Q147,528 182,573.5 Q217,619 299,667.5 Q381,716 423,734 Q465,752 569,793 Q587,800 596,804 L596,896 Q596,993 569,1046.5 Q542,1100 468,1100 Q402,1100 373.5,1054.5 Q345,1009 341,929 Q340,918 340,896 L84,896 Q86,1080 187,1189 Q288,1298 468,1298 Q647,1298 749.5,1187.5 Q852,1077 852,896 L852,320 Q852,120 885,0 L630,0 L596,192 Q576,152 563.5,130 Q551,108 527,75.5 Q503,43 479,25.5 Q455,8 419,-5 Q383,-18 340,-18 M789,-515 Q742,-515 712.5,-514.5 Q683,-514 643.5,-512 Q604,-510 579.5,-506.5 Q555,-503 525,-496 Q495,-489 476.5,-479.5 Q458,-470 439,-455.5 Q420,-441 409.5,-422.5 Q399,-404 392.5,-379 Q386,-354 386,-323 Q386,-215 467,-117.5 Q548,-20 642,7 L770,7 Q764,-1 717,-58 Q670,-115 648,-146 Q626,-177 602,-228 Q578,-279 578,-319 Q578,-393 722,-393 Q741,-393 780.5,-390 Q820,-387 834,-387 L834,-515"/> 
            <glyph glyph-name="Ć" unicode="&#x106;" horiz-adv-x="1065" d=" M588,-18 Q475,-18 389,14 Q303,46 248,102.5 Q193,159 158.5,243.5 Q124,328 110,424 Q96,520 96,641 L96,1152 Q96,1273 110,1369 Q124,1465 158.5,1549.5 Q193,1634 248,1690 Q303,1746 389,1778 Q475,1810 588,1810 Q713,1810 804,1773 Q895,1736 949.5,1664 Q1004,1592 1031.5,1497 Q1059,1402 1064,1275 Q1065,1256 1065,1216 L809,1216 L809,1273 Q808,1326 805,1363.5 Q802,1401 794,1441 Q786,1481 770.5,1507.5 Q755,1534 731.5,1556.5 Q708,1579 672,1589.5 Q636,1600 588,1600 Q526,1600 481.5,1580 Q437,1560 412,1528.5 Q387,1497 373.5,1444 Q360,1391 356,1340.5 Q352,1290 352,1216 L352,576 Q352,512 357.5,460 Q363,408 379,356.5 Q395,305 420.5,270 Q446,235 488.5,213.5 Q531,192 588,192 Q645,192 686,214 Q727,236 750.5,270 Q774,304 787.5,357 Q801,410 805,460 Q809,510 809,576 L809,640 L1065,640 L1065,576 Q1065,437 1040.5,332 Q1016,227 961.5,146.5 Q907,66 813.5,24 Q720,-18 588,-18 M516,1912 L644,2296 L900,2296 L644,1912"/> 
            <glyph glyph-name="ć" unicode="&#x107;" horiz-adv-x="822" d=" M437,-18 Q344,-18 275.5,13 Q207,44 166,94 Q125,144 100,221.5 Q75,299 65.5,376.5 Q56,454 54,557 Q51,640 54,724 Q56,826 65.5,904 Q75,982 100.5,1059.5 Q126,1137 166.5,1186.5 Q207,1236 275.5,1267 Q344,1298 437,1298 Q639,1298 727,1189 Q815,1080 821,866 L821,832 L565,832 L565,868 Q564,916 558.5,952 Q553,988 540.5,1024 Q528,1060 501.5,1079.5 Q475,1099 437,1099 Q399,1099 373,1076.5 Q347,1054 333.5,1012 Q320,970 314,925.5 Q308,881 307,823 Q303,699 307,449 Q309,394 315,352.5 Q321,311 334.5,272.5 Q348,234 374,213 Q400,192 437,192 Q471,192 495.5,205 Q520,218 533,237 Q546,256 553.5,288 Q561,320 563,347.5 Q565,375 565,417 L565,448 L821,448 L821,415 Q818,314 796,236.5 Q774,159 729.5,101 Q685,43 611.5,12.5 Q538,-18 437,-18 M413,1400 L541,1784 L797,1784 L541,1400"/> 
            <glyph glyph-name="Ĉ" unicode="&#x108;" horiz-adv-x="1065" d=" M588,-18 Q475,-18 389,14 Q303,46 248,102.5 Q193,159 158.5,243.5 Q124,328 110,424 Q96,520 96,641 L96,1152 Q96,1273 110,1369 Q124,1465 158.5,1549.5 Q193,1634 248,1690 Q303,1746 389,1778 Q475,1810 588,1810 Q713,1810 804,1773 Q895,1736 949.5,1664 Q1004,1592 1031.5,1497 Q1059,1402 1064,1275 Q1065,1256 1065,1216 L809,1216 L809,1273 Q808,1326 805,1363.5 Q802,1401 794,1441 Q786,1481 770.5,1507.5 Q755,1534 731.5,1556.5 Q708,1579 672,1589.5 Q636,1600 588,1600 Q526,1600 481.5,1580 Q437,1560 412,1528.5 Q387,1497 373.5,1444 Q360,1391 356,1340.5 Q352,1290 352,1216 L352,576 Q352,512 357.5,460 Q363,408 379,356.5 Q395,305 420.5,270 Q446,235 488.5,213.5 Q531,192 588,192 Q645,192 686,214 Q727,236 750.5,270 Q774,304 787.5,357 Q801,410 805,460 Q809,510 809,576 L809,640 L1065,640 L1065,576 Q1065,437 1040.5,332 Q1016,227 961.5,146.5 Q907,66 813.5,24 Q720,-18 588,-18 M260,1912 L452,2296 L708,2296 L900,1912 L708,1912 L580,2168 L452,1912"/> 
            <glyph glyph-name="ĉ" unicode="&#x109;" horiz-adv-x="822" d=" M437,-18 Q344,-18 275.5,13 Q207,44 166,94 Q125,144 100,221.5 Q75,299 65.5,376.5 Q56,454 54,557 Q51,640 54,724 Q56,826 65.5,904 Q75,982 100.5,1059.5 Q126,1137 166.5,1186.5 Q207,1236 275.5,1267 Q344,1298 437,1298 Q639,1298 727,1189 Q815,1080 821,866 L821,832 L565,832 L565,868 Q564,916 558.5,952 Q553,988 540.5,1024 Q528,1060 501.5,1079.5 Q475,1099 437,1099 Q399,1099 373,1076.5 Q347,1054 333.5,1012 Q320,970 314,925.5 Q308,881 307,823 Q303,699 307,449 Q309,394 315,352.5 Q321,311 334.5,272.5 Q348,234 374,213 Q400,192 437,192 Q471,192 495.5,205 Q520,218 533,237 Q546,256 553.5,288 Q561,320 563,347.5 Q565,375 565,417 L565,448 L821,448 L821,415 Q818,314 796,236.5 Q774,159 729.5,101 Q685,43 611.5,12.5 Q538,-18 437,-18 M157,1400 L349,1784 L605,1784 L797,1400 L605,1400 L477,1656 L349,1400"/> 
            <glyph glyph-name="Ċ" unicode="&#x10A;" horiz-adv-x="1065" d=" M452,1912 L452,2168 L708,2168 L708,1912 M588,-18 Q475,-18 389,14 Q303,46 248,102.5 Q193,159 158.5,243.5 Q124,328 110,424 Q96,520 96,641 L96,1152 Q96,1273 110,1369 Q124,1465 158.5,1549.5 Q193,1634 248,1690 Q303,1746 389,1778 Q475,1810 588,1810 Q713,1810 804,1773 Q895,1736 949.5,1664 Q1004,1592 1031.5,1497 Q1059,1402 1064,1275 Q1065,1256 1065,1216 L809,1216 L809,1273 Q808,1326 805,1363.5 Q802,1401 794,1441 Q786,1481 770.5,1507.5 Q755,1534 731.5,1556.5 Q708,1579 672,1589.5 Q636,1600 588,1600 Q526,1600 481.5,1580 Q437,1560 412,1528.5 Q387,1497 373.5,1444 Q360,1391 356,1340.5 Q352,1290 352,1216 L352,576 Q352,512 357.5,460 Q363,408 379,356.5 Q395,305 420.5,270 Q446,235 488.5,213.5 Q531,192 588,192 Q645,192 686,214 Q727,236 750.5,270 Q774,304 787.5,357 Q801,410 805,460 Q809,510 809,576 L809,640 L1065,640 L1065,576 Q1065,437 1040.5,332 Q1016,227 961.5,146.5 Q907,66 813.5,24 Q720,-18 588,-18"/> 
            </font>
</defs>
</svg>
